G04 #@! TF.GenerationSoftware,KiCad,Pcbnew,5.1.9-73d0e3b20d~88~ubuntu20.04.1*
G04 #@! TF.CreationDate,2021-02-25T16:20:24+01:00*
G04 #@! TF.ProjectId,kick,6b69636b-2e6b-4696-9361-645f70636258,rev?*
G04 #@! TF.SameCoordinates,Original*
G04 #@! TF.FileFunction,Soldermask,Top*
G04 #@! TF.FilePolarity,Negative*
%FSLAX46Y46*%
G04 Gerber Fmt 4.6, Leading zero omitted, Abs format (unit mm)*
G04 Created by KiCad (PCBNEW 5.1.9-73d0e3b20d~88~ubuntu20.04.1) date 2021-02-25 16:20:24*
%MOMM*%
%LPD*%
G01*
G04 APERTURE LIST*
%ADD10O,1.800000X1.800000*%
%ADD11O,2.100000X1.800000*%
%ADD12C,1.300000*%
%ADD13C,1.400000*%
%ADD14O,2.050000X1.800000*%
G04 APERTURE END LIST*
G36*
G01*
X111024750Y-102840500D02*
X111987250Y-102840500D01*
G75*
G02*
X112256000Y-103109250I0J-268750D01*
G01*
X112256000Y-103646750D01*
G75*
G02*
X111987250Y-103915500I-268750J0D01*
G01*
X111024750Y-103915500D01*
G75*
G02*
X110756000Y-103646750I0J268750D01*
G01*
X110756000Y-103109250D01*
G75*
G02*
X111024750Y-102840500I268750J0D01*
G01*
G37*
G36*
G01*
X111024750Y-104715500D02*
X111987250Y-104715500D01*
G75*
G02*
X112256000Y-104984250I0J-268750D01*
G01*
X112256000Y-105521750D01*
G75*
G02*
X111987250Y-105790500I-268750J0D01*
G01*
X111024750Y-105790500D01*
G75*
G02*
X110756000Y-105521750I0J268750D01*
G01*
X110756000Y-104984250D01*
G75*
G02*
X111024750Y-104715500I268750J0D01*
G01*
G37*
G36*
G01*
X121822500Y-110834250D02*
X121822500Y-111796750D01*
G75*
G02*
X121553750Y-112065500I-268750J0D01*
G01*
X121016250Y-112065500D01*
G75*
G02*
X120747500Y-111796750I0J268750D01*
G01*
X120747500Y-110834250D01*
G75*
G02*
X121016250Y-110565500I268750J0D01*
G01*
X121553750Y-110565500D01*
G75*
G02*
X121822500Y-110834250I0J-268750D01*
G01*
G37*
G36*
G01*
X119947500Y-110834250D02*
X119947500Y-111796750D01*
G75*
G02*
X119678750Y-112065500I-268750J0D01*
G01*
X119141250Y-112065500D01*
G75*
G02*
X118872500Y-111796750I0J268750D01*
G01*
X118872500Y-110834250D01*
G75*
G02*
X119141250Y-110565500I268750J0D01*
G01*
X119678750Y-110565500D01*
G75*
G02*
X119947500Y-110834250I0J-268750D01*
G01*
G37*
G36*
G01*
X116559250Y-96168500D02*
X115596750Y-96168500D01*
G75*
G02*
X115328000Y-95899750I0J268750D01*
G01*
X115328000Y-95362250D01*
G75*
G02*
X115596750Y-95093500I268750J0D01*
G01*
X116559250Y-95093500D01*
G75*
G02*
X116828000Y-95362250I0J-268750D01*
G01*
X116828000Y-95899750D01*
G75*
G02*
X116559250Y-96168500I-268750J0D01*
G01*
G37*
G36*
G01*
X116559250Y-98043500D02*
X115596750Y-98043500D01*
G75*
G02*
X115328000Y-97774750I0J268750D01*
G01*
X115328000Y-97237250D01*
G75*
G02*
X115596750Y-96968500I268750J0D01*
G01*
X116559250Y-96968500D01*
G75*
G02*
X116828000Y-97237250I0J-268750D01*
G01*
X116828000Y-97774750D01*
G75*
G02*
X116559250Y-98043500I-268750J0D01*
G01*
G37*
G36*
G01*
X118774500Y-97054750D02*
X118774500Y-98017250D01*
G75*
G02*
X118505750Y-98286000I-268750J0D01*
G01*
X117968250Y-98286000D01*
G75*
G02*
X117699500Y-98017250I0J268750D01*
G01*
X117699500Y-97054750D01*
G75*
G02*
X117968250Y-96786000I268750J0D01*
G01*
X118505750Y-96786000D01*
G75*
G02*
X118774500Y-97054750I0J-268750D01*
G01*
G37*
G36*
G01*
X120649500Y-97054750D02*
X120649500Y-98017250D01*
G75*
G02*
X120380750Y-98286000I-268750J0D01*
G01*
X119843250Y-98286000D01*
G75*
G02*
X119574500Y-98017250I0J268750D01*
G01*
X119574500Y-97054750D01*
G75*
G02*
X119843250Y-96786000I268750J0D01*
G01*
X120380750Y-96786000D01*
G75*
G02*
X120649500Y-97054750I0J-268750D01*
G01*
G37*
G36*
G01*
X127100250Y-107598500D02*
X126137750Y-107598500D01*
G75*
G02*
X125869000Y-107329750I0J268750D01*
G01*
X125869000Y-106792250D01*
G75*
G02*
X126137750Y-106523500I268750J0D01*
G01*
X127100250Y-106523500D01*
G75*
G02*
X127369000Y-106792250I0J-268750D01*
G01*
X127369000Y-107329750D01*
G75*
G02*
X127100250Y-107598500I-268750J0D01*
G01*
G37*
G36*
G01*
X127100250Y-109473500D02*
X126137750Y-109473500D01*
G75*
G02*
X125869000Y-109204750I0J268750D01*
G01*
X125869000Y-108667250D01*
G75*
G02*
X126137750Y-108398500I268750J0D01*
G01*
X127100250Y-108398500D01*
G75*
G02*
X127369000Y-108667250I0J-268750D01*
G01*
X127369000Y-109204750D01*
G75*
G02*
X127100250Y-109473500I-268750J0D01*
G01*
G37*
G36*
G01*
X133630750Y-100935500D02*
X134593250Y-100935500D01*
G75*
G02*
X134862000Y-101204250I0J-268750D01*
G01*
X134862000Y-101741750D01*
G75*
G02*
X134593250Y-102010500I-268750J0D01*
G01*
X133630750Y-102010500D01*
G75*
G02*
X133362000Y-101741750I0J268750D01*
G01*
X133362000Y-101204250D01*
G75*
G02*
X133630750Y-100935500I268750J0D01*
G01*
G37*
G36*
G01*
X133630750Y-102810500D02*
X134593250Y-102810500D01*
G75*
G02*
X134862000Y-103079250I0J-268750D01*
G01*
X134862000Y-103616750D01*
G75*
G02*
X134593250Y-103885500I-268750J0D01*
G01*
X133630750Y-103885500D01*
G75*
G02*
X133362000Y-103616750I0J268750D01*
G01*
X133362000Y-103079250D01*
G75*
G02*
X133630750Y-102810500I268750J0D01*
G01*
G37*
G36*
G01*
X136465500Y-90397250D02*
X136465500Y-89434750D01*
G75*
G02*
X136734250Y-89166000I268750J0D01*
G01*
X137271750Y-89166000D01*
G75*
G02*
X137540500Y-89434750I0J-268750D01*
G01*
X137540500Y-90397250D01*
G75*
G02*
X137271750Y-90666000I-268750J0D01*
G01*
X136734250Y-90666000D01*
G75*
G02*
X136465500Y-90397250I0J268750D01*
G01*
G37*
G36*
G01*
X134590500Y-90397250D02*
X134590500Y-89434750D01*
G75*
G02*
X134859250Y-89166000I268750J0D01*
G01*
X135396750Y-89166000D01*
G75*
G02*
X135665500Y-89434750I0J-268750D01*
G01*
X135665500Y-90397250D01*
G75*
G02*
X135396750Y-90666000I-268750J0D01*
G01*
X134859250Y-90666000D01*
G75*
G02*
X134590500Y-90397250I0J268750D01*
G01*
G37*
G36*
G01*
X130683500Y-90397250D02*
X130683500Y-89434750D01*
G75*
G02*
X130952250Y-89166000I268750J0D01*
G01*
X131489750Y-89166000D01*
G75*
G02*
X131758500Y-89434750I0J-268750D01*
G01*
X131758500Y-90397250D01*
G75*
G02*
X131489750Y-90666000I-268750J0D01*
G01*
X130952250Y-90666000D01*
G75*
G02*
X130683500Y-90397250I0J268750D01*
G01*
G37*
G36*
G01*
X132558500Y-90397250D02*
X132558500Y-89434750D01*
G75*
G02*
X132827250Y-89166000I268750J0D01*
G01*
X133364750Y-89166000D01*
G75*
G02*
X133633500Y-89434750I0J-268750D01*
G01*
X133633500Y-90397250D01*
G75*
G02*
X133364750Y-90666000I-268750J0D01*
G01*
X132827250Y-90666000D01*
G75*
G02*
X132558500Y-90397250I0J268750D01*
G01*
G37*
G36*
G01*
X134339250Y-116712500D02*
X133376750Y-116712500D01*
G75*
G02*
X133108000Y-116443750I0J268750D01*
G01*
X133108000Y-115906250D01*
G75*
G02*
X133376750Y-115637500I268750J0D01*
G01*
X134339250Y-115637500D01*
G75*
G02*
X134608000Y-115906250I0J-268750D01*
G01*
X134608000Y-116443750D01*
G75*
G02*
X134339250Y-116712500I-268750J0D01*
G01*
G37*
G36*
G01*
X134339250Y-114837500D02*
X133376750Y-114837500D01*
G75*
G02*
X133108000Y-114568750I0J268750D01*
G01*
X133108000Y-114031250D01*
G75*
G02*
X133376750Y-113762500I268750J0D01*
G01*
X134339250Y-113762500D01*
G75*
G02*
X134608000Y-114031250I0J-268750D01*
G01*
X134608000Y-114568750D01*
G75*
G02*
X134339250Y-114837500I-268750J0D01*
G01*
G37*
G36*
G01*
X148489000Y-111810625D02*
X148489000Y-112979375D01*
G75*
G02*
X148223375Y-113245000I-265625J0D01*
G01*
X146004625Y-113245000D01*
G75*
G02*
X145739000Y-112979375I0J265625D01*
G01*
X145739000Y-111810625D01*
G75*
G02*
X146004625Y-111545000I265625J0D01*
G01*
X148223375Y-111545000D01*
G75*
G02*
X148489000Y-111810625I0J-265625D01*
G01*
G37*
G36*
G01*
X145139000Y-111810625D02*
X145139000Y-112979375D01*
G75*
G02*
X144873375Y-113245000I-265625J0D01*
G01*
X142654625Y-113245000D01*
G75*
G02*
X142389000Y-112979375I0J265625D01*
G01*
X142389000Y-111810625D01*
G75*
G02*
X142654625Y-111545000I265625J0D01*
G01*
X144873375Y-111545000D01*
G75*
G02*
X145139000Y-111810625I0J-265625D01*
G01*
G37*
G36*
G01*
X152095375Y-104039000D02*
X150926625Y-104039000D01*
G75*
G02*
X150661000Y-103773375I0J265625D01*
G01*
X150661000Y-101554625D01*
G75*
G02*
X150926625Y-101289000I265625J0D01*
G01*
X152095375Y-101289000D01*
G75*
G02*
X152361000Y-101554625I0J-265625D01*
G01*
X152361000Y-103773375D01*
G75*
G02*
X152095375Y-104039000I-265625J0D01*
G01*
G37*
G36*
G01*
X152095375Y-100689000D02*
X150926625Y-100689000D01*
G75*
G02*
X150661000Y-100423375I0J265625D01*
G01*
X150661000Y-98204625D01*
G75*
G02*
X150926625Y-97939000I265625J0D01*
G01*
X152095375Y-97939000D01*
G75*
G02*
X152361000Y-98204625I0J-265625D01*
G01*
X152361000Y-100423375D01*
G75*
G02*
X152095375Y-100689000I-265625J0D01*
G01*
G37*
G36*
G01*
X141782625Y-102940000D02*
X142951375Y-102940000D01*
G75*
G02*
X143217000Y-103205625I0J-265625D01*
G01*
X143217000Y-105424375D01*
G75*
G02*
X142951375Y-105690000I-265625J0D01*
G01*
X141782625Y-105690000D01*
G75*
G02*
X141517000Y-105424375I0J265625D01*
G01*
X141517000Y-103205625D01*
G75*
G02*
X141782625Y-102940000I265625J0D01*
G01*
G37*
G36*
G01*
X141782625Y-99590000D02*
X142951375Y-99590000D01*
G75*
G02*
X143217000Y-99855625I0J-265625D01*
G01*
X143217000Y-102074375D01*
G75*
G02*
X142951375Y-102340000I-265625J0D01*
G01*
X141782625Y-102340000D01*
G75*
G02*
X141517000Y-102074375I0J265625D01*
G01*
X141517000Y-99855625D01*
G75*
G02*
X141782625Y-99590000I265625J0D01*
G01*
G37*
G36*
G01*
X152539875Y-88282500D02*
X151371125Y-88282500D01*
G75*
G02*
X151105500Y-88016875I0J265625D01*
G01*
X151105500Y-85798125D01*
G75*
G02*
X151371125Y-85532500I265625J0D01*
G01*
X152539875Y-85532500D01*
G75*
G02*
X152805500Y-85798125I0J-265625D01*
G01*
X152805500Y-88016875D01*
G75*
G02*
X152539875Y-88282500I-265625J0D01*
G01*
G37*
G36*
G01*
X152539875Y-91632500D02*
X151371125Y-91632500D01*
G75*
G02*
X151105500Y-91366875I0J265625D01*
G01*
X151105500Y-89148125D01*
G75*
G02*
X151371125Y-88882500I265625J0D01*
G01*
X152539875Y-88882500D01*
G75*
G02*
X152805500Y-89148125I0J-265625D01*
G01*
X152805500Y-91366875D01*
G75*
G02*
X152539875Y-91632500I-265625J0D01*
G01*
G37*
G36*
G01*
X146140250Y-87933000D02*
X147102750Y-87933000D01*
G75*
G02*
X147371500Y-88201750I0J-268750D01*
G01*
X147371500Y-88739250D01*
G75*
G02*
X147102750Y-89008000I-268750J0D01*
G01*
X146140250Y-89008000D01*
G75*
G02*
X145871500Y-88739250I0J268750D01*
G01*
X145871500Y-88201750D01*
G75*
G02*
X146140250Y-87933000I268750J0D01*
G01*
G37*
G36*
G01*
X146140250Y-89808000D02*
X147102750Y-89808000D01*
G75*
G02*
X147371500Y-90076750I0J-268750D01*
G01*
X147371500Y-90614250D01*
G75*
G02*
X147102750Y-90883000I-268750J0D01*
G01*
X146140250Y-90883000D01*
G75*
G02*
X145871500Y-90614250I0J268750D01*
G01*
X145871500Y-90076750D01*
G75*
G02*
X146140250Y-89808000I268750J0D01*
G01*
G37*
G36*
G01*
X117098000Y-112984000D02*
X117598000Y-112984000D01*
G75*
G02*
X117648000Y-113034000I0J-50000D01*
G01*
X117648000Y-113534000D01*
G75*
G02*
X117598000Y-113584000I-50000J0D01*
G01*
X117098000Y-113584000D01*
G75*
G02*
X117048000Y-113534000I0J50000D01*
G01*
X117048000Y-113034000D01*
G75*
G02*
X117098000Y-112984000I50000J0D01*
G01*
G37*
G36*
G01*
X117098000Y-115184000D02*
X117598000Y-115184000D01*
G75*
G02*
X117648000Y-115234000I0J-50000D01*
G01*
X117648000Y-115734000D01*
G75*
G02*
X117598000Y-115784000I-50000J0D01*
G01*
X117098000Y-115784000D01*
G75*
G02*
X117048000Y-115734000I0J50000D01*
G01*
X117048000Y-115234000D01*
G75*
G02*
X117098000Y-115184000I50000J0D01*
G01*
G37*
G36*
G01*
X123032000Y-107541000D02*
X122332000Y-107541000D01*
G75*
G02*
X122282000Y-107491000I0J50000D01*
G01*
X122282000Y-106891000D01*
G75*
G02*
X122332000Y-106841000I50000J0D01*
G01*
X123032000Y-106841000D01*
G75*
G02*
X123082000Y-106891000I0J-50000D01*
G01*
X123082000Y-107491000D01*
G75*
G02*
X123032000Y-107541000I-50000J0D01*
G01*
G37*
G36*
G01*
X123032000Y-106141000D02*
X122332000Y-106141000D01*
G75*
G02*
X122282000Y-106091000I0J50000D01*
G01*
X122282000Y-105491000D01*
G75*
G02*
X122332000Y-105441000I50000J0D01*
G01*
X123032000Y-105441000D01*
G75*
G02*
X123082000Y-105491000I0J-50000D01*
G01*
X123082000Y-106091000D01*
G75*
G02*
X123032000Y-106141000I-50000J0D01*
G01*
G37*
G36*
G01*
X124302000Y-87662500D02*
X124302000Y-86962500D01*
G75*
G02*
X124352000Y-86912500I50000J0D01*
G01*
X124952000Y-86912500D01*
G75*
G02*
X125002000Y-86962500I0J-50000D01*
G01*
X125002000Y-87662500D01*
G75*
G02*
X124952000Y-87712500I-50000J0D01*
G01*
X124352000Y-87712500D01*
G75*
G02*
X124302000Y-87662500I0J50000D01*
G01*
G37*
G36*
G01*
X122902000Y-87662500D02*
X122902000Y-86962500D01*
G75*
G02*
X122952000Y-86912500I50000J0D01*
G01*
X123552000Y-86912500D01*
G75*
G02*
X123602000Y-86962500I0J-50000D01*
G01*
X123602000Y-87662500D01*
G75*
G02*
X123552000Y-87712500I-50000J0D01*
G01*
X122952000Y-87712500D01*
G75*
G02*
X122902000Y-87662500I0J50000D01*
G01*
G37*
G36*
G01*
X160644000Y-97878000D02*
X160644000Y-96178000D01*
G75*
G02*
X160694000Y-96128000I50000J0D01*
G01*
X162394000Y-96128000D01*
G75*
G02*
X162444000Y-96178000I0J-50000D01*
G01*
X162444000Y-97878000D01*
G75*
G02*
X162394000Y-97928000I-50000J0D01*
G01*
X160694000Y-97928000D01*
G75*
G02*
X160644000Y-97878000I0J50000D01*
G01*
G37*
D10*
X164084000Y-97028000D03*
X161544000Y-99568000D03*
X164084000Y-99568000D03*
X161544000Y-102108000D03*
X164084000Y-102108000D03*
X161544000Y-104648000D03*
X164084000Y-104648000D03*
X161544000Y-107188000D03*
X164084000Y-107188000D03*
X161544000Y-109728000D03*
X164084000Y-109728000D03*
X161544000Y-112268000D03*
X164084000Y-112268000D03*
X161544000Y-114808000D03*
X164084000Y-114808000D03*
G36*
G01*
X113053295Y-114565000D02*
X111482705Y-114565000D01*
G75*
G02*
X111218000Y-114300295I0J264705D01*
G01*
X111218000Y-113029705D01*
G75*
G02*
X111482705Y-112765000I264705J0D01*
G01*
X113053295Y-112765000D01*
G75*
G02*
X113318000Y-113029705I0J-264705D01*
G01*
X113318000Y-114300295D01*
G75*
G02*
X113053295Y-114565000I-264705J0D01*
G01*
G37*
D11*
X112268000Y-111165000D03*
D12*
X114268000Y-115265000D03*
G36*
G01*
X162473205Y-87936500D02*
X164043795Y-87936500D01*
G75*
G02*
X164308500Y-88201205I0J-264705D01*
G01*
X164308500Y-89471795D01*
G75*
G02*
X164043795Y-89736500I-264705J0D01*
G01*
X162473205Y-89736500D01*
G75*
G02*
X162208500Y-89471795I0J264705D01*
G01*
X162208500Y-88201205D01*
G75*
G02*
X162473205Y-87936500I264705J0D01*
G01*
G37*
D11*
X163258500Y-91336500D03*
G36*
G01*
X127760500Y-112600500D02*
X127760500Y-111300500D01*
G75*
G02*
X127810500Y-111250500I50000J0D01*
G01*
X129110500Y-111250500D01*
G75*
G02*
X129160500Y-111300500I0J-50000D01*
G01*
X129160500Y-112600500D01*
G75*
G02*
X129110500Y-112650500I-50000J0D01*
G01*
X127810500Y-112650500D01*
G75*
G02*
X127760500Y-112600500I0J50000D01*
G01*
G37*
D13*
X128460500Y-114490500D03*
X129730500Y-113220500D03*
G36*
G01*
X111568000Y-91836000D02*
X111568000Y-90536000D01*
G75*
G02*
X111618000Y-90486000I50000J0D01*
G01*
X112918000Y-90486000D01*
G75*
G02*
X112968000Y-90536000I0J-50000D01*
G01*
X112968000Y-91836000D01*
G75*
G02*
X112918000Y-91886000I-50000J0D01*
G01*
X111618000Y-91886000D01*
G75*
G02*
X111568000Y-91836000I0J50000D01*
G01*
G37*
X112268000Y-93726000D03*
X113538000Y-92456000D03*
X114554000Y-101346000D03*
X115824000Y-100076000D03*
G36*
G01*
X116524000Y-101966000D02*
X116524000Y-103266000D01*
G75*
G02*
X116474000Y-103316000I-50000J0D01*
G01*
X115174000Y-103316000D01*
G75*
G02*
X115124000Y-103266000I0J50000D01*
G01*
X115124000Y-101966000D01*
G75*
G02*
X115174000Y-101916000I50000J0D01*
G01*
X116474000Y-101916000D01*
G75*
G02*
X116524000Y-101966000I0J-50000D01*
G01*
G37*
X120650000Y-92456000D03*
X119380000Y-93726000D03*
G36*
G01*
X118680000Y-91836000D02*
X118680000Y-90536000D01*
G75*
G02*
X118730000Y-90486000I50000J0D01*
G01*
X120030000Y-90486000D01*
G75*
G02*
X120080000Y-90536000I0J-50000D01*
G01*
X120080000Y-91836000D01*
G75*
G02*
X120030000Y-91886000I-50000J0D01*
G01*
X118730000Y-91886000D01*
G75*
G02*
X118680000Y-91836000I0J50000D01*
G01*
G37*
G36*
G01*
X127189000Y-93106000D02*
X127189000Y-91806000D01*
G75*
G02*
X127239000Y-91756000I50000J0D01*
G01*
X128539000Y-91756000D01*
G75*
G02*
X128589000Y-91806000I0J-50000D01*
G01*
X128589000Y-93106000D01*
G75*
G02*
X128539000Y-93156000I-50000J0D01*
G01*
X127239000Y-93156000D01*
G75*
G02*
X127189000Y-93106000I0J50000D01*
G01*
G37*
X127889000Y-94996000D03*
X129159000Y-93726000D03*
X150685500Y-94742000D03*
X151955500Y-93472000D03*
G36*
G01*
X152655500Y-95362000D02*
X152655500Y-96662000D01*
G75*
G02*
X152605500Y-96712000I-50000J0D01*
G01*
X151305500Y-96712000D01*
G75*
G02*
X151255500Y-96662000I0J50000D01*
G01*
X151255500Y-95362000D01*
G75*
G02*
X151305500Y-95312000I50000J0D01*
G01*
X152605500Y-95312000D01*
G75*
G02*
X152655500Y-95362000I0J-50000D01*
G01*
G37*
G36*
G01*
X119152750Y-114748500D02*
X120115250Y-114748500D01*
G75*
G02*
X120384000Y-115017250I0J-268750D01*
G01*
X120384000Y-115554750D01*
G75*
G02*
X120115250Y-115823500I-268750J0D01*
G01*
X119152750Y-115823500D01*
G75*
G02*
X118884000Y-115554750I0J268750D01*
G01*
X118884000Y-115017250D01*
G75*
G02*
X119152750Y-114748500I268750J0D01*
G01*
G37*
G36*
G01*
X119152750Y-112873500D02*
X120115250Y-112873500D01*
G75*
G02*
X120384000Y-113142250I0J-268750D01*
G01*
X120384000Y-113679750D01*
G75*
G02*
X120115250Y-113948500I-268750J0D01*
G01*
X119152750Y-113948500D01*
G75*
G02*
X118884000Y-113679750I0J268750D01*
G01*
X118884000Y-113142250D01*
G75*
G02*
X119152750Y-112873500I268750J0D01*
G01*
G37*
G36*
G01*
X111024750Y-95982500D02*
X111987250Y-95982500D01*
G75*
G02*
X112256000Y-96251250I0J-268750D01*
G01*
X112256000Y-96788750D01*
G75*
G02*
X111987250Y-97057500I-268750J0D01*
G01*
X111024750Y-97057500D01*
G75*
G02*
X110756000Y-96788750I0J268750D01*
G01*
X110756000Y-96251250D01*
G75*
G02*
X111024750Y-95982500I268750J0D01*
G01*
G37*
G36*
G01*
X111024750Y-97857500D02*
X111987250Y-97857500D01*
G75*
G02*
X112256000Y-98126250I0J-268750D01*
G01*
X112256000Y-98663750D01*
G75*
G02*
X111987250Y-98932500I-268750J0D01*
G01*
X111024750Y-98932500D01*
G75*
G02*
X110756000Y-98663750I0J268750D01*
G01*
X110756000Y-98126250D01*
G75*
G02*
X111024750Y-97857500I268750J0D01*
G01*
G37*
G36*
G01*
X124557500Y-111796750D02*
X124557500Y-110834250D01*
G75*
G02*
X124826250Y-110565500I268750J0D01*
G01*
X125363750Y-110565500D01*
G75*
G02*
X125632500Y-110834250I0J-268750D01*
G01*
X125632500Y-111796750D01*
G75*
G02*
X125363750Y-112065500I-268750J0D01*
G01*
X124826250Y-112065500D01*
G75*
G02*
X124557500Y-111796750I0J268750D01*
G01*
G37*
G36*
G01*
X122682500Y-111796750D02*
X122682500Y-110834250D01*
G75*
G02*
X122951250Y-110565500I268750J0D01*
G01*
X123488750Y-110565500D01*
G75*
G02*
X123757500Y-110834250I0J-268750D01*
G01*
X123757500Y-111796750D01*
G75*
G02*
X123488750Y-112065500I-268750J0D01*
G01*
X122951250Y-112065500D01*
G75*
G02*
X122682500Y-111796750I0J268750D01*
G01*
G37*
G36*
G01*
X124613750Y-112873500D02*
X125576250Y-112873500D01*
G75*
G02*
X125845000Y-113142250I0J-268750D01*
G01*
X125845000Y-113679750D01*
G75*
G02*
X125576250Y-113948500I-268750J0D01*
G01*
X124613750Y-113948500D01*
G75*
G02*
X124345000Y-113679750I0J268750D01*
G01*
X124345000Y-113142250D01*
G75*
G02*
X124613750Y-112873500I268750J0D01*
G01*
G37*
G36*
G01*
X124613750Y-114748500D02*
X125576250Y-114748500D01*
G75*
G02*
X125845000Y-115017250I0J-268750D01*
G01*
X125845000Y-115554750D01*
G75*
G02*
X125576250Y-115823500I-268750J0D01*
G01*
X124613750Y-115823500D01*
G75*
G02*
X124345000Y-115554750I0J268750D01*
G01*
X124345000Y-115017250D01*
G75*
G02*
X124613750Y-114748500I268750J0D01*
G01*
G37*
G36*
G01*
X112749250Y-87532500D02*
X111786750Y-87532500D01*
G75*
G02*
X111518000Y-87263750I0J268750D01*
G01*
X111518000Y-86726250D01*
G75*
G02*
X111786750Y-86457500I268750J0D01*
G01*
X112749250Y-86457500D01*
G75*
G02*
X113018000Y-86726250I0J-268750D01*
G01*
X113018000Y-87263750D01*
G75*
G02*
X112749250Y-87532500I-268750J0D01*
G01*
G37*
G36*
G01*
X112749250Y-89407500D02*
X111786750Y-89407500D01*
G75*
G02*
X111518000Y-89138750I0J268750D01*
G01*
X111518000Y-88601250D01*
G75*
G02*
X111786750Y-88332500I268750J0D01*
G01*
X112749250Y-88332500D01*
G75*
G02*
X113018000Y-88601250I0J-268750D01*
G01*
X113018000Y-89138750D01*
G75*
G02*
X112749250Y-89407500I-268750J0D01*
G01*
G37*
G36*
G01*
X115342750Y-104364500D02*
X116305250Y-104364500D01*
G75*
G02*
X116574000Y-104633250I0J-268750D01*
G01*
X116574000Y-105170750D01*
G75*
G02*
X116305250Y-105439500I-268750J0D01*
G01*
X115342750Y-105439500D01*
G75*
G02*
X115074000Y-105170750I0J268750D01*
G01*
X115074000Y-104633250D01*
G75*
G02*
X115342750Y-104364500I268750J0D01*
G01*
G37*
G36*
G01*
X115342750Y-106239500D02*
X116305250Y-106239500D01*
G75*
G02*
X116574000Y-106508250I0J-268750D01*
G01*
X116574000Y-107045750D01*
G75*
G02*
X116305250Y-107314500I-268750J0D01*
G01*
X115342750Y-107314500D01*
G75*
G02*
X115074000Y-107045750I0J268750D01*
G01*
X115074000Y-106508250D01*
G75*
G02*
X115342750Y-106239500I268750J0D01*
G01*
G37*
G36*
G01*
X115723750Y-88362500D02*
X116686250Y-88362500D01*
G75*
G02*
X116955000Y-88631250I0J-268750D01*
G01*
X116955000Y-89168750D01*
G75*
G02*
X116686250Y-89437500I-268750J0D01*
G01*
X115723750Y-89437500D01*
G75*
G02*
X115455000Y-89168750I0J268750D01*
G01*
X115455000Y-88631250D01*
G75*
G02*
X115723750Y-88362500I268750J0D01*
G01*
G37*
G36*
G01*
X115723750Y-86487500D02*
X116686250Y-86487500D01*
G75*
G02*
X116955000Y-86756250I0J-268750D01*
G01*
X116955000Y-87293750D01*
G75*
G02*
X116686250Y-87562500I-268750J0D01*
G01*
X115723750Y-87562500D01*
G75*
G02*
X115455000Y-87293750I0J268750D01*
G01*
X115455000Y-86756250D01*
G75*
G02*
X115723750Y-86487500I268750J0D01*
G01*
G37*
G36*
G01*
X119025750Y-88362500D02*
X119988250Y-88362500D01*
G75*
G02*
X120257000Y-88631250I0J-268750D01*
G01*
X120257000Y-89168750D01*
G75*
G02*
X119988250Y-89437500I-268750J0D01*
G01*
X119025750Y-89437500D01*
G75*
G02*
X118757000Y-89168750I0J268750D01*
G01*
X118757000Y-88631250D01*
G75*
G02*
X119025750Y-88362500I268750J0D01*
G01*
G37*
G36*
G01*
X119025750Y-86487500D02*
X119988250Y-86487500D01*
G75*
G02*
X120257000Y-86756250I0J-268750D01*
G01*
X120257000Y-87293750D01*
G75*
G02*
X119988250Y-87562500I-268750J0D01*
G01*
X119025750Y-87562500D01*
G75*
G02*
X118757000Y-87293750I0J268750D01*
G01*
X118757000Y-86756250D01*
G75*
G02*
X119025750Y-86487500I268750J0D01*
G01*
G37*
G36*
G01*
X122457500Y-103150750D02*
X122457500Y-104113250D01*
G75*
G02*
X122188750Y-104382000I-268750J0D01*
G01*
X121651250Y-104382000D01*
G75*
G02*
X121382500Y-104113250I0J268750D01*
G01*
X121382500Y-103150750D01*
G75*
G02*
X121651250Y-102882000I268750J0D01*
G01*
X122188750Y-102882000D01*
G75*
G02*
X122457500Y-103150750I0J-268750D01*
G01*
G37*
G36*
G01*
X120582500Y-103150750D02*
X120582500Y-104113250D01*
G75*
G02*
X120313750Y-104382000I-268750J0D01*
G01*
X119776250Y-104382000D01*
G75*
G02*
X119507500Y-104113250I0J268750D01*
G01*
X119507500Y-103150750D01*
G75*
G02*
X119776250Y-102882000I268750J0D01*
G01*
X120313750Y-102882000D01*
G75*
G02*
X120582500Y-103150750I0J-268750D01*
G01*
G37*
G36*
G01*
X119025750Y-107128500D02*
X119988250Y-107128500D01*
G75*
G02*
X120257000Y-107397250I0J-268750D01*
G01*
X120257000Y-107934750D01*
G75*
G02*
X119988250Y-108203500I-268750J0D01*
G01*
X119025750Y-108203500D01*
G75*
G02*
X118757000Y-107934750I0J268750D01*
G01*
X118757000Y-107397250D01*
G75*
G02*
X119025750Y-107128500I268750J0D01*
G01*
G37*
G36*
G01*
X119025750Y-105253500D02*
X119988250Y-105253500D01*
G75*
G02*
X120257000Y-105522250I0J-268750D01*
G01*
X120257000Y-106059750D01*
G75*
G02*
X119988250Y-106328500I-268750J0D01*
G01*
X119025750Y-106328500D01*
G75*
G02*
X118757000Y-106059750I0J268750D01*
G01*
X118757000Y-105522250D01*
G75*
G02*
X119025750Y-105253500I268750J0D01*
G01*
G37*
G36*
G01*
X125505500Y-91974750D02*
X125505500Y-92937250D01*
G75*
G02*
X125236750Y-93206000I-268750J0D01*
G01*
X124699250Y-93206000D01*
G75*
G02*
X124430500Y-92937250I0J268750D01*
G01*
X124430500Y-91974750D01*
G75*
G02*
X124699250Y-91706000I268750J0D01*
G01*
X125236750Y-91706000D01*
G75*
G02*
X125505500Y-91974750I0J-268750D01*
G01*
G37*
G36*
G01*
X123630500Y-91974750D02*
X123630500Y-92937250D01*
G75*
G02*
X123361750Y-93206000I-268750J0D01*
G01*
X122824250Y-93206000D01*
G75*
G02*
X122555500Y-92937250I0J268750D01*
G01*
X122555500Y-91974750D01*
G75*
G02*
X122824250Y-91706000I268750J0D01*
G01*
X123361750Y-91706000D01*
G75*
G02*
X123630500Y-91974750I0J-268750D01*
G01*
G37*
G36*
G01*
X123600500Y-88672750D02*
X123600500Y-89635250D01*
G75*
G02*
X123331750Y-89904000I-268750J0D01*
G01*
X122794250Y-89904000D01*
G75*
G02*
X122525500Y-89635250I0J268750D01*
G01*
X122525500Y-88672750D01*
G75*
G02*
X122794250Y-88404000I268750J0D01*
G01*
X123331750Y-88404000D01*
G75*
G02*
X123600500Y-88672750I0J-268750D01*
G01*
G37*
G36*
G01*
X125475500Y-88672750D02*
X125475500Y-89635250D01*
G75*
G02*
X125206750Y-89904000I-268750J0D01*
G01*
X124669250Y-89904000D01*
G75*
G02*
X124400500Y-89635250I0J268750D01*
G01*
X124400500Y-88672750D01*
G75*
G02*
X124669250Y-88404000I268750J0D01*
G01*
X125206750Y-88404000D01*
G75*
G02*
X125475500Y-88672750I0J-268750D01*
G01*
G37*
G36*
G01*
X130683500Y-98906250D02*
X130683500Y-97943750D01*
G75*
G02*
X130952250Y-97675000I268750J0D01*
G01*
X131489750Y-97675000D01*
G75*
G02*
X131758500Y-97943750I0J-268750D01*
G01*
X131758500Y-98906250D01*
G75*
G02*
X131489750Y-99175000I-268750J0D01*
G01*
X130952250Y-99175000D01*
G75*
G02*
X130683500Y-98906250I0J268750D01*
G01*
G37*
G36*
G01*
X132558500Y-98906250D02*
X132558500Y-97943750D01*
G75*
G02*
X132827250Y-97675000I268750J0D01*
G01*
X133364750Y-97675000D01*
G75*
G02*
X133633500Y-97943750I0J-268750D01*
G01*
X133633500Y-98906250D01*
G75*
G02*
X133364750Y-99175000I-268750J0D01*
G01*
X132827250Y-99175000D01*
G75*
G02*
X132558500Y-98906250I0J268750D01*
G01*
G37*
G36*
G01*
X133630750Y-93442500D02*
X134593250Y-93442500D01*
G75*
G02*
X134862000Y-93711250I0J-268750D01*
G01*
X134862000Y-94248750D01*
G75*
G02*
X134593250Y-94517500I-268750J0D01*
G01*
X133630750Y-94517500D01*
G75*
G02*
X133362000Y-94248750I0J268750D01*
G01*
X133362000Y-93711250D01*
G75*
G02*
X133630750Y-93442500I268750J0D01*
G01*
G37*
G36*
G01*
X133630750Y-91567500D02*
X134593250Y-91567500D01*
G75*
G02*
X134862000Y-91836250I0J-268750D01*
G01*
X134862000Y-92373750D01*
G75*
G02*
X134593250Y-92642500I-268750J0D01*
G01*
X133630750Y-92642500D01*
G75*
G02*
X133362000Y-92373750I0J268750D01*
G01*
X133362000Y-91836250D01*
G75*
G02*
X133630750Y-91567500I268750J0D01*
G01*
G37*
G36*
G01*
X128550750Y-98888500D02*
X129513250Y-98888500D01*
G75*
G02*
X129782000Y-99157250I0J-268750D01*
G01*
X129782000Y-99694750D01*
G75*
G02*
X129513250Y-99963500I-268750J0D01*
G01*
X128550750Y-99963500D01*
G75*
G02*
X128282000Y-99694750I0J268750D01*
G01*
X128282000Y-99157250D01*
G75*
G02*
X128550750Y-98888500I268750J0D01*
G01*
G37*
G36*
G01*
X128550750Y-97013500D02*
X129513250Y-97013500D01*
G75*
G02*
X129782000Y-97282250I0J-268750D01*
G01*
X129782000Y-97819750D01*
G75*
G02*
X129513250Y-98088500I-268750J0D01*
G01*
X128550750Y-98088500D01*
G75*
G02*
X128282000Y-97819750I0J268750D01*
G01*
X128282000Y-97282250D01*
G75*
G02*
X128550750Y-97013500I268750J0D01*
G01*
G37*
G36*
G01*
X131699500Y-109193250D02*
X131699500Y-108230750D01*
G75*
G02*
X131968250Y-107962000I268750J0D01*
G01*
X132505750Y-107962000D01*
G75*
G02*
X132774500Y-108230750I0J-268750D01*
G01*
X132774500Y-109193250D01*
G75*
G02*
X132505750Y-109462000I-268750J0D01*
G01*
X131968250Y-109462000D01*
G75*
G02*
X131699500Y-109193250I0J268750D01*
G01*
G37*
G36*
G01*
X133574500Y-109193250D02*
X133574500Y-108230750D01*
G75*
G02*
X133843250Y-107962000I268750J0D01*
G01*
X134380750Y-107962000D01*
G75*
G02*
X134649500Y-108230750I0J-268750D01*
G01*
X134649500Y-109193250D01*
G75*
G02*
X134380750Y-109462000I-268750J0D01*
G01*
X133843250Y-109462000D01*
G75*
G02*
X133574500Y-109193250I0J268750D01*
G01*
G37*
G36*
G01*
X137133250Y-98297500D02*
X136170750Y-98297500D01*
G75*
G02*
X135902000Y-98028750I0J268750D01*
G01*
X135902000Y-97491250D01*
G75*
G02*
X136170750Y-97222500I268750J0D01*
G01*
X137133250Y-97222500D01*
G75*
G02*
X137402000Y-97491250I0J-268750D01*
G01*
X137402000Y-98028750D01*
G75*
G02*
X137133250Y-98297500I-268750J0D01*
G01*
G37*
G36*
G01*
X137133250Y-96422500D02*
X136170750Y-96422500D01*
G75*
G02*
X135902000Y-96153750I0J268750D01*
G01*
X135902000Y-95616250D01*
G75*
G02*
X136170750Y-95347500I268750J0D01*
G01*
X137133250Y-95347500D01*
G75*
G02*
X137402000Y-95616250I0J-268750D01*
G01*
X137402000Y-96153750D01*
G75*
G02*
X137133250Y-96422500I-268750J0D01*
G01*
G37*
G36*
G01*
X133376750Y-111954500D02*
X134339250Y-111954500D01*
G75*
G02*
X134608000Y-112223250I0J-268750D01*
G01*
X134608000Y-112760750D01*
G75*
G02*
X134339250Y-113029500I-268750J0D01*
G01*
X133376750Y-113029500D01*
G75*
G02*
X133108000Y-112760750I0J268750D01*
G01*
X133108000Y-112223250D01*
G75*
G02*
X133376750Y-111954500I268750J0D01*
G01*
G37*
G36*
G01*
X133376750Y-110079500D02*
X134339250Y-110079500D01*
G75*
G02*
X134608000Y-110348250I0J-268750D01*
G01*
X134608000Y-110885750D01*
G75*
G02*
X134339250Y-111154500I-268750J0D01*
G01*
X133376750Y-111154500D01*
G75*
G02*
X133108000Y-110885750I0J268750D01*
G01*
X133108000Y-110348250D01*
G75*
G02*
X133376750Y-110079500I268750J0D01*
G01*
G37*
G36*
G01*
X129884250Y-108365000D02*
X130846750Y-108365000D01*
G75*
G02*
X131115500Y-108633750I0J-268750D01*
G01*
X131115500Y-109171250D01*
G75*
G02*
X130846750Y-109440000I-268750J0D01*
G01*
X129884250Y-109440000D01*
G75*
G02*
X129615500Y-109171250I0J268750D01*
G01*
X129615500Y-108633750D01*
G75*
G02*
X129884250Y-108365000I268750J0D01*
G01*
G37*
G36*
G01*
X129884250Y-106490000D02*
X130846750Y-106490000D01*
G75*
G02*
X131115500Y-106758750I0J-268750D01*
G01*
X131115500Y-107296250D01*
G75*
G02*
X130846750Y-107565000I-268750J0D01*
G01*
X129884250Y-107565000D01*
G75*
G02*
X129615500Y-107296250I0J268750D01*
G01*
X129615500Y-106758750D01*
G75*
G02*
X129884250Y-106490000I268750J0D01*
G01*
G37*
G36*
G01*
X137059750Y-105429000D02*
X138022250Y-105429000D01*
G75*
G02*
X138291000Y-105697750I0J-268750D01*
G01*
X138291000Y-106235250D01*
G75*
G02*
X138022250Y-106504000I-268750J0D01*
G01*
X137059750Y-106504000D01*
G75*
G02*
X136791000Y-106235250I0J268750D01*
G01*
X136791000Y-105697750D01*
G75*
G02*
X137059750Y-105429000I268750J0D01*
G01*
G37*
G36*
G01*
X137059750Y-103554000D02*
X138022250Y-103554000D01*
G75*
G02*
X138291000Y-103822750I0J-268750D01*
G01*
X138291000Y-104360250D01*
G75*
G02*
X138022250Y-104629000I-268750J0D01*
G01*
X137059750Y-104629000D01*
G75*
G02*
X136791000Y-104360250I0J268750D01*
G01*
X136791000Y-103822750D01*
G75*
G02*
X137059750Y-103554000I268750J0D01*
G01*
G37*
G36*
G01*
X137059750Y-100046500D02*
X138022250Y-100046500D01*
G75*
G02*
X138291000Y-100315250I0J-268750D01*
G01*
X138291000Y-100852750D01*
G75*
G02*
X138022250Y-101121500I-268750J0D01*
G01*
X137059750Y-101121500D01*
G75*
G02*
X136791000Y-100852750I0J268750D01*
G01*
X136791000Y-100315250D01*
G75*
G02*
X137059750Y-100046500I268750J0D01*
G01*
G37*
G36*
G01*
X137059750Y-101921500D02*
X138022250Y-101921500D01*
G75*
G02*
X138291000Y-102190250I0J-268750D01*
G01*
X138291000Y-102727750D01*
G75*
G02*
X138022250Y-102996500I-268750J0D01*
G01*
X137059750Y-102996500D01*
G75*
G02*
X136791000Y-102727750I0J268750D01*
G01*
X136791000Y-102190250D01*
G75*
G02*
X137059750Y-101921500I268750J0D01*
G01*
G37*
G36*
G01*
X146140250Y-98776500D02*
X147102750Y-98776500D01*
G75*
G02*
X147371500Y-99045250I0J-268750D01*
G01*
X147371500Y-99582750D01*
G75*
G02*
X147102750Y-99851500I-268750J0D01*
G01*
X146140250Y-99851500D01*
G75*
G02*
X145871500Y-99582750I0J268750D01*
G01*
X145871500Y-99045250D01*
G75*
G02*
X146140250Y-98776500I268750J0D01*
G01*
G37*
G36*
G01*
X146140250Y-100651500D02*
X147102750Y-100651500D01*
G75*
G02*
X147371500Y-100920250I0J-268750D01*
G01*
X147371500Y-101457750D01*
G75*
G02*
X147102750Y-101726500I-268750J0D01*
G01*
X146140250Y-101726500D01*
G75*
G02*
X145871500Y-101457750I0J268750D01*
G01*
X145871500Y-100920250D01*
G75*
G02*
X146140250Y-100651500I268750J0D01*
G01*
G37*
G36*
G01*
X147102750Y-98137000D02*
X146140250Y-98137000D01*
G75*
G02*
X145871500Y-97868250I0J268750D01*
G01*
X145871500Y-97330750D01*
G75*
G02*
X146140250Y-97062000I268750J0D01*
G01*
X147102750Y-97062000D01*
G75*
G02*
X147371500Y-97330750I0J-268750D01*
G01*
X147371500Y-97868250D01*
G75*
G02*
X147102750Y-98137000I-268750J0D01*
G01*
G37*
G36*
G01*
X147102750Y-96262000D02*
X146140250Y-96262000D01*
G75*
G02*
X145871500Y-95993250I0J268750D01*
G01*
X145871500Y-95455750D01*
G75*
G02*
X146140250Y-95187000I268750J0D01*
G01*
X147102750Y-95187000D01*
G75*
G02*
X147371500Y-95455750I0J-268750D01*
G01*
X147371500Y-95993250D01*
G75*
G02*
X147102750Y-96262000I-268750J0D01*
G01*
G37*
G36*
G01*
X146140250Y-91552500D02*
X147102750Y-91552500D01*
G75*
G02*
X147371500Y-91821250I0J-268750D01*
G01*
X147371500Y-92358750D01*
G75*
G02*
X147102750Y-92627500I-268750J0D01*
G01*
X146140250Y-92627500D01*
G75*
G02*
X145871500Y-92358750I0J268750D01*
G01*
X145871500Y-91821250D01*
G75*
G02*
X146140250Y-91552500I268750J0D01*
G01*
G37*
G36*
G01*
X146140250Y-93427500D02*
X147102750Y-93427500D01*
G75*
G02*
X147371500Y-93696250I0J-268750D01*
G01*
X147371500Y-94233750D01*
G75*
G02*
X147102750Y-94502500I-268750J0D01*
G01*
X146140250Y-94502500D01*
G75*
G02*
X145871500Y-94233750I0J268750D01*
G01*
X145871500Y-93696250D01*
G75*
G02*
X146140250Y-93427500I268750J0D01*
G01*
G37*
G36*
G01*
X157065000Y-86386750D02*
X157065000Y-87349250D01*
G75*
G02*
X156796250Y-87618000I-268750J0D01*
G01*
X156258750Y-87618000D01*
G75*
G02*
X155990000Y-87349250I0J268750D01*
G01*
X155990000Y-86386750D01*
G75*
G02*
X156258750Y-86118000I268750J0D01*
G01*
X156796250Y-86118000D01*
G75*
G02*
X157065000Y-86386750I0J-268750D01*
G01*
G37*
G36*
G01*
X158940000Y-86386750D02*
X158940000Y-87349250D01*
G75*
G02*
X158671250Y-87618000I-268750J0D01*
G01*
X158133750Y-87618000D01*
G75*
G02*
X157865000Y-87349250I0J268750D01*
G01*
X157865000Y-86386750D01*
G75*
G02*
X158133750Y-86118000I268750J0D01*
G01*
X158671250Y-86118000D01*
G75*
G02*
X158940000Y-86386750I0J-268750D01*
G01*
G37*
G36*
G01*
X156046250Y-89584000D02*
X157008750Y-89584000D01*
G75*
G02*
X157277500Y-89852750I0J-268750D01*
G01*
X157277500Y-90390250D01*
G75*
G02*
X157008750Y-90659000I-268750J0D01*
G01*
X156046250Y-90659000D01*
G75*
G02*
X155777500Y-90390250I0J268750D01*
G01*
X155777500Y-89852750D01*
G75*
G02*
X156046250Y-89584000I268750J0D01*
G01*
G37*
G36*
G01*
X156046250Y-91459000D02*
X157008750Y-91459000D01*
G75*
G02*
X157277500Y-91727750I0J-268750D01*
G01*
X157277500Y-92265250D01*
G75*
G02*
X157008750Y-92534000I-268750J0D01*
G01*
X156046250Y-92534000D01*
G75*
G02*
X155777500Y-92265250I0J268750D01*
G01*
X155777500Y-91727750D01*
G75*
G02*
X156046250Y-91459000I268750J0D01*
G01*
G37*
G36*
G01*
X138304705Y-109035000D02*
X139825295Y-109035000D01*
G75*
G02*
X140090000Y-109299705I0J-264705D01*
G01*
X140090000Y-110570295D01*
G75*
G02*
X139825295Y-110835000I-264705J0D01*
G01*
X138304705Y-110835000D01*
G75*
G02*
X138040000Y-110570295I0J264705D01*
G01*
X138040000Y-109299705D01*
G75*
G02*
X138304705Y-109035000I264705J0D01*
G01*
G37*
D14*
X139065000Y-112435000D03*
X139065000Y-114935000D03*
X151638000Y-107395000D03*
X151638000Y-109895000D03*
G36*
G01*
X152398295Y-113295000D02*
X150877705Y-113295000D01*
G75*
G02*
X150613000Y-113030295I0J264705D01*
G01*
X150613000Y-111759705D01*
G75*
G02*
X150877705Y-111495000I264705J0D01*
G01*
X152398295Y-111495000D01*
G75*
G02*
X152663000Y-111759705I0J-264705D01*
G01*
X152663000Y-113030295D01*
G75*
G02*
X152398295Y-113295000I-264705J0D01*
G01*
G37*
G36*
G01*
X141603295Y-96491000D02*
X140082705Y-96491000D01*
G75*
G02*
X139818000Y-96226295I0J264705D01*
G01*
X139818000Y-94955705D01*
G75*
G02*
X140082705Y-94691000I264705J0D01*
G01*
X141603295Y-94691000D01*
G75*
G02*
X141868000Y-94955705I0J-264705D01*
G01*
X141868000Y-96226295D01*
G75*
G02*
X141603295Y-96491000I-264705J0D01*
G01*
G37*
X140843000Y-93091000D03*
X140843000Y-90591000D03*
G36*
G01*
X125024000Y-101521000D02*
X125024000Y-101171000D01*
G75*
G02*
X125199000Y-100996000I175000J0D01*
G01*
X126699000Y-100996000D01*
G75*
G02*
X126874000Y-101171000I0J-175000D01*
G01*
X126874000Y-101521000D01*
G75*
G02*
X126699000Y-101696000I-175000J0D01*
G01*
X125199000Y-101696000D01*
G75*
G02*
X125024000Y-101521000I0J175000D01*
G01*
G37*
G36*
G01*
X125024000Y-102791000D02*
X125024000Y-102441000D01*
G75*
G02*
X125199000Y-102266000I175000J0D01*
G01*
X126699000Y-102266000D01*
G75*
G02*
X126874000Y-102441000I0J-175000D01*
G01*
X126874000Y-102791000D01*
G75*
G02*
X126699000Y-102966000I-175000J0D01*
G01*
X125199000Y-102966000D01*
G75*
G02*
X125024000Y-102791000I0J175000D01*
G01*
G37*
G36*
G01*
X125024000Y-104061000D02*
X125024000Y-103711000D01*
G75*
G02*
X125199000Y-103536000I175000J0D01*
G01*
X126699000Y-103536000D01*
G75*
G02*
X126874000Y-103711000I0J-175000D01*
G01*
X126874000Y-104061000D01*
G75*
G02*
X126699000Y-104236000I-175000J0D01*
G01*
X125199000Y-104236000D01*
G75*
G02*
X125024000Y-104061000I0J175000D01*
G01*
G37*
G36*
G01*
X125024000Y-105331000D02*
X125024000Y-104981000D01*
G75*
G02*
X125199000Y-104806000I175000J0D01*
G01*
X126699000Y-104806000D01*
G75*
G02*
X126874000Y-104981000I0J-175000D01*
G01*
X126874000Y-105331000D01*
G75*
G02*
X126699000Y-105506000I-175000J0D01*
G01*
X125199000Y-105506000D01*
G75*
G02*
X125024000Y-105331000I0J175000D01*
G01*
G37*
G36*
G01*
X130174000Y-105331000D02*
X130174000Y-104981000D01*
G75*
G02*
X130349000Y-104806000I175000J0D01*
G01*
X131849000Y-104806000D01*
G75*
G02*
X132024000Y-104981000I0J-175000D01*
G01*
X132024000Y-105331000D01*
G75*
G02*
X131849000Y-105506000I-175000J0D01*
G01*
X130349000Y-105506000D01*
G75*
G02*
X130174000Y-105331000I0J175000D01*
G01*
G37*
G36*
G01*
X130174000Y-104061000D02*
X130174000Y-103711000D01*
G75*
G02*
X130349000Y-103536000I175000J0D01*
G01*
X131849000Y-103536000D01*
G75*
G02*
X132024000Y-103711000I0J-175000D01*
G01*
X132024000Y-104061000D01*
G75*
G02*
X131849000Y-104236000I-175000J0D01*
G01*
X130349000Y-104236000D01*
G75*
G02*
X130174000Y-104061000I0J175000D01*
G01*
G37*
G36*
G01*
X130174000Y-102791000D02*
X130174000Y-102441000D01*
G75*
G02*
X130349000Y-102266000I175000J0D01*
G01*
X131849000Y-102266000D01*
G75*
G02*
X132024000Y-102441000I0J-175000D01*
G01*
X132024000Y-102791000D01*
G75*
G02*
X131849000Y-102966000I-175000J0D01*
G01*
X130349000Y-102966000D01*
G75*
G02*
X130174000Y-102791000I0J175000D01*
G01*
G37*
G36*
G01*
X130174000Y-101521000D02*
X130174000Y-101171000D01*
G75*
G02*
X130349000Y-100996000I175000J0D01*
G01*
X131849000Y-100996000D01*
G75*
G02*
X132024000Y-101171000I0J-175000D01*
G01*
X132024000Y-101521000D01*
G75*
G02*
X131849000Y-101696000I-175000J0D01*
G01*
X130349000Y-101696000D01*
G75*
G02*
X130174000Y-101521000I0J175000D01*
G01*
G37*
M02*
