G04 #@! TF.GenerationSoftware,KiCad,Pcbnew,5.1.9-73d0e3b20d~88~ubuntu20.04.1*
G04 #@! TF.CreationDate,2021-02-25T16:20:24+01:00*
G04 #@! TF.ProjectId,kick,6b69636b-2e6b-4696-9361-645f70636258,rev?*
G04 #@! TF.SameCoordinates,Original*
G04 #@! TF.FileFunction,Legend,Top*
G04 #@! TF.FilePolarity,Positive*
%FSLAX46Y46*%
G04 Gerber Fmt 4.6, Leading zero omitted, Abs format (unit mm)*
G04 Created by KiCad (PCBNEW 5.1.9-73d0e3b20d~88~ubuntu20.04.1) date 2021-02-25 16:20:24*
%MOMM*%
%LPD*%
G01*
G04 APERTURE LIST*
%ADD10C,0.080000*%
%ADD11C,0.010000*%
%ADD12C,0.120000*%
%ADD13C,0.150000*%
G04 APERTURE END LIST*
D10*
X159083809Y-117897285D02*
X159179047Y-118163952D01*
X159274285Y-117897285D01*
X159502857Y-117763952D02*
X159540952Y-117763952D01*
X159579047Y-117783000D01*
X159598095Y-117802047D01*
X159617142Y-117840142D01*
X159636190Y-117916333D01*
X159636190Y-118011571D01*
X159617142Y-118087761D01*
X159598095Y-118125857D01*
X159579047Y-118144904D01*
X159540952Y-118163952D01*
X159502857Y-118163952D01*
X159464761Y-118144904D01*
X159445714Y-118125857D01*
X159426666Y-118087761D01*
X159407619Y-118011571D01*
X159407619Y-117916333D01*
X159426666Y-117840142D01*
X159445714Y-117802047D01*
X159464761Y-117783000D01*
X159502857Y-117763952D01*
X159807619Y-118125857D02*
X159826666Y-118144904D01*
X159807619Y-118163952D01*
X159788571Y-118144904D01*
X159807619Y-118125857D01*
X159807619Y-118163952D01*
X160207619Y-118163952D02*
X159979047Y-118163952D01*
X160093333Y-118163952D02*
X160093333Y-117763952D01*
X160055238Y-117821095D01*
X160017142Y-117859190D01*
X159979047Y-117878238D01*
X160379047Y-118125857D02*
X160398095Y-118144904D01*
X160379047Y-118163952D01*
X160360000Y-118144904D01*
X160379047Y-118125857D01*
X160379047Y-118163952D01*
X160645714Y-117763952D02*
X160683809Y-117763952D01*
X160721904Y-117783000D01*
X160740952Y-117802047D01*
X160760000Y-117840142D01*
X160779047Y-117916333D01*
X160779047Y-118011571D01*
X160760000Y-118087761D01*
X160740952Y-118125857D01*
X160721904Y-118144904D01*
X160683809Y-118163952D01*
X160645714Y-118163952D01*
X160607619Y-118144904D01*
X160588571Y-118125857D01*
X160569523Y-118087761D01*
X160550476Y-118011571D01*
X160550476Y-117916333D01*
X160569523Y-117840142D01*
X160588571Y-117802047D01*
X160607619Y-117783000D01*
X160645714Y-117763952D01*
X161369523Y-118297285D02*
X161274285Y-118297285D01*
X161274285Y-117725857D01*
X161369523Y-117725857D01*
X161655238Y-117954428D02*
X161521904Y-117954428D01*
X161521904Y-118163952D02*
X161521904Y-117763952D01*
X161712380Y-117763952D01*
X162017142Y-118144904D02*
X161979047Y-118163952D01*
X161902857Y-118163952D01*
X161864761Y-118144904D01*
X161845714Y-118106809D01*
X161845714Y-117954428D01*
X161864761Y-117916333D01*
X161902857Y-117897285D01*
X161979047Y-117897285D01*
X162017142Y-117916333D01*
X162036190Y-117954428D01*
X162036190Y-117992523D01*
X161845714Y-118030619D01*
X162207619Y-118163952D02*
X162207619Y-117763952D01*
X162207619Y-117916333D02*
X162245714Y-117897285D01*
X162321904Y-117897285D01*
X162360000Y-117916333D01*
X162379047Y-117935380D01*
X162398095Y-117973476D01*
X162398095Y-118087761D01*
X162379047Y-118125857D01*
X162360000Y-118144904D01*
X162321904Y-118163952D01*
X162245714Y-118163952D01*
X162207619Y-118144904D01*
X162569523Y-118163952D02*
X162569523Y-117897285D01*
X162569523Y-117973476D02*
X162588571Y-117935380D01*
X162607619Y-117916333D01*
X162645714Y-117897285D01*
X162683809Y-117897285D01*
X162988571Y-117897285D02*
X162988571Y-118163952D01*
X162817142Y-117897285D02*
X162817142Y-118106809D01*
X162836190Y-118144904D01*
X162874285Y-118163952D01*
X162931428Y-118163952D01*
X162969523Y-118144904D01*
X162988571Y-118125857D01*
X163350476Y-118163952D02*
X163350476Y-117954428D01*
X163331428Y-117916333D01*
X163293333Y-117897285D01*
X163217142Y-117897285D01*
X163179047Y-117916333D01*
X163350476Y-118144904D02*
X163312380Y-118163952D01*
X163217142Y-118163952D01*
X163179047Y-118144904D01*
X163160000Y-118106809D01*
X163160000Y-118068714D01*
X163179047Y-118030619D01*
X163217142Y-118011571D01*
X163312380Y-118011571D01*
X163350476Y-117992523D01*
X163540952Y-118163952D02*
X163540952Y-117897285D01*
X163540952Y-117973476D02*
X163560000Y-117935380D01*
X163579047Y-117916333D01*
X163617142Y-117897285D01*
X163655238Y-117897285D01*
X163750476Y-117897285D02*
X163845714Y-118163952D01*
X163940952Y-117897285D02*
X163845714Y-118163952D01*
X163807619Y-118259190D01*
X163788571Y-118278238D01*
X163750476Y-118297285D01*
X164379047Y-117802047D02*
X164398095Y-117783000D01*
X164436190Y-117763952D01*
X164531428Y-117763952D01*
X164569523Y-117783000D01*
X164588571Y-117802047D01*
X164607619Y-117840142D01*
X164607619Y-117878238D01*
X164588571Y-117935380D01*
X164360000Y-118163952D01*
X164607619Y-118163952D01*
X164855238Y-117763952D02*
X164893333Y-117763952D01*
X164931428Y-117783000D01*
X164950476Y-117802047D01*
X164969523Y-117840142D01*
X164988571Y-117916333D01*
X164988571Y-118011571D01*
X164969523Y-118087761D01*
X164950476Y-118125857D01*
X164931428Y-118144904D01*
X164893333Y-118163952D01*
X164855238Y-118163952D01*
X164817142Y-118144904D01*
X164798095Y-118125857D01*
X164779047Y-118087761D01*
X164760000Y-118011571D01*
X164760000Y-117916333D01*
X164779047Y-117840142D01*
X164798095Y-117802047D01*
X164817142Y-117783000D01*
X164855238Y-117763952D01*
X165140952Y-117802047D02*
X165160000Y-117783000D01*
X165198095Y-117763952D01*
X165293333Y-117763952D01*
X165331428Y-117783000D01*
X165350476Y-117802047D01*
X165369523Y-117840142D01*
X165369523Y-117878238D01*
X165350476Y-117935380D01*
X165121904Y-118163952D01*
X165369523Y-118163952D01*
X165750476Y-118163952D02*
X165521904Y-118163952D01*
X165636190Y-118163952D02*
X165636190Y-117763952D01*
X165598095Y-117821095D01*
X165560000Y-117859190D01*
X165521904Y-117878238D01*
X165883809Y-118297285D02*
X165979047Y-118297285D01*
X165979047Y-117725857D01*
X165883809Y-117725857D01*
D11*
G36*
X154918870Y-116566212D02*
G01*
X155069752Y-116571072D01*
X155174411Y-116578554D01*
X155237377Y-116589168D01*
X155263182Y-116603424D01*
X155263886Y-116605050D01*
X155256262Y-116619078D01*
X155218404Y-116628583D01*
X155144287Y-116634209D01*
X155027885Y-116636603D01*
X154967516Y-116636800D01*
X154838331Y-116637292D01*
X154751553Y-116639694D01*
X154698792Y-116645395D01*
X154671659Y-116655783D01*
X154661764Y-116672248D01*
X154660600Y-116687600D01*
X154664617Y-116712300D01*
X154683293Y-116727388D01*
X154726558Y-116735199D01*
X154804348Y-116738073D01*
X154876500Y-116738400D01*
X154984438Y-116740026D01*
X155050500Y-116745947D01*
X155083537Y-116757724D01*
X155092400Y-116776500D01*
X155083182Y-116795547D01*
X155049629Y-116807206D01*
X154982891Y-116813035D01*
X154876500Y-116814600D01*
X154771523Y-116815545D01*
X154707400Y-116819939D01*
X154674200Y-116830119D01*
X154661988Y-116848423D01*
X154660600Y-116865400D01*
X154663573Y-116886782D01*
X154678087Y-116901145D01*
X154712530Y-116909878D01*
X154775294Y-116914369D01*
X154874768Y-116916007D01*
X154967516Y-116916200D01*
X155102706Y-116917470D01*
X155193175Y-116921713D01*
X155244951Y-116929574D01*
X155264060Y-116941698D01*
X155263886Y-116947950D01*
X155241506Y-116962593D01*
X155182414Y-116973544D01*
X155082076Y-116981313D01*
X154935962Y-116986409D01*
X154918870Y-116986787D01*
X154584400Y-116993874D01*
X154584400Y-116559125D01*
X154918870Y-116566212D01*
G37*
X154918870Y-116566212D02*
X155069752Y-116571072D01*
X155174411Y-116578554D01*
X155237377Y-116589168D01*
X155263182Y-116603424D01*
X155263886Y-116605050D01*
X155256262Y-116619078D01*
X155218404Y-116628583D01*
X155144287Y-116634209D01*
X155027885Y-116636603D01*
X154967516Y-116636800D01*
X154838331Y-116637292D01*
X154751553Y-116639694D01*
X154698792Y-116645395D01*
X154671659Y-116655783D01*
X154661764Y-116672248D01*
X154660600Y-116687600D01*
X154664617Y-116712300D01*
X154683293Y-116727388D01*
X154726558Y-116735199D01*
X154804348Y-116738073D01*
X154876500Y-116738400D01*
X154984438Y-116740026D01*
X155050500Y-116745947D01*
X155083537Y-116757724D01*
X155092400Y-116776500D01*
X155083182Y-116795547D01*
X155049629Y-116807206D01*
X154982891Y-116813035D01*
X154876500Y-116814600D01*
X154771523Y-116815545D01*
X154707400Y-116819939D01*
X154674200Y-116830119D01*
X154661988Y-116848423D01*
X154660600Y-116865400D01*
X154663573Y-116886782D01*
X154678087Y-116901145D01*
X154712530Y-116909878D01*
X154775294Y-116914369D01*
X154874768Y-116916007D01*
X154967516Y-116916200D01*
X155102706Y-116917470D01*
X155193175Y-116921713D01*
X155244951Y-116929574D01*
X155264060Y-116941698D01*
X155263886Y-116947950D01*
X155241506Y-116962593D01*
X155182414Y-116973544D01*
X155082076Y-116981313D01*
X154935962Y-116986409D01*
X154918870Y-116986787D01*
X154584400Y-116993874D01*
X154584400Y-116559125D01*
X154918870Y-116566212D01*
G36*
X154438347Y-116569817D02*
G01*
X154450006Y-116603370D01*
X154455835Y-116670108D01*
X154457400Y-116776500D01*
X154456404Y-116881598D01*
X154451906Y-116945806D01*
X154441641Y-116979022D01*
X154423344Y-116991139D01*
X154407972Y-116992400D01*
X154368074Y-116978278D01*
X154297911Y-116940006D01*
X154207998Y-116883727D01*
X154125284Y-116827300D01*
X154030052Y-116761211D01*
X153949432Y-116707719D01*
X153892676Y-116672806D01*
X153869912Y-116662200D01*
X153858651Y-116685367D01*
X153850687Y-116745982D01*
X153847800Y-116827300D01*
X153842779Y-116920137D01*
X153829390Y-116978308D01*
X153810137Y-116996811D01*
X153787530Y-116970639D01*
X153782254Y-116958129D01*
X153776656Y-116916605D01*
X153774676Y-116840873D01*
X153776702Y-116748579D01*
X153784165Y-116654610D01*
X153800683Y-116594811D01*
X153831910Y-116568786D01*
X153883496Y-116576143D01*
X153961095Y-116616487D01*
X154070358Y-116689424D01*
X154120014Y-116724644D01*
X154214019Y-116791026D01*
X154292471Y-116844796D01*
X154346487Y-116879974D01*
X154366740Y-116890800D01*
X154374105Y-116867627D01*
X154379312Y-116806998D01*
X154381200Y-116725700D01*
X154383743Y-116633092D01*
X154392832Y-116581621D01*
X154410653Y-116561808D01*
X154419300Y-116560600D01*
X154438347Y-116569817D01*
G37*
X154438347Y-116569817D02*
X154450006Y-116603370D01*
X154455835Y-116670108D01*
X154457400Y-116776500D01*
X154456404Y-116881598D01*
X154451906Y-116945806D01*
X154441641Y-116979022D01*
X154423344Y-116991139D01*
X154407972Y-116992400D01*
X154368074Y-116978278D01*
X154297911Y-116940006D01*
X154207998Y-116883727D01*
X154125284Y-116827300D01*
X154030052Y-116761211D01*
X153949432Y-116707719D01*
X153892676Y-116672806D01*
X153869912Y-116662200D01*
X153858651Y-116685367D01*
X153850687Y-116745982D01*
X153847800Y-116827300D01*
X153842779Y-116920137D01*
X153829390Y-116978308D01*
X153810137Y-116996811D01*
X153787530Y-116970639D01*
X153782254Y-116958129D01*
X153776656Y-116916605D01*
X153774676Y-116840873D01*
X153776702Y-116748579D01*
X153784165Y-116654610D01*
X153800683Y-116594811D01*
X153831910Y-116568786D01*
X153883496Y-116576143D01*
X153961095Y-116616487D01*
X154070358Y-116689424D01*
X154120014Y-116724644D01*
X154214019Y-116791026D01*
X154292471Y-116844796D01*
X154346487Y-116879974D01*
X154366740Y-116890800D01*
X154374105Y-116867627D01*
X154379312Y-116806998D01*
X154381200Y-116725700D01*
X154383743Y-116633092D01*
X154392832Y-116581621D01*
X154410653Y-116561808D01*
X154419300Y-116560600D01*
X154438347Y-116569817D01*
G36*
X153308763Y-116564735D02*
G01*
X153347683Y-116585366D01*
X153404042Y-116632403D01*
X153470266Y-116697244D01*
X153538780Y-116771283D01*
X153602011Y-116845916D01*
X153652383Y-116912540D01*
X153682323Y-116962548D01*
X153684255Y-116987339D01*
X153681670Y-116988348D01*
X153634694Y-116978406D01*
X153583546Y-116943898D01*
X153549176Y-116917935D01*
X153505362Y-116901991D01*
X153439686Y-116893761D01*
X153339732Y-116890938D01*
X153297649Y-116890800D01*
X153184408Y-116892306D01*
X153110130Y-116898276D01*
X153063031Y-116910884D01*
X153031324Y-116932303D01*
X153022300Y-116941600D01*
X152970345Y-116980216D01*
X152928023Y-116992400D01*
X152895379Y-116986823D01*
X152902415Y-116961212D01*
X152912909Y-116945811D01*
X152944482Y-116906482D01*
X153000425Y-116841283D01*
X153039644Y-116796939D01*
X153162000Y-116796939D01*
X153184974Y-116806612D01*
X153244237Y-116813027D01*
X153301700Y-116814600D01*
X153378213Y-116811204D01*
X153428956Y-116802446D01*
X153441400Y-116793952D01*
X153424638Y-116764635D01*
X153383063Y-116717760D01*
X153370051Y-116704948D01*
X153298703Y-116636592D01*
X153230351Y-116707935D01*
X153186519Y-116757823D01*
X153163176Y-116792451D01*
X153162000Y-116796939D01*
X153039644Y-116796939D01*
X153070755Y-116761763D01*
X153101435Y-116727697D01*
X153188047Y-116637238D01*
X153251130Y-116584272D01*
X153296096Y-116564542D01*
X153308763Y-116564735D01*
G37*
X153308763Y-116564735D02*
X153347683Y-116585366D01*
X153404042Y-116632403D01*
X153470266Y-116697244D01*
X153538780Y-116771283D01*
X153602011Y-116845916D01*
X153652383Y-116912540D01*
X153682323Y-116962548D01*
X153684255Y-116987339D01*
X153681670Y-116988348D01*
X153634694Y-116978406D01*
X153583546Y-116943898D01*
X153549176Y-116917935D01*
X153505362Y-116901991D01*
X153439686Y-116893761D01*
X153339732Y-116890938D01*
X153297649Y-116890800D01*
X153184408Y-116892306D01*
X153110130Y-116898276D01*
X153063031Y-116910884D01*
X153031324Y-116932303D01*
X153022300Y-116941600D01*
X152970345Y-116980216D01*
X152928023Y-116992400D01*
X152895379Y-116986823D01*
X152902415Y-116961212D01*
X152912909Y-116945811D01*
X152944482Y-116906482D01*
X153000425Y-116841283D01*
X153039644Y-116796939D01*
X153162000Y-116796939D01*
X153184974Y-116806612D01*
X153244237Y-116813027D01*
X153301700Y-116814600D01*
X153378213Y-116811204D01*
X153428956Y-116802446D01*
X153441400Y-116793952D01*
X153424638Y-116764635D01*
X153383063Y-116717760D01*
X153370051Y-116704948D01*
X153298703Y-116636592D01*
X153230351Y-116707935D01*
X153186519Y-116757823D01*
X153163176Y-116792451D01*
X153162000Y-116796939D01*
X153039644Y-116796939D01*
X153070755Y-116761763D01*
X153101435Y-116727697D01*
X153188047Y-116637238D01*
X153251130Y-116584272D01*
X153296096Y-116564542D01*
X153308763Y-116564735D01*
G36*
X152176356Y-116571689D02*
G01*
X152224374Y-116609837D01*
X152285707Y-116682360D01*
X152313420Y-116719350D01*
X152370718Y-116795291D01*
X152417159Y-116852938D01*
X152444276Y-116881872D01*
X152446717Y-116883323D01*
X152468489Y-116866810D01*
X152511574Y-116818302D01*
X152567824Y-116747185D01*
X152585905Y-116723037D01*
X152654161Y-116635801D01*
X152704227Y-116585628D01*
X152743678Y-116565801D01*
X152763705Y-116565413D01*
X152791406Y-116573110D01*
X152807930Y-116593637D01*
X152816136Y-116637777D01*
X152818881Y-116716311D01*
X152819100Y-116774383D01*
X152815089Y-116895051D01*
X152803057Y-116965576D01*
X152788549Y-116985650D01*
X152769944Y-116972567D01*
X152757401Y-116916166D01*
X152750449Y-116822666D01*
X152742900Y-116649500D01*
X152615900Y-116819906D01*
X152553152Y-116898445D01*
X152497459Y-116958126D01*
X152458294Y-116989109D01*
X152450800Y-116991356D01*
X152419054Y-116972586D01*
X152367836Y-116921703D01*
X152306536Y-116848401D01*
X152285700Y-116820949D01*
X152158700Y-116649500D01*
X152151189Y-116820950D01*
X152144057Y-116917619D01*
X152131806Y-116971817D01*
X152112300Y-116991783D01*
X152106739Y-116992400D01*
X152088154Y-116982271D01*
X152076782Y-116946181D01*
X152071157Y-116875569D01*
X152069800Y-116776500D01*
X152070381Y-116671951D01*
X152074100Y-116608144D01*
X152083917Y-116575022D01*
X152102793Y-116562526D01*
X152133352Y-116560600D01*
X152176356Y-116571689D01*
G37*
X152176356Y-116571689D02*
X152224374Y-116609837D01*
X152285707Y-116682360D01*
X152313420Y-116719350D01*
X152370718Y-116795291D01*
X152417159Y-116852938D01*
X152444276Y-116881872D01*
X152446717Y-116883323D01*
X152468489Y-116866810D01*
X152511574Y-116818302D01*
X152567824Y-116747185D01*
X152585905Y-116723037D01*
X152654161Y-116635801D01*
X152704227Y-116585628D01*
X152743678Y-116565801D01*
X152763705Y-116565413D01*
X152791406Y-116573110D01*
X152807930Y-116593637D01*
X152816136Y-116637777D01*
X152818881Y-116716311D01*
X152819100Y-116774383D01*
X152815089Y-116895051D01*
X152803057Y-116965576D01*
X152788549Y-116985650D01*
X152769944Y-116972567D01*
X152757401Y-116916166D01*
X152750449Y-116822666D01*
X152742900Y-116649500D01*
X152615900Y-116819906D01*
X152553152Y-116898445D01*
X152497459Y-116958126D01*
X152458294Y-116989109D01*
X152450800Y-116991356D01*
X152419054Y-116972586D01*
X152367836Y-116921703D01*
X152306536Y-116848401D01*
X152285700Y-116820949D01*
X152158700Y-116649500D01*
X152151189Y-116820950D01*
X152144057Y-116917619D01*
X152131806Y-116971817D01*
X152112300Y-116991783D01*
X152106739Y-116992400D01*
X152088154Y-116982271D01*
X152076782Y-116946181D01*
X152071157Y-116875569D01*
X152069800Y-116776500D01*
X152070381Y-116671951D01*
X152074100Y-116608144D01*
X152083917Y-116575022D01*
X152102793Y-116562526D01*
X152133352Y-116560600D01*
X152176356Y-116571689D01*
G36*
X151865650Y-116564944D02*
G01*
X151925353Y-116569537D01*
X151956898Y-116578538D01*
X151967812Y-116592640D01*
X151968200Y-116597156D01*
X151959815Y-116613976D01*
X151929531Y-116625829D01*
X151869652Y-116633880D01*
X151772482Y-116639294D01*
X151669750Y-116642343D01*
X151539373Y-116646534D01*
X151452085Y-116652475D01*
X151400180Y-116661336D01*
X151375949Y-116674285D01*
X151371300Y-116687600D01*
X151381318Y-116706876D01*
X151417033Y-116719750D01*
X151486930Y-116727957D01*
X151593550Y-116733038D01*
X151704756Y-116738527D01*
X151773379Y-116747156D01*
X151807613Y-116760564D01*
X151815800Y-116777488D01*
X151806187Y-116795622D01*
X151771725Y-116806945D01*
X151703978Y-116812816D01*
X151594509Y-116814593D01*
X151585337Y-116814600D01*
X151476094Y-116815565D01*
X151408571Y-116819674D01*
X151373703Y-116828739D01*
X151362426Y-116844577D01*
X151363394Y-116859050D01*
X151372774Y-116878354D01*
X151397869Y-116891689D01*
X151447203Y-116900491D01*
X151529301Y-116906193D01*
X151652687Y-116910230D01*
X151670056Y-116910656D01*
X151800872Y-116914914D01*
X151888458Y-116921001D01*
X151940377Y-116930046D01*
X151964195Y-116943177D01*
X151968200Y-116955106D01*
X151944760Y-116971114D01*
X151881991Y-116983225D01*
X151791217Y-116991388D01*
X151683763Y-116995552D01*
X151570953Y-116995666D01*
X151464113Y-116991680D01*
X151374566Y-116983543D01*
X151313638Y-116971204D01*
X151293054Y-116958129D01*
X151287456Y-116916605D01*
X151285476Y-116840873D01*
X151287502Y-116748579D01*
X151295100Y-116573300D01*
X151631650Y-116566212D01*
X151770258Y-116564066D01*
X151865650Y-116564944D01*
G37*
X151865650Y-116564944D02*
X151925353Y-116569537D01*
X151956898Y-116578538D01*
X151967812Y-116592640D01*
X151968200Y-116597156D01*
X151959815Y-116613976D01*
X151929531Y-116625829D01*
X151869652Y-116633880D01*
X151772482Y-116639294D01*
X151669750Y-116642343D01*
X151539373Y-116646534D01*
X151452085Y-116652475D01*
X151400180Y-116661336D01*
X151375949Y-116674285D01*
X151371300Y-116687600D01*
X151381318Y-116706876D01*
X151417033Y-116719750D01*
X151486930Y-116727957D01*
X151593550Y-116733038D01*
X151704756Y-116738527D01*
X151773379Y-116747156D01*
X151807613Y-116760564D01*
X151815800Y-116777488D01*
X151806187Y-116795622D01*
X151771725Y-116806945D01*
X151703978Y-116812816D01*
X151594509Y-116814593D01*
X151585337Y-116814600D01*
X151476094Y-116815565D01*
X151408571Y-116819674D01*
X151373703Y-116828739D01*
X151362426Y-116844577D01*
X151363394Y-116859050D01*
X151372774Y-116878354D01*
X151397869Y-116891689D01*
X151447203Y-116900491D01*
X151529301Y-116906193D01*
X151652687Y-116910230D01*
X151670056Y-116910656D01*
X151800872Y-116914914D01*
X151888458Y-116921001D01*
X151940377Y-116930046D01*
X151964195Y-116943177D01*
X151968200Y-116955106D01*
X151944760Y-116971114D01*
X151881991Y-116983225D01*
X151791217Y-116991388D01*
X151683763Y-116995552D01*
X151570953Y-116995666D01*
X151464113Y-116991680D01*
X151374566Y-116983543D01*
X151313638Y-116971204D01*
X151293054Y-116958129D01*
X151287456Y-116916605D01*
X151285476Y-116840873D01*
X151287502Y-116748579D01*
X151295100Y-116573300D01*
X151631650Y-116566212D01*
X151770258Y-116564066D01*
X151865650Y-116564944D01*
G36*
X150998282Y-116561715D02*
G01*
X151082015Y-116565751D01*
X151130714Y-116573739D01*
X151152245Y-116586713D01*
X151155400Y-116597868D01*
X151146224Y-116614762D01*
X151113583Y-116626622D01*
X151049805Y-116634641D01*
X150947217Y-116640013D01*
X150869650Y-116642318D01*
X150742418Y-116646655D01*
X150658149Y-116652887D01*
X150609011Y-116662255D01*
X150587170Y-116676001D01*
X150583900Y-116687600D01*
X150593218Y-116705376D01*
X150626375Y-116718279D01*
X150691177Y-116727756D01*
X150795426Y-116735255D01*
X150857955Y-116738400D01*
X150990439Y-116746475D01*
X151079501Y-116757019D01*
X151132503Y-116771287D01*
X151156016Y-116789200D01*
X151178689Y-116852185D01*
X151156977Y-116910780D01*
X151130000Y-116941600D01*
X151101636Y-116964293D01*
X151063879Y-116979098D01*
X151006191Y-116987637D01*
X150918036Y-116991529D01*
X150799800Y-116992400D01*
X150674272Y-116991258D01*
X150591596Y-116987129D01*
X150543858Y-116978958D01*
X150523147Y-116965689D01*
X150520400Y-116955131D01*
X150529575Y-116938237D01*
X150562216Y-116926377D01*
X150625994Y-116918358D01*
X150728582Y-116912986D01*
X150806150Y-116910681D01*
X150933381Y-116906344D01*
X151017650Y-116900112D01*
X151066788Y-116890744D01*
X151088629Y-116876998D01*
X151091900Y-116865400D01*
X151082581Y-116847623D01*
X151049424Y-116834720D01*
X150984622Y-116825243D01*
X150880373Y-116817744D01*
X150817844Y-116814600D01*
X150683744Y-116806391D01*
X150592478Y-116794296D01*
X150536083Y-116775119D01*
X150506599Y-116745664D01*
X150496063Y-116702735D01*
X150495388Y-116685186D01*
X150505437Y-116635209D01*
X150540812Y-116599808D01*
X150607687Y-116576937D01*
X150712235Y-116564553D01*
X150860631Y-116560612D01*
X150871650Y-116560600D01*
X150998282Y-116561715D01*
G37*
X150998282Y-116561715D02*
X151082015Y-116565751D01*
X151130714Y-116573739D01*
X151152245Y-116586713D01*
X151155400Y-116597868D01*
X151146224Y-116614762D01*
X151113583Y-116626622D01*
X151049805Y-116634641D01*
X150947217Y-116640013D01*
X150869650Y-116642318D01*
X150742418Y-116646655D01*
X150658149Y-116652887D01*
X150609011Y-116662255D01*
X150587170Y-116676001D01*
X150583900Y-116687600D01*
X150593218Y-116705376D01*
X150626375Y-116718279D01*
X150691177Y-116727756D01*
X150795426Y-116735255D01*
X150857955Y-116738400D01*
X150990439Y-116746475D01*
X151079501Y-116757019D01*
X151132503Y-116771287D01*
X151156016Y-116789200D01*
X151178689Y-116852185D01*
X151156977Y-116910780D01*
X151130000Y-116941600D01*
X151101636Y-116964293D01*
X151063879Y-116979098D01*
X151006191Y-116987637D01*
X150918036Y-116991529D01*
X150799800Y-116992400D01*
X150674272Y-116991258D01*
X150591596Y-116987129D01*
X150543858Y-116978958D01*
X150523147Y-116965689D01*
X150520400Y-116955131D01*
X150529575Y-116938237D01*
X150562216Y-116926377D01*
X150625994Y-116918358D01*
X150728582Y-116912986D01*
X150806150Y-116910681D01*
X150933381Y-116906344D01*
X151017650Y-116900112D01*
X151066788Y-116890744D01*
X151088629Y-116876998D01*
X151091900Y-116865400D01*
X151082581Y-116847623D01*
X151049424Y-116834720D01*
X150984622Y-116825243D01*
X150880373Y-116817744D01*
X150817844Y-116814600D01*
X150683744Y-116806391D01*
X150592478Y-116794296D01*
X150536083Y-116775119D01*
X150506599Y-116745664D01*
X150496063Y-116702735D01*
X150495388Y-116685186D01*
X150505437Y-116635209D01*
X150540812Y-116599808D01*
X150607687Y-116576937D01*
X150712235Y-116564553D01*
X150860631Y-116560612D01*
X150871650Y-116560600D01*
X150998282Y-116561715D01*
G36*
X150290231Y-116564833D02*
G01*
X150349817Y-116569314D01*
X150381477Y-116578199D01*
X150392819Y-116592206D01*
X150393400Y-116597962D01*
X150386056Y-116614969D01*
X150358687Y-116626290D01*
X150303285Y-116632988D01*
X150211843Y-116636130D01*
X150101300Y-116636800D01*
X149975796Y-116637338D01*
X149892494Y-116639951D01*
X149842801Y-116646132D01*
X149818121Y-116657377D01*
X149809860Y-116675180D01*
X149809200Y-116687600D01*
X149813217Y-116712300D01*
X149831893Y-116727388D01*
X149875158Y-116735199D01*
X149952948Y-116738073D01*
X150025100Y-116738400D01*
X150133038Y-116740026D01*
X150199100Y-116745947D01*
X150232137Y-116757724D01*
X150241000Y-116776500D01*
X150231782Y-116795547D01*
X150198229Y-116807206D01*
X150131491Y-116813035D01*
X150025100Y-116814600D01*
X149920123Y-116815545D01*
X149856000Y-116819939D01*
X149822800Y-116830119D01*
X149810588Y-116848423D01*
X149809200Y-116865400D01*
X149812297Y-116887226D01*
X149827321Y-116901713D01*
X149862864Y-116910356D01*
X149927521Y-116914648D01*
X150029887Y-116916085D01*
X150101300Y-116916200D01*
X150229569Y-116917217D01*
X150314975Y-116920959D01*
X150365426Y-116928455D01*
X150388831Y-116940738D01*
X150393400Y-116954300D01*
X150386049Y-116970151D01*
X150358992Y-116981021D01*
X150304723Y-116987774D01*
X150215736Y-116991274D01*
X150084523Y-116992385D01*
X150062402Y-116992400D01*
X149918740Y-116991135D01*
X149819107Y-116986896D01*
X149756786Y-116979013D01*
X149725059Y-116966817D01*
X149718254Y-116958129D01*
X149712656Y-116916605D01*
X149710676Y-116840873D01*
X149712702Y-116748579D01*
X149720300Y-116573300D01*
X150056850Y-116566212D01*
X150195111Y-116564038D01*
X150290231Y-116564833D01*
G37*
X150290231Y-116564833D02*
X150349817Y-116569314D01*
X150381477Y-116578199D01*
X150392819Y-116592206D01*
X150393400Y-116597962D01*
X150386056Y-116614969D01*
X150358687Y-116626290D01*
X150303285Y-116632988D01*
X150211843Y-116636130D01*
X150101300Y-116636800D01*
X149975796Y-116637338D01*
X149892494Y-116639951D01*
X149842801Y-116646132D01*
X149818121Y-116657377D01*
X149809860Y-116675180D01*
X149809200Y-116687600D01*
X149813217Y-116712300D01*
X149831893Y-116727388D01*
X149875158Y-116735199D01*
X149952948Y-116738073D01*
X150025100Y-116738400D01*
X150133038Y-116740026D01*
X150199100Y-116745947D01*
X150232137Y-116757724D01*
X150241000Y-116776500D01*
X150231782Y-116795547D01*
X150198229Y-116807206D01*
X150131491Y-116813035D01*
X150025100Y-116814600D01*
X149920123Y-116815545D01*
X149856000Y-116819939D01*
X149822800Y-116830119D01*
X149810588Y-116848423D01*
X149809200Y-116865400D01*
X149812297Y-116887226D01*
X149827321Y-116901713D01*
X149862864Y-116910356D01*
X149927521Y-116914648D01*
X150029887Y-116916085D01*
X150101300Y-116916200D01*
X150229569Y-116917217D01*
X150314975Y-116920959D01*
X150365426Y-116928455D01*
X150388831Y-116940738D01*
X150393400Y-116954300D01*
X150386049Y-116970151D01*
X150358992Y-116981021D01*
X150304723Y-116987774D01*
X150215736Y-116991274D01*
X150084523Y-116992385D01*
X150062402Y-116992400D01*
X149918740Y-116991135D01*
X149819107Y-116986896D01*
X149756786Y-116979013D01*
X149725059Y-116966817D01*
X149718254Y-116958129D01*
X149712656Y-116916605D01*
X149710676Y-116840873D01*
X149712702Y-116748579D01*
X149720300Y-116573300D01*
X150056850Y-116566212D01*
X150195111Y-116564038D01*
X150290231Y-116564833D01*
G36*
X149291327Y-116565153D02*
G01*
X149296130Y-116584767D01*
X149270517Y-116628375D01*
X149237700Y-116672642D01*
X149191092Y-116740242D01*
X149178221Y-116786165D01*
X149198206Y-116825910D01*
X149227344Y-116854821D01*
X149250799Y-116875434D01*
X149270888Y-116884483D01*
X149294104Y-116876913D01*
X149326944Y-116847669D01*
X149375902Y-116791695D01*
X149447473Y-116703937D01*
X149491800Y-116648999D01*
X149556507Y-116584065D01*
X149608904Y-116563163D01*
X149614752Y-116563884D01*
X149630658Y-116574404D01*
X149625823Y-116600086D01*
X149596648Y-116647290D01*
X149539533Y-116722380D01*
X149490856Y-116782850D01*
X149410561Y-116876281D01*
X149341830Y-116946287D01*
X149291780Y-116985979D01*
X149274384Y-116992400D01*
X149230709Y-116973033D01*
X149181182Y-116925182D01*
X149171526Y-116912445D01*
X149114594Y-116832491D01*
X149043155Y-116912445D01*
X148989965Y-116962510D01*
X148943957Y-116990359D01*
X148933582Y-116992400D01*
X148901995Y-116973808D01*
X148847989Y-116923790D01*
X148780383Y-116850983D01*
X148736374Y-116799243D01*
X148654886Y-116699464D01*
X148602772Y-116632170D01*
X148576665Y-116591004D01*
X148573202Y-116569606D01*
X148589018Y-116561617D01*
X148610092Y-116560600D01*
X148654052Y-116582309D01*
X148718675Y-116645088D01*
X148794988Y-116738400D01*
X148855879Y-116817662D01*
X148903993Y-116878726D01*
X148932043Y-116912415D01*
X148936149Y-116916200D01*
X148953198Y-116897817D01*
X148987365Y-116852615D01*
X148994270Y-116842989D01*
X149046401Y-116769779D01*
X148968204Y-116671539D01*
X148923852Y-116612635D01*
X148909987Y-116581349D01*
X148923453Y-116567242D01*
X148935702Y-116564086D01*
X148984156Y-116576577D01*
X149039729Y-116622758D01*
X149042989Y-116626478D01*
X149104581Y-116698084D01*
X149159395Y-116629342D01*
X149208560Y-116582441D01*
X149254477Y-116560772D01*
X149257704Y-116560600D01*
X149291327Y-116565153D01*
G37*
X149291327Y-116565153D02*
X149296130Y-116584767D01*
X149270517Y-116628375D01*
X149237700Y-116672642D01*
X149191092Y-116740242D01*
X149178221Y-116786165D01*
X149198206Y-116825910D01*
X149227344Y-116854821D01*
X149250799Y-116875434D01*
X149270888Y-116884483D01*
X149294104Y-116876913D01*
X149326944Y-116847669D01*
X149375902Y-116791695D01*
X149447473Y-116703937D01*
X149491800Y-116648999D01*
X149556507Y-116584065D01*
X149608904Y-116563163D01*
X149614752Y-116563884D01*
X149630658Y-116574404D01*
X149625823Y-116600086D01*
X149596648Y-116647290D01*
X149539533Y-116722380D01*
X149490856Y-116782850D01*
X149410561Y-116876281D01*
X149341830Y-116946287D01*
X149291780Y-116985979D01*
X149274384Y-116992400D01*
X149230709Y-116973033D01*
X149181182Y-116925182D01*
X149171526Y-116912445D01*
X149114594Y-116832491D01*
X149043155Y-116912445D01*
X148989965Y-116962510D01*
X148943957Y-116990359D01*
X148933582Y-116992400D01*
X148901995Y-116973808D01*
X148847989Y-116923790D01*
X148780383Y-116850983D01*
X148736374Y-116799243D01*
X148654886Y-116699464D01*
X148602772Y-116632170D01*
X148576665Y-116591004D01*
X148573202Y-116569606D01*
X148589018Y-116561617D01*
X148610092Y-116560600D01*
X148654052Y-116582309D01*
X148718675Y-116645088D01*
X148794988Y-116738400D01*
X148855879Y-116817662D01*
X148903993Y-116878726D01*
X148932043Y-116912415D01*
X148936149Y-116916200D01*
X148953198Y-116897817D01*
X148987365Y-116852615D01*
X148994270Y-116842989D01*
X149046401Y-116769779D01*
X148968204Y-116671539D01*
X148923852Y-116612635D01*
X148909987Y-116581349D01*
X148923453Y-116567242D01*
X148935702Y-116564086D01*
X148984156Y-116576577D01*
X149039729Y-116622758D01*
X149042989Y-116626478D01*
X149104581Y-116698084D01*
X149159395Y-116629342D01*
X149208560Y-116582441D01*
X149254477Y-116560772D01*
X149257704Y-116560600D01*
X149291327Y-116565153D01*
G36*
X156708393Y-117272878D02*
G01*
X156793700Y-117276780D01*
X156843833Y-117284507D01*
X156866587Y-117297060D01*
X156870400Y-117309068D01*
X156861224Y-117325962D01*
X156828583Y-117337822D01*
X156764805Y-117345841D01*
X156662217Y-117351213D01*
X156584650Y-117353518D01*
X156457418Y-117357855D01*
X156373149Y-117364087D01*
X156324011Y-117373455D01*
X156302170Y-117387201D01*
X156298900Y-117398800D01*
X156307683Y-117416350D01*
X156339346Y-117428519D01*
X156401853Y-117436631D01*
X156503170Y-117442009D01*
X156571513Y-117444104D01*
X156693586Y-117448197D01*
X156774736Y-117454088D01*
X156824841Y-117463758D01*
X156853780Y-117479187D01*
X156871428Y-117502355D01*
X156872577Y-117504467D01*
X156887720Y-117570195D01*
X156873557Y-117617912D01*
X156859798Y-117643333D01*
X156839850Y-117660371D01*
X156804468Y-117670702D01*
X156744406Y-117676000D01*
X156650421Y-117677940D01*
X156540744Y-117678200D01*
X156406787Y-117676169D01*
X156307654Y-117670400D01*
X156249141Y-117661374D01*
X156235400Y-117652800D01*
X156259604Y-117641131D01*
X156327559Y-117632656D01*
X156432279Y-117628046D01*
X156498989Y-117627400D01*
X156633940Y-117625028D01*
X156724333Y-117617443D01*
X156776210Y-117603938D01*
X156790869Y-117593312D01*
X156807530Y-117564272D01*
X156796571Y-117544694D01*
X156752063Y-117532886D01*
X156668081Y-117527157D01*
X156554318Y-117525800D01*
X156404896Y-117519767D01*
X156300733Y-117500637D01*
X156237616Y-117466860D01*
X156211333Y-117416888D01*
X156210000Y-117399174D01*
X156217696Y-117348544D01*
X156245439Y-117312928D01*
X156300203Y-117289923D01*
X156388967Y-117277129D01*
X156518706Y-117272145D01*
X156580114Y-117271800D01*
X156708393Y-117272878D01*
G37*
X156708393Y-117272878D02*
X156793700Y-117276780D01*
X156843833Y-117284507D01*
X156866587Y-117297060D01*
X156870400Y-117309068D01*
X156861224Y-117325962D01*
X156828583Y-117337822D01*
X156764805Y-117345841D01*
X156662217Y-117351213D01*
X156584650Y-117353518D01*
X156457418Y-117357855D01*
X156373149Y-117364087D01*
X156324011Y-117373455D01*
X156302170Y-117387201D01*
X156298900Y-117398800D01*
X156307683Y-117416350D01*
X156339346Y-117428519D01*
X156401853Y-117436631D01*
X156503170Y-117442009D01*
X156571513Y-117444104D01*
X156693586Y-117448197D01*
X156774736Y-117454088D01*
X156824841Y-117463758D01*
X156853780Y-117479187D01*
X156871428Y-117502355D01*
X156872577Y-117504467D01*
X156887720Y-117570195D01*
X156873557Y-117617912D01*
X156859798Y-117643333D01*
X156839850Y-117660371D01*
X156804468Y-117670702D01*
X156744406Y-117676000D01*
X156650421Y-117677940D01*
X156540744Y-117678200D01*
X156406787Y-117676169D01*
X156307654Y-117670400D01*
X156249141Y-117661374D01*
X156235400Y-117652800D01*
X156259604Y-117641131D01*
X156327559Y-117632656D01*
X156432279Y-117628046D01*
X156498989Y-117627400D01*
X156633940Y-117625028D01*
X156724333Y-117617443D01*
X156776210Y-117603938D01*
X156790869Y-117593312D01*
X156807530Y-117564272D01*
X156796571Y-117544694D01*
X156752063Y-117532886D01*
X156668081Y-117527157D01*
X156554318Y-117525800D01*
X156404896Y-117519767D01*
X156300733Y-117500637D01*
X156237616Y-117466860D01*
X156211333Y-117416888D01*
X156210000Y-117399174D01*
X156217696Y-117348544D01*
X156245439Y-117312928D01*
X156300203Y-117289923D01*
X156388967Y-117277129D01*
X156518706Y-117272145D01*
X156580114Y-117271800D01*
X156708393Y-117272878D01*
G36*
X155905994Y-117272603D02*
G01*
X156003100Y-117275562D01*
X156064211Y-117281498D01*
X156096720Y-117291232D01*
X156108021Y-117305585D01*
X156108400Y-117309900D01*
X156100596Y-117326630D01*
X156071913Y-117337770D01*
X156014442Y-117344351D01*
X155920274Y-117347404D01*
X155816300Y-117348000D01*
X155690796Y-117348538D01*
X155607494Y-117351151D01*
X155557801Y-117357332D01*
X155533121Y-117368577D01*
X155524860Y-117386380D01*
X155524200Y-117398800D01*
X155528217Y-117423500D01*
X155546893Y-117438588D01*
X155590158Y-117446399D01*
X155667948Y-117449273D01*
X155740100Y-117449600D01*
X155848038Y-117451226D01*
X155914100Y-117457147D01*
X155947137Y-117468924D01*
X155956000Y-117487700D01*
X155946782Y-117506747D01*
X155913229Y-117518406D01*
X155846491Y-117524235D01*
X155740100Y-117525800D01*
X155635123Y-117526745D01*
X155571000Y-117531139D01*
X155537800Y-117541319D01*
X155525588Y-117559623D01*
X155524200Y-117576600D01*
X155527297Y-117598426D01*
X155542321Y-117612913D01*
X155577864Y-117621556D01*
X155642521Y-117625848D01*
X155744887Y-117627285D01*
X155816300Y-117627400D01*
X155946271Y-117629517D01*
X156041919Y-117635513D01*
X156097109Y-117644854D01*
X156108400Y-117652800D01*
X156083857Y-117663527D01*
X156013553Y-117671582D01*
X155902477Y-117676593D01*
X155765500Y-117678200D01*
X155422600Y-117678200D01*
X155422600Y-117271800D01*
X155765500Y-117271800D01*
X155905994Y-117272603D01*
G37*
X155905994Y-117272603D02*
X156003100Y-117275562D01*
X156064211Y-117281498D01*
X156096720Y-117291232D01*
X156108021Y-117305585D01*
X156108400Y-117309900D01*
X156100596Y-117326630D01*
X156071913Y-117337770D01*
X156014442Y-117344351D01*
X155920274Y-117347404D01*
X155816300Y-117348000D01*
X155690796Y-117348538D01*
X155607494Y-117351151D01*
X155557801Y-117357332D01*
X155533121Y-117368577D01*
X155524860Y-117386380D01*
X155524200Y-117398800D01*
X155528217Y-117423500D01*
X155546893Y-117438588D01*
X155590158Y-117446399D01*
X155667948Y-117449273D01*
X155740100Y-117449600D01*
X155848038Y-117451226D01*
X155914100Y-117457147D01*
X155947137Y-117468924D01*
X155956000Y-117487700D01*
X155946782Y-117506747D01*
X155913229Y-117518406D01*
X155846491Y-117524235D01*
X155740100Y-117525800D01*
X155635123Y-117526745D01*
X155571000Y-117531139D01*
X155537800Y-117541319D01*
X155525588Y-117559623D01*
X155524200Y-117576600D01*
X155527297Y-117598426D01*
X155542321Y-117612913D01*
X155577864Y-117621556D01*
X155642521Y-117625848D01*
X155744887Y-117627285D01*
X155816300Y-117627400D01*
X155946271Y-117629517D01*
X156041919Y-117635513D01*
X156097109Y-117644854D01*
X156108400Y-117652800D01*
X156083857Y-117663527D01*
X156013553Y-117671582D01*
X155902477Y-117676593D01*
X155765500Y-117678200D01*
X155422600Y-117678200D01*
X155422600Y-117271800D01*
X155765500Y-117271800D01*
X155905994Y-117272603D01*
G36*
X155302448Y-117281370D02*
G01*
X155314180Y-117316096D01*
X155319787Y-117384997D01*
X155321000Y-117475000D01*
X155319205Y-117579260D01*
X155312694Y-117641830D01*
X155299775Y-117671731D01*
X155282900Y-117678200D01*
X155263351Y-117668629D01*
X155251619Y-117633903D01*
X155246012Y-117565002D01*
X155244800Y-117475000D01*
X155246594Y-117370739D01*
X155253105Y-117308169D01*
X155266024Y-117278268D01*
X155282900Y-117271800D01*
X155302448Y-117281370D01*
G37*
X155302448Y-117281370D02*
X155314180Y-117316096D01*
X155319787Y-117384997D01*
X155321000Y-117475000D01*
X155319205Y-117579260D01*
X155312694Y-117641830D01*
X155299775Y-117671731D01*
X155282900Y-117678200D01*
X155263351Y-117668629D01*
X155251619Y-117633903D01*
X155246012Y-117565002D01*
X155244800Y-117475000D01*
X155246594Y-117370739D01*
X155253105Y-117308169D01*
X155266024Y-117278268D01*
X155282900Y-117271800D01*
X155302448Y-117281370D01*
G36*
X154765833Y-117277368D02*
G01*
X154901660Y-117281720D01*
X154995013Y-117288177D01*
X155054213Y-117297925D01*
X155087578Y-117312151D01*
X155099774Y-117325018D01*
X155116072Y-117391589D01*
X155096139Y-117459487D01*
X155047993Y-117507738D01*
X155026808Y-117515894D01*
X154961991Y-117532162D01*
X155031947Y-117605181D01*
X155101904Y-117678200D01*
X155038404Y-117678200D01*
X154974886Y-117658380D01*
X154906663Y-117606863D01*
X154901900Y-117602000D01*
X154853295Y-117557737D01*
X154804019Y-117534862D01*
X154734416Y-117526587D01*
X154681247Y-117525800D01*
X154598550Y-117526893D01*
X154554487Y-117534359D01*
X154536896Y-117554476D01*
X154533610Y-117593521D01*
X154533600Y-117602000D01*
X154522240Y-117662495D01*
X154495500Y-117678200D01*
X154475983Y-117668652D01*
X154464255Y-117634003D01*
X154458634Y-117565242D01*
X154457400Y-117474218D01*
X154457400Y-117398800D01*
X154533600Y-117398800D01*
X154536482Y-117422875D01*
X154551360Y-117437795D01*
X154587577Y-117445272D01*
X154654478Y-117447018D01*
X154761407Y-117444744D01*
X154781250Y-117444169D01*
X154898664Y-117439288D01*
X154973513Y-117431945D01*
X155014022Y-117420632D01*
X155028417Y-117403843D01*
X155028900Y-117398800D01*
X155019577Y-117380462D01*
X154986127Y-117367965D01*
X154920323Y-117359801D01*
X154813940Y-117354464D01*
X154781250Y-117353430D01*
X154667587Y-117350706D01*
X154595338Y-117351747D01*
X154555159Y-117358266D01*
X154537706Y-117371974D01*
X154533634Y-117394583D01*
X154533600Y-117398800D01*
X154457400Y-117398800D01*
X154457400Y-117270236D01*
X154765833Y-117277368D01*
G37*
X154765833Y-117277368D02*
X154901660Y-117281720D01*
X154995013Y-117288177D01*
X155054213Y-117297925D01*
X155087578Y-117312151D01*
X155099774Y-117325018D01*
X155116072Y-117391589D01*
X155096139Y-117459487D01*
X155047993Y-117507738D01*
X155026808Y-117515894D01*
X154961991Y-117532162D01*
X155031947Y-117605181D01*
X155101904Y-117678200D01*
X155038404Y-117678200D01*
X154974886Y-117658380D01*
X154906663Y-117606863D01*
X154901900Y-117602000D01*
X154853295Y-117557737D01*
X154804019Y-117534862D01*
X154734416Y-117526587D01*
X154681247Y-117525800D01*
X154598550Y-117526893D01*
X154554487Y-117534359D01*
X154536896Y-117554476D01*
X154533610Y-117593521D01*
X154533600Y-117602000D01*
X154522240Y-117662495D01*
X154495500Y-117678200D01*
X154475983Y-117668652D01*
X154464255Y-117634003D01*
X154458634Y-117565242D01*
X154457400Y-117474218D01*
X154457400Y-117398800D01*
X154533600Y-117398800D01*
X154536482Y-117422875D01*
X154551360Y-117437795D01*
X154587577Y-117445272D01*
X154654478Y-117447018D01*
X154761407Y-117444744D01*
X154781250Y-117444169D01*
X154898664Y-117439288D01*
X154973513Y-117431945D01*
X155014022Y-117420632D01*
X155028417Y-117403843D01*
X155028900Y-117398800D01*
X155019577Y-117380462D01*
X154986127Y-117367965D01*
X154920323Y-117359801D01*
X154813940Y-117354464D01*
X154781250Y-117353430D01*
X154667587Y-117350706D01*
X154595338Y-117351747D01*
X154555159Y-117358266D01*
X154537706Y-117371974D01*
X154533634Y-117394583D01*
X154533600Y-117398800D01*
X154457400Y-117398800D01*
X154457400Y-117270236D01*
X154765833Y-117277368D01*
G36*
X154169016Y-117272562D02*
G01*
X154268926Y-117275370D01*
X154332608Y-117281003D01*
X154367341Y-117290240D01*
X154380401Y-117303863D01*
X154381200Y-117309900D01*
X154369495Y-117332022D01*
X154328005Y-117343900D01*
X154247162Y-117347924D01*
X154228800Y-117348000D01*
X154076400Y-117348000D01*
X154076400Y-117513100D01*
X154074816Y-117602449D01*
X154067764Y-117652263D01*
X154051788Y-117673768D01*
X154025600Y-117678200D01*
X153998107Y-117673054D01*
X153982780Y-117650133D01*
X153976163Y-117598213D01*
X153974800Y-117513100D01*
X153974800Y-117348000D01*
X153822400Y-117348000D01*
X153733908Y-117345073D01*
X153686397Y-117334701D01*
X153670300Y-117314490D01*
X153670000Y-117309900D01*
X153677118Y-117294533D01*
X153703324Y-117283829D01*
X153755897Y-117277006D01*
X153842115Y-117273284D01*
X153969255Y-117271885D01*
X154025600Y-117271800D01*
X154169016Y-117272562D01*
G37*
X154169016Y-117272562D02*
X154268926Y-117275370D01*
X154332608Y-117281003D01*
X154367341Y-117290240D01*
X154380401Y-117303863D01*
X154381200Y-117309900D01*
X154369495Y-117332022D01*
X154328005Y-117343900D01*
X154247162Y-117347924D01*
X154228800Y-117348000D01*
X154076400Y-117348000D01*
X154076400Y-117513100D01*
X154074816Y-117602449D01*
X154067764Y-117652263D01*
X154051788Y-117673768D01*
X154025600Y-117678200D01*
X153998107Y-117673054D01*
X153982780Y-117650133D01*
X153976163Y-117598213D01*
X153974800Y-117513100D01*
X153974800Y-117348000D01*
X153822400Y-117348000D01*
X153733908Y-117345073D01*
X153686397Y-117334701D01*
X153670300Y-117314490D01*
X153670000Y-117309900D01*
X153677118Y-117294533D01*
X153703324Y-117283829D01*
X153755897Y-117277006D01*
X153842115Y-117273284D01*
X153969255Y-117271885D01*
X154025600Y-117271800D01*
X154169016Y-117272562D01*
G36*
X153431049Y-117272825D02*
G01*
X153516111Y-117276594D01*
X153566250Y-117284145D01*
X153589392Y-117296516D01*
X153593800Y-117309900D01*
X153585819Y-117326954D01*
X153556509Y-117338183D01*
X153497818Y-117344685D01*
X153401694Y-117347558D01*
X153314400Y-117348000D01*
X153192123Y-117348584D01*
X153111861Y-117351402D01*
X153064832Y-117358051D01*
X153042253Y-117370126D01*
X153035343Y-117389225D01*
X153035000Y-117398800D01*
X153038399Y-117421642D01*
X153054639Y-117436381D01*
X153092786Y-117444778D01*
X153161905Y-117448593D01*
X153271060Y-117449585D01*
X153296620Y-117449600D01*
X153431542Y-117451934D01*
X153523523Y-117460762D01*
X153580281Y-117478817D01*
X153609534Y-117508835D01*
X153619001Y-117553550D01*
X153619200Y-117563900D01*
X153613619Y-117609323D01*
X153591906Y-117641035D01*
X153546602Y-117661399D01*
X153470249Y-117672779D01*
X153355389Y-117677537D01*
X153258520Y-117678200D01*
X153132340Y-117676223D01*
X153035369Y-117670711D01*
X152975246Y-117662291D01*
X152958800Y-117653631D01*
X152982674Y-117642892D01*
X153048192Y-117633256D01*
X153146201Y-117625742D01*
X153244245Y-117621881D01*
X153369849Y-117617807D01*
X153453354Y-117612090D01*
X153503462Y-117603203D01*
X153528874Y-117589616D01*
X153538208Y-117570250D01*
X153537382Y-117550024D01*
X153519786Y-117537026D01*
X153476744Y-117529696D01*
X153399581Y-117526475D01*
X153290862Y-117525800D01*
X153170553Y-117524550D01*
X153089834Y-117519568D01*
X153037533Y-117509002D01*
X153002474Y-117491002D01*
X152984200Y-117475000D01*
X152943206Y-117426677D01*
X152939112Y-117386639D01*
X152970178Y-117332210D01*
X152972940Y-117328251D01*
X152993443Y-117303828D01*
X153020765Y-117287676D01*
X153064828Y-117278101D01*
X153135551Y-117273405D01*
X153242854Y-117271893D01*
X153303140Y-117271800D01*
X153431049Y-117272825D01*
G37*
X153431049Y-117272825D02*
X153516111Y-117276594D01*
X153566250Y-117284145D01*
X153589392Y-117296516D01*
X153593800Y-117309900D01*
X153585819Y-117326954D01*
X153556509Y-117338183D01*
X153497818Y-117344685D01*
X153401694Y-117347558D01*
X153314400Y-117348000D01*
X153192123Y-117348584D01*
X153111861Y-117351402D01*
X153064832Y-117358051D01*
X153042253Y-117370126D01*
X153035343Y-117389225D01*
X153035000Y-117398800D01*
X153038399Y-117421642D01*
X153054639Y-117436381D01*
X153092786Y-117444778D01*
X153161905Y-117448593D01*
X153271060Y-117449585D01*
X153296620Y-117449600D01*
X153431542Y-117451934D01*
X153523523Y-117460762D01*
X153580281Y-117478817D01*
X153609534Y-117508835D01*
X153619001Y-117553550D01*
X153619200Y-117563900D01*
X153613619Y-117609323D01*
X153591906Y-117641035D01*
X153546602Y-117661399D01*
X153470249Y-117672779D01*
X153355389Y-117677537D01*
X153258520Y-117678200D01*
X153132340Y-117676223D01*
X153035369Y-117670711D01*
X152975246Y-117662291D01*
X152958800Y-117653631D01*
X152982674Y-117642892D01*
X153048192Y-117633256D01*
X153146201Y-117625742D01*
X153244245Y-117621881D01*
X153369849Y-117617807D01*
X153453354Y-117612090D01*
X153503462Y-117603203D01*
X153528874Y-117589616D01*
X153538208Y-117570250D01*
X153537382Y-117550024D01*
X153519786Y-117537026D01*
X153476744Y-117529696D01*
X153399581Y-117526475D01*
X153290862Y-117525800D01*
X153170553Y-117524550D01*
X153089834Y-117519568D01*
X153037533Y-117509002D01*
X153002474Y-117491002D01*
X152984200Y-117475000D01*
X152943206Y-117426677D01*
X152939112Y-117386639D01*
X152970178Y-117332210D01*
X152972940Y-117328251D01*
X152993443Y-117303828D01*
X153020765Y-117287676D01*
X153064828Y-117278101D01*
X153135551Y-117273405D01*
X153242854Y-117271893D01*
X153303140Y-117271800D01*
X153431049Y-117272825D01*
G36*
X152814659Y-117282470D02*
G01*
X152826522Y-117320749D01*
X152831361Y-117396037D01*
X152831800Y-117444520D01*
X152827344Y-117543177D01*
X152815359Y-117616362D01*
X152801319Y-117647720D01*
X152757604Y-117663578D01*
X152664625Y-117673725D01*
X152523610Y-117678043D01*
X152484713Y-117678200D01*
X152359036Y-117677384D01*
X152274659Y-117673944D01*
X152222094Y-117666386D01*
X152191856Y-117653219D01*
X152174455Y-117632951D01*
X152172293Y-117629069D01*
X152158045Y-117577698D01*
X152148497Y-117495877D01*
X152146000Y-117425869D01*
X152148870Y-117336829D01*
X152159056Y-117288789D01*
X152178923Y-117272188D01*
X152184100Y-117271800D01*
X152206550Y-117283817D01*
X152218416Y-117326259D01*
X152222174Y-117408708D01*
X152222200Y-117419120D01*
X152227180Y-117504555D01*
X152240035Y-117570919D01*
X152252680Y-117596920D01*
X152290845Y-117610628D01*
X152364427Y-117620700D01*
X152458140Y-117626636D01*
X152556697Y-117627940D01*
X152644812Y-117624114D01*
X152707200Y-117614660D01*
X152715422Y-117611982D01*
X152738699Y-117590037D01*
X152751290Y-117539858D01*
X152755537Y-117451080D01*
X152755600Y-117434182D01*
X152758217Y-117342445D01*
X152767557Y-117291808D01*
X152785848Y-117272770D01*
X152793700Y-117271800D01*
X152814659Y-117282470D01*
G37*
X152814659Y-117282470D02*
X152826522Y-117320749D01*
X152831361Y-117396037D01*
X152831800Y-117444520D01*
X152827344Y-117543177D01*
X152815359Y-117616362D01*
X152801319Y-117647720D01*
X152757604Y-117663578D01*
X152664625Y-117673725D01*
X152523610Y-117678043D01*
X152484713Y-117678200D01*
X152359036Y-117677384D01*
X152274659Y-117673944D01*
X152222094Y-117666386D01*
X152191856Y-117653219D01*
X152174455Y-117632951D01*
X152172293Y-117629069D01*
X152158045Y-117577698D01*
X152148497Y-117495877D01*
X152146000Y-117425869D01*
X152148870Y-117336829D01*
X152159056Y-117288789D01*
X152178923Y-117272188D01*
X152184100Y-117271800D01*
X152206550Y-117283817D01*
X152218416Y-117326259D01*
X152222174Y-117408708D01*
X152222200Y-117419120D01*
X152227180Y-117504555D01*
X152240035Y-117570919D01*
X152252680Y-117596920D01*
X152290845Y-117610628D01*
X152364427Y-117620700D01*
X152458140Y-117626636D01*
X152556697Y-117627940D01*
X152644812Y-117624114D01*
X152707200Y-117614660D01*
X152715422Y-117611982D01*
X152738699Y-117590037D01*
X152751290Y-117539858D01*
X152755537Y-117451080D01*
X152755600Y-117434182D01*
X152758217Y-117342445D01*
X152767557Y-117291808D01*
X152785848Y-117272770D01*
X152793700Y-117271800D01*
X152814659Y-117282470D01*
G36*
X151799768Y-117273408D02*
G01*
X151895959Y-117278769D01*
X151956288Y-117288686D01*
X151988181Y-117303963D01*
X151991759Y-117307682D01*
X152008112Y-117355415D01*
X152014991Y-117440284D01*
X152013919Y-117504532D01*
X152006300Y-117665500D01*
X151682450Y-117672608D01*
X151358600Y-117679717D01*
X151358600Y-117348000D01*
X151434800Y-117348000D01*
X151434800Y-117629239D01*
X151682450Y-117621969D01*
X151930100Y-117614700D01*
X151945454Y-117348000D01*
X151434800Y-117348000D01*
X151358600Y-117348000D01*
X151358600Y-117271800D01*
X151660289Y-117271800D01*
X151799768Y-117273408D01*
G37*
X151799768Y-117273408D02*
X151895959Y-117278769D01*
X151956288Y-117288686D01*
X151988181Y-117303963D01*
X151991759Y-117307682D01*
X152008112Y-117355415D01*
X152014991Y-117440284D01*
X152013919Y-117504532D01*
X152006300Y-117665500D01*
X151682450Y-117672608D01*
X151358600Y-117679717D01*
X151358600Y-117348000D01*
X151434800Y-117348000D01*
X151434800Y-117629239D01*
X151682450Y-117621969D01*
X151930100Y-117614700D01*
X151945454Y-117348000D01*
X151434800Y-117348000D01*
X151358600Y-117348000D01*
X151358600Y-117271800D01*
X151660289Y-117271800D01*
X151799768Y-117273408D01*
G36*
X151213048Y-117281370D02*
G01*
X151224780Y-117316096D01*
X151230387Y-117384997D01*
X151231600Y-117475000D01*
X151230966Y-117575767D01*
X151226846Y-117636103D01*
X151215908Y-117666375D01*
X151194821Y-117676951D01*
X151166319Y-117678200D01*
X151114713Y-117662983D01*
X151031771Y-117620320D01*
X150925671Y-117554692D01*
X150861519Y-117511205D01*
X150622000Y-117344210D01*
X150622000Y-117511205D01*
X150619506Y-117604415D01*
X150610585Y-117656465D01*
X150593080Y-117676812D01*
X150583900Y-117678200D01*
X150564351Y-117668629D01*
X150552619Y-117633903D01*
X150547012Y-117565002D01*
X150545800Y-117475000D01*
X150546471Y-117374222D01*
X150550652Y-117313879D01*
X150561593Y-117283605D01*
X150582542Y-117273035D01*
X150609505Y-117271800D01*
X150660229Y-117287300D01*
X150741423Y-117330600D01*
X150844597Y-117396898D01*
X150901400Y-117436900D01*
X150994203Y-117503253D01*
X151071282Y-117556874D01*
X151123784Y-117591700D01*
X151142494Y-117602000D01*
X151149067Y-117578826D01*
X151153715Y-117518195D01*
X151155400Y-117436900D01*
X151157943Y-117344292D01*
X151167032Y-117292821D01*
X151184853Y-117273008D01*
X151193500Y-117271800D01*
X151213048Y-117281370D01*
G37*
X151213048Y-117281370D02*
X151224780Y-117316096D01*
X151230387Y-117384997D01*
X151231600Y-117475000D01*
X151230966Y-117575767D01*
X151226846Y-117636103D01*
X151215908Y-117666375D01*
X151194821Y-117676951D01*
X151166319Y-117678200D01*
X151114713Y-117662983D01*
X151031771Y-117620320D01*
X150925671Y-117554692D01*
X150861519Y-117511205D01*
X150622000Y-117344210D01*
X150622000Y-117511205D01*
X150619506Y-117604415D01*
X150610585Y-117656465D01*
X150593080Y-117676812D01*
X150583900Y-117678200D01*
X150564351Y-117668629D01*
X150552619Y-117633903D01*
X150547012Y-117565002D01*
X150545800Y-117475000D01*
X150546471Y-117374222D01*
X150550652Y-117313879D01*
X150561593Y-117283605D01*
X150582542Y-117273035D01*
X150609505Y-117271800D01*
X150660229Y-117287300D01*
X150741423Y-117330600D01*
X150844597Y-117396898D01*
X150901400Y-117436900D01*
X150994203Y-117503253D01*
X151071282Y-117556874D01*
X151123784Y-117591700D01*
X151142494Y-117602000D01*
X151149067Y-117578826D01*
X151153715Y-117518195D01*
X151155400Y-117436900D01*
X151157943Y-117344292D01*
X151167032Y-117292821D01*
X151184853Y-117273008D01*
X151193500Y-117271800D01*
X151213048Y-117281370D01*
G36*
X150418710Y-117276042D02*
G01*
X150433880Y-117295581D01*
X150441462Y-117340636D01*
X150444013Y-117421424D01*
X150444200Y-117475000D01*
X150443139Y-117576242D01*
X150438254Y-117636920D01*
X150426990Y-117667250D01*
X150406793Y-117677452D01*
X150393400Y-117678200D01*
X150368089Y-117673957D01*
X150352919Y-117654418D01*
X150345337Y-117609363D01*
X150342786Y-117528575D01*
X150342600Y-117475000D01*
X150343660Y-117373757D01*
X150348545Y-117313079D01*
X150359809Y-117282749D01*
X150380006Y-117272547D01*
X150393400Y-117271800D01*
X150418710Y-117276042D01*
G37*
X150418710Y-117276042D02*
X150433880Y-117295581D01*
X150441462Y-117340636D01*
X150444013Y-117421424D01*
X150444200Y-117475000D01*
X150443139Y-117576242D01*
X150438254Y-117636920D01*
X150426990Y-117667250D01*
X150406793Y-117677452D01*
X150393400Y-117678200D01*
X150368089Y-117673957D01*
X150352919Y-117654418D01*
X150345337Y-117609363D01*
X150342786Y-117528575D01*
X150342600Y-117475000D01*
X150343660Y-117373757D01*
X150348545Y-117313079D01*
X150359809Y-117282749D01*
X150380006Y-117272547D01*
X150393400Y-117271800D01*
X150418710Y-117276042D01*
G36*
X152951815Y-115888844D02*
G01*
X153231438Y-115890011D01*
X153474671Y-115892553D01*
X153688716Y-115896766D01*
X153880773Y-115902945D01*
X154058046Y-115911385D01*
X154227735Y-115922381D01*
X154397043Y-115936230D01*
X154573171Y-115953226D01*
X154763321Y-115973664D01*
X154800300Y-115977811D01*
X155254225Y-116035899D01*
X155679198Y-116104232D01*
X156072519Y-116182017D01*
X156431485Y-116268460D01*
X156753398Y-116362767D01*
X157035558Y-116464143D01*
X157275262Y-116571796D01*
X157469813Y-116684931D01*
X157616508Y-116802754D01*
X157620871Y-116807081D01*
X157734000Y-116920210D01*
X157734000Y-117313242D01*
X157621354Y-117425871D01*
X157504134Y-117529248D01*
X157368199Y-117620871D01*
X157203542Y-117706517D01*
X157000159Y-117791964D01*
X156962299Y-117806401D01*
X156602661Y-117926195D01*
X156194640Y-118032857D01*
X155738964Y-118126255D01*
X155236359Y-118206257D01*
X154687550Y-118272733D01*
X154093264Y-118325551D01*
X154089100Y-118325861D01*
X153930567Y-118335256D01*
X153732173Y-118343227D01*
X153502066Y-118349743D01*
X153248392Y-118354771D01*
X152979300Y-118358280D01*
X152702936Y-118360238D01*
X152427449Y-118360614D01*
X152160986Y-118359376D01*
X151911694Y-118356493D01*
X151687720Y-118351934D01*
X151497213Y-118345665D01*
X151348320Y-118337657D01*
X151333200Y-118336544D01*
X151071723Y-118315653D01*
X150826649Y-118294317D01*
X150606420Y-118273343D01*
X150419477Y-118253536D01*
X150274260Y-118235704D01*
X150266400Y-118234623D01*
X149778544Y-118160253D01*
X149340324Y-118079211D01*
X148950982Y-117991264D01*
X148609763Y-117896176D01*
X148315911Y-117793712D01*
X148068670Y-117683637D01*
X147867284Y-117565717D01*
X147711889Y-117440581D01*
X147574000Y-117307024D01*
X147574000Y-117132723D01*
X147625095Y-117132723D01*
X147652290Y-117248215D01*
X147729839Y-117360688D01*
X147833509Y-117451241D01*
X148038954Y-117578742D01*
X148293217Y-117697486D01*
X148595025Y-117807181D01*
X148943108Y-117907536D01*
X149336192Y-117998258D01*
X149773006Y-118079054D01*
X150252278Y-118149634D01*
X150772736Y-118209704D01*
X151333107Y-118258972D01*
X151358600Y-118260883D01*
X151500456Y-118268804D01*
X151684792Y-118275046D01*
X151903315Y-118279640D01*
X152147734Y-118282615D01*
X152409756Y-118284003D01*
X152681090Y-118283833D01*
X152953443Y-118282137D01*
X153218523Y-118278944D01*
X153468040Y-118274284D01*
X153693700Y-118268190D01*
X153887211Y-118260689D01*
X154040283Y-118251814D01*
X154051000Y-118251010D01*
X154429831Y-118219426D01*
X154770106Y-118185407D01*
X155084060Y-118147488D01*
X155383926Y-118104201D01*
X155655857Y-118058737D01*
X156079281Y-117975421D01*
X156455407Y-117884262D01*
X156783681Y-117785459D01*
X157063547Y-117679210D01*
X157294451Y-117565713D01*
X157475840Y-117445167D01*
X157548166Y-117381950D01*
X157618115Y-117311625D01*
X157658539Y-117260214D01*
X157677477Y-117212432D01*
X157682967Y-117152993D01*
X157683200Y-117125176D01*
X157669475Y-117023675D01*
X157625362Y-116931315D01*
X157546446Y-116843616D01*
X157428316Y-116756095D01*
X157266560Y-116664274D01*
X157193095Y-116627497D01*
X156990172Y-116535959D01*
X156772726Y-116452675D01*
X156536540Y-116376756D01*
X156277398Y-116307311D01*
X155991083Y-116243450D01*
X155673378Y-116184282D01*
X155320067Y-116128918D01*
X154926933Y-116076466D01*
X154489759Y-116026038D01*
X154203400Y-115996264D01*
X154087459Y-115987711D01*
X153927744Y-115980449D01*
X153731264Y-115974476D01*
X153505027Y-115969791D01*
X153256042Y-115966392D01*
X152991318Y-115964277D01*
X152717865Y-115963445D01*
X152442690Y-115963893D01*
X152172804Y-115965620D01*
X151915214Y-115968624D01*
X151676930Y-115972903D01*
X151464962Y-115978456D01*
X151286317Y-115985280D01*
X151148004Y-115993374D01*
X151104600Y-115997057D01*
X150547054Y-116056837D01*
X150039133Y-116123832D01*
X149580156Y-116198209D01*
X149169440Y-116280131D01*
X148806301Y-116369765D01*
X148490058Y-116467276D01*
X148220027Y-116572828D01*
X147995527Y-116686587D01*
X147845321Y-116785815D01*
X147721642Y-116899755D01*
X147648223Y-117015981D01*
X147625095Y-117132723D01*
X147574000Y-117132723D01*
X147574000Y-116931775D01*
X147711969Y-116798141D01*
X147866900Y-116675219D01*
X148070569Y-116558564D01*
X148321246Y-116448638D01*
X148617203Y-116345905D01*
X148956710Y-116250826D01*
X149338037Y-116163866D01*
X149759456Y-116085487D01*
X150219236Y-116016152D01*
X150715650Y-115956323D01*
X150942725Y-115933369D01*
X151071990Y-115922207D01*
X151208841Y-115912959D01*
X151359179Y-115905469D01*
X151528904Y-115899579D01*
X151723917Y-115895135D01*
X151950119Y-115891980D01*
X152213411Y-115889957D01*
X152519694Y-115888912D01*
X152628600Y-115888757D01*
X152951815Y-115888844D01*
G37*
X152951815Y-115888844D02*
X153231438Y-115890011D01*
X153474671Y-115892553D01*
X153688716Y-115896766D01*
X153880773Y-115902945D01*
X154058046Y-115911385D01*
X154227735Y-115922381D01*
X154397043Y-115936230D01*
X154573171Y-115953226D01*
X154763321Y-115973664D01*
X154800300Y-115977811D01*
X155254225Y-116035899D01*
X155679198Y-116104232D01*
X156072519Y-116182017D01*
X156431485Y-116268460D01*
X156753398Y-116362767D01*
X157035558Y-116464143D01*
X157275262Y-116571796D01*
X157469813Y-116684931D01*
X157616508Y-116802754D01*
X157620871Y-116807081D01*
X157734000Y-116920210D01*
X157734000Y-117313242D01*
X157621354Y-117425871D01*
X157504134Y-117529248D01*
X157368199Y-117620871D01*
X157203542Y-117706517D01*
X157000159Y-117791964D01*
X156962299Y-117806401D01*
X156602661Y-117926195D01*
X156194640Y-118032857D01*
X155738964Y-118126255D01*
X155236359Y-118206257D01*
X154687550Y-118272733D01*
X154093264Y-118325551D01*
X154089100Y-118325861D01*
X153930567Y-118335256D01*
X153732173Y-118343227D01*
X153502066Y-118349743D01*
X153248392Y-118354771D01*
X152979300Y-118358280D01*
X152702936Y-118360238D01*
X152427449Y-118360614D01*
X152160986Y-118359376D01*
X151911694Y-118356493D01*
X151687720Y-118351934D01*
X151497213Y-118345665D01*
X151348320Y-118337657D01*
X151333200Y-118336544D01*
X151071723Y-118315653D01*
X150826649Y-118294317D01*
X150606420Y-118273343D01*
X150419477Y-118253536D01*
X150274260Y-118235704D01*
X150266400Y-118234623D01*
X149778544Y-118160253D01*
X149340324Y-118079211D01*
X148950982Y-117991264D01*
X148609763Y-117896176D01*
X148315911Y-117793712D01*
X148068670Y-117683637D01*
X147867284Y-117565717D01*
X147711889Y-117440581D01*
X147574000Y-117307024D01*
X147574000Y-117132723D01*
X147625095Y-117132723D01*
X147652290Y-117248215D01*
X147729839Y-117360688D01*
X147833509Y-117451241D01*
X148038954Y-117578742D01*
X148293217Y-117697486D01*
X148595025Y-117807181D01*
X148943108Y-117907536D01*
X149336192Y-117998258D01*
X149773006Y-118079054D01*
X150252278Y-118149634D01*
X150772736Y-118209704D01*
X151333107Y-118258972D01*
X151358600Y-118260883D01*
X151500456Y-118268804D01*
X151684792Y-118275046D01*
X151903315Y-118279640D01*
X152147734Y-118282615D01*
X152409756Y-118284003D01*
X152681090Y-118283833D01*
X152953443Y-118282137D01*
X153218523Y-118278944D01*
X153468040Y-118274284D01*
X153693700Y-118268190D01*
X153887211Y-118260689D01*
X154040283Y-118251814D01*
X154051000Y-118251010D01*
X154429831Y-118219426D01*
X154770106Y-118185407D01*
X155084060Y-118147488D01*
X155383926Y-118104201D01*
X155655857Y-118058737D01*
X156079281Y-117975421D01*
X156455407Y-117884262D01*
X156783681Y-117785459D01*
X157063547Y-117679210D01*
X157294451Y-117565713D01*
X157475840Y-117445167D01*
X157548166Y-117381950D01*
X157618115Y-117311625D01*
X157658539Y-117260214D01*
X157677477Y-117212432D01*
X157682967Y-117152993D01*
X157683200Y-117125176D01*
X157669475Y-117023675D01*
X157625362Y-116931315D01*
X157546446Y-116843616D01*
X157428316Y-116756095D01*
X157266560Y-116664274D01*
X157193095Y-116627497D01*
X156990172Y-116535959D01*
X156772726Y-116452675D01*
X156536540Y-116376756D01*
X156277398Y-116307311D01*
X155991083Y-116243450D01*
X155673378Y-116184282D01*
X155320067Y-116128918D01*
X154926933Y-116076466D01*
X154489759Y-116026038D01*
X154203400Y-115996264D01*
X154087459Y-115987711D01*
X153927744Y-115980449D01*
X153731264Y-115974476D01*
X153505027Y-115969791D01*
X153256042Y-115966392D01*
X152991318Y-115964277D01*
X152717865Y-115963445D01*
X152442690Y-115963893D01*
X152172804Y-115965620D01*
X151915214Y-115968624D01*
X151676930Y-115972903D01*
X151464962Y-115978456D01*
X151286317Y-115985280D01*
X151148004Y-115993374D01*
X151104600Y-115997057D01*
X150547054Y-116056837D01*
X150039133Y-116123832D01*
X149580156Y-116198209D01*
X149169440Y-116280131D01*
X148806301Y-116369765D01*
X148490058Y-116467276D01*
X148220027Y-116572828D01*
X147995527Y-116686587D01*
X147845321Y-116785815D01*
X147721642Y-116899755D01*
X147648223Y-117015981D01*
X147625095Y-117132723D01*
X147574000Y-117132723D01*
X147574000Y-116931775D01*
X147711969Y-116798141D01*
X147866900Y-116675219D01*
X148070569Y-116558564D01*
X148321246Y-116448638D01*
X148617203Y-116345905D01*
X148956710Y-116250826D01*
X149338037Y-116163866D01*
X149759456Y-116085487D01*
X150219236Y-116016152D01*
X150715650Y-115956323D01*
X150942725Y-115933369D01*
X151071990Y-115922207D01*
X151208841Y-115912959D01*
X151359179Y-115905469D01*
X151528904Y-115899579D01*
X151723917Y-115895135D01*
X151950119Y-115891980D01*
X152213411Y-115889957D01*
X152519694Y-115888912D01*
X152628600Y-115888757D01*
X152951815Y-115888844D01*
D12*
X112216000Y-104056922D02*
X112216000Y-104574078D01*
X110796000Y-104056922D02*
X110796000Y-104574078D01*
X120606078Y-112025500D02*
X120088922Y-112025500D01*
X120606078Y-110605500D02*
X120088922Y-110605500D01*
X116788000Y-96827078D02*
X116788000Y-96309922D01*
X115368000Y-96827078D02*
X115368000Y-96309922D01*
X119433078Y-96826000D02*
X118915922Y-96826000D01*
X119433078Y-98246000D02*
X118915922Y-98246000D01*
X127329000Y-108257078D02*
X127329000Y-107739922D01*
X125909000Y-108257078D02*
X125909000Y-107739922D01*
X134822000Y-102151922D02*
X134822000Y-102669078D01*
X133402000Y-102151922D02*
X133402000Y-102669078D01*
X135806922Y-90626000D02*
X136324078Y-90626000D01*
X135806922Y-89206000D02*
X136324078Y-89206000D01*
X131899922Y-89206000D02*
X132417078Y-89206000D01*
X131899922Y-90626000D02*
X132417078Y-90626000D01*
X133148000Y-115496078D02*
X133148000Y-114978922D01*
X134568000Y-115496078D02*
X134568000Y-114978922D01*
X143179000Y-110135000D02*
X143179000Y-111335000D01*
X143179000Y-114655000D02*
X143179000Y-113455000D01*
X146634563Y-114655000D02*
X143179000Y-114655000D01*
X146634563Y-110135000D02*
X143179000Y-110135000D01*
X147699000Y-111199437D02*
X147699000Y-111335000D01*
X147699000Y-113590563D02*
X147699000Y-113455000D01*
X147699000Y-113590563D02*
X146634563Y-114655000D01*
X147699000Y-111199437D02*
X146634563Y-110135000D01*
X153771000Y-98729000D02*
X152571000Y-98729000D01*
X149251000Y-98729000D02*
X150451000Y-98729000D01*
X149251000Y-102184563D02*
X149251000Y-98729000D01*
X153771000Y-102184563D02*
X153771000Y-98729000D01*
X152706563Y-103249000D02*
X152571000Y-103249000D01*
X150315437Y-103249000D02*
X150451000Y-103249000D01*
X150315437Y-103249000D02*
X149251000Y-102184563D01*
X152706563Y-103249000D02*
X153771000Y-102184563D01*
X141171437Y-100380000D02*
X140107000Y-101444437D01*
X143562563Y-100380000D02*
X144627000Y-101444437D01*
X143562563Y-100380000D02*
X143427000Y-100380000D01*
X141171437Y-100380000D02*
X141307000Y-100380000D01*
X140107000Y-101444437D02*
X140107000Y-104900000D01*
X144627000Y-101444437D02*
X144627000Y-104900000D01*
X144627000Y-104900000D02*
X143427000Y-104900000D01*
X140107000Y-104900000D02*
X141307000Y-104900000D01*
X153151063Y-90842500D02*
X154215500Y-89778063D01*
X150759937Y-90842500D02*
X149695500Y-89778063D01*
X150759937Y-90842500D02*
X150895500Y-90842500D01*
X153151063Y-90842500D02*
X153015500Y-90842500D01*
X154215500Y-89778063D02*
X154215500Y-86322500D01*
X149695500Y-89778063D02*
X149695500Y-86322500D01*
X149695500Y-86322500D02*
X150895500Y-86322500D01*
X154215500Y-86322500D02*
X153015500Y-86322500D01*
X147331500Y-89149422D02*
X147331500Y-89666578D01*
X145911500Y-89149422D02*
X145911500Y-89666578D01*
X118198000Y-112884000D02*
X116498000Y-112884000D01*
X116498000Y-112884000D02*
X116498000Y-115434000D01*
X118198000Y-112884000D02*
X118198000Y-115434000D01*
X123282000Y-105341000D02*
X122082000Y-105341000D01*
X123282000Y-107191000D02*
X123282000Y-105341000D01*
X122082000Y-107191000D02*
X122082000Y-105341000D01*
X123252000Y-86712500D02*
X125102000Y-86712500D01*
X123252000Y-87912500D02*
X125102000Y-87912500D01*
X125102000Y-87912500D02*
X125102000Y-86712500D01*
X160214000Y-116138000D02*
X165414000Y-116138000D01*
X160214000Y-98298000D02*
X160214000Y-116138000D01*
X165414000Y-95698000D02*
X165414000Y-116138000D01*
X160214000Y-98298000D02*
X162814000Y-98298000D01*
X162814000Y-98298000D02*
X162814000Y-95698000D01*
X162814000Y-95698000D02*
X165414000Y-95698000D01*
X160214000Y-97028000D02*
X160214000Y-95698000D01*
X160214000Y-95698000D02*
X161544000Y-95698000D01*
X109808000Y-116225000D02*
X115778000Y-116225000D01*
X115778000Y-116225000D02*
X115778000Y-108605000D01*
X115778000Y-108605000D02*
X109808000Y-108605000D01*
X109808000Y-108605000D02*
X109808000Y-116225000D01*
X109818000Y-112915000D02*
X110568000Y-112915000D01*
X110568000Y-112915000D02*
X110568000Y-111915000D01*
X110568000Y-111915000D02*
X109818000Y-111915000D01*
X109818000Y-111915000D02*
X109818000Y-112915000D01*
X109818000Y-116215000D02*
X110568000Y-116215000D01*
X110568000Y-116215000D02*
X110568000Y-114415000D01*
X110568000Y-114415000D02*
X109818000Y-114415000D01*
X109818000Y-114415000D02*
X109818000Y-116215000D01*
X109818000Y-110415000D02*
X110568000Y-110415000D01*
X110568000Y-110415000D02*
X110568000Y-108615000D01*
X110568000Y-108615000D02*
X109818000Y-108615000D01*
X109818000Y-108615000D02*
X109818000Y-110415000D01*
X112068000Y-116215000D02*
X112068000Y-115465000D01*
X112068000Y-115465000D02*
X113408000Y-115465000D01*
X115018000Y-112415000D02*
X115018000Y-114405000D01*
X112068000Y-108615000D02*
X112068000Y-109365000D01*
X112068000Y-109365000D02*
X115018000Y-109365000D01*
X115018000Y-109365000D02*
X115018000Y-112415000D01*
X109518000Y-115265000D02*
X109518000Y-116515000D01*
X109518000Y-116515000D02*
X110768000Y-116515000D01*
X165718500Y-86276500D02*
X159748500Y-86276500D01*
X159748500Y-86276500D02*
X159748500Y-93896500D01*
X159748500Y-93896500D02*
X165718500Y-93896500D01*
X165718500Y-93896500D02*
X165718500Y-86276500D01*
X165708500Y-89586500D02*
X164958500Y-89586500D01*
X164958500Y-89586500D02*
X164958500Y-90586500D01*
X164958500Y-90586500D02*
X165708500Y-90586500D01*
X165708500Y-90586500D02*
X165708500Y-89586500D01*
X165708500Y-86286500D02*
X164958500Y-86286500D01*
X164958500Y-86286500D02*
X164958500Y-88086500D01*
X164958500Y-88086500D02*
X165708500Y-88086500D01*
X165708500Y-88086500D02*
X165708500Y-86286500D01*
X165708500Y-92086500D02*
X164958500Y-92086500D01*
X164958500Y-92086500D02*
X164958500Y-93886500D01*
X164958500Y-93886500D02*
X165708500Y-93886500D01*
X165708500Y-93886500D02*
X165708500Y-92086500D01*
X163458500Y-86286500D02*
X163458500Y-87036500D01*
X163458500Y-87036500D02*
X160508500Y-87036500D01*
X160508500Y-87036500D02*
X160508500Y-90086500D01*
X163458500Y-93886500D02*
X163458500Y-93136500D01*
X163458500Y-93136500D02*
X160508500Y-93136500D01*
X160508500Y-93136500D02*
X160508500Y-90086500D01*
X166008500Y-87236500D02*
X166008500Y-85986500D01*
X166008500Y-85986500D02*
X164758500Y-85986500D01*
X126610500Y-111420500D02*
X126610500Y-115020500D01*
X126622022Y-115058978D02*
G75*
G03*
X131060500Y-113220500I1838478J1838478D01*
G01*
X126622022Y-111382022D02*
G75*
G02*
X131060500Y-113220500I1838478J-1838478D01*
G01*
X110418000Y-90656000D02*
X110418000Y-94256000D01*
X110429522Y-94294478D02*
G75*
G03*
X114868000Y-92456000I1838478J1838478D01*
G01*
X110429522Y-90617522D02*
G75*
G02*
X114868000Y-92456000I1838478J-1838478D01*
G01*
X117674000Y-103146000D02*
X117674000Y-99546000D01*
X117662478Y-103184478D02*
G75*
G02*
X113224000Y-101346000I-1838478J1838478D01*
G01*
X117662478Y-99507522D02*
G75*
G03*
X113224000Y-101346000I-1838478J-1838478D01*
G01*
X117530000Y-90656000D02*
X117530000Y-94256000D01*
X117541522Y-90617522D02*
G75*
G02*
X121980000Y-92456000I1838478J-1838478D01*
G01*
X117541522Y-94294478D02*
G75*
G03*
X121980000Y-92456000I1838478J1838478D01*
G01*
X126039000Y-91926000D02*
X126039000Y-95526000D01*
X126050522Y-95564478D02*
G75*
G03*
X130489000Y-93726000I1838478J1838478D01*
G01*
X126050522Y-91887522D02*
G75*
G02*
X130489000Y-93726000I1838478J-1838478D01*
G01*
X153805500Y-96542000D02*
X153805500Y-92942000D01*
X153793978Y-96580478D02*
G75*
G02*
X149355500Y-94742000I-1838478J1838478D01*
G01*
X153793978Y-92903522D02*
G75*
G03*
X149355500Y-94742000I-1838478J-1838478D01*
G01*
X118924000Y-114089922D02*
X118924000Y-114607078D01*
X120344000Y-114089922D02*
X120344000Y-114607078D01*
X112216000Y-97198922D02*
X112216000Y-97716078D01*
X110796000Y-97198922D02*
X110796000Y-97716078D01*
X123898922Y-112025500D02*
X124416078Y-112025500D01*
X123898922Y-110605500D02*
X124416078Y-110605500D01*
X125805000Y-114089922D02*
X125805000Y-114607078D01*
X124385000Y-114089922D02*
X124385000Y-114607078D01*
X112978000Y-88191078D02*
X112978000Y-87673922D01*
X111558000Y-88191078D02*
X111558000Y-87673922D01*
X116534000Y-105580922D02*
X116534000Y-106098078D01*
X115114000Y-105580922D02*
X115114000Y-106098078D01*
X115495000Y-87703922D02*
X115495000Y-88221078D01*
X116915000Y-87703922D02*
X116915000Y-88221078D01*
X118797000Y-87703922D02*
X118797000Y-88221078D01*
X120217000Y-87703922D02*
X120217000Y-88221078D01*
X121241078Y-104342000D02*
X120723922Y-104342000D01*
X121241078Y-102922000D02*
X120723922Y-102922000D01*
X118797000Y-106469922D02*
X118797000Y-106987078D01*
X120217000Y-106469922D02*
X120217000Y-106987078D01*
X124289078Y-93166000D02*
X123771922Y-93166000D01*
X124289078Y-91746000D02*
X123771922Y-91746000D01*
X124259078Y-88444000D02*
X123741922Y-88444000D01*
X124259078Y-89864000D02*
X123741922Y-89864000D01*
X131899922Y-97715000D02*
X132417078Y-97715000D01*
X131899922Y-99135000D02*
X132417078Y-99135000D01*
X133402000Y-92783922D02*
X133402000Y-93301078D01*
X134822000Y-92783922D02*
X134822000Y-93301078D01*
X128322000Y-98229922D02*
X128322000Y-98747078D01*
X129742000Y-98229922D02*
X129742000Y-98747078D01*
X132915922Y-108002000D02*
X133433078Y-108002000D01*
X132915922Y-109422000D02*
X133433078Y-109422000D01*
X135942000Y-97081078D02*
X135942000Y-96563922D01*
X137362000Y-97081078D02*
X137362000Y-96563922D01*
X133148000Y-111295922D02*
X133148000Y-111813078D01*
X134568000Y-111295922D02*
X134568000Y-111813078D01*
X129655500Y-107706422D02*
X129655500Y-108223578D01*
X131075500Y-107706422D02*
X131075500Y-108223578D01*
X136831000Y-104770422D02*
X136831000Y-105287578D01*
X138251000Y-104770422D02*
X138251000Y-105287578D01*
X138251000Y-101262922D02*
X138251000Y-101780078D01*
X136831000Y-101262922D02*
X136831000Y-101780078D01*
X147331500Y-99992922D02*
X147331500Y-100510078D01*
X145911500Y-99992922D02*
X145911500Y-100510078D01*
X145911500Y-96920578D02*
X145911500Y-96403422D01*
X147331500Y-96920578D02*
X147331500Y-96403422D01*
X147331500Y-92768922D02*
X147331500Y-93286078D01*
X145911500Y-92768922D02*
X145911500Y-93286078D01*
X157723578Y-86158000D02*
X157206422Y-86158000D01*
X157723578Y-87578000D02*
X157206422Y-87578000D01*
X157237500Y-90800422D02*
X157237500Y-91317578D01*
X155817500Y-90800422D02*
X155817500Y-91317578D01*
X141525000Y-107375000D02*
X135555000Y-107375000D01*
X135555000Y-107375000D02*
X135555000Y-117495000D01*
X135555000Y-117495000D02*
X141525000Y-117495000D01*
X141525000Y-117495000D02*
X141525000Y-107375000D01*
X141515000Y-110685000D02*
X140765000Y-110685000D01*
X140765000Y-110685000D02*
X140765000Y-114185000D01*
X140765000Y-114185000D02*
X141515000Y-114185000D01*
X141515000Y-114185000D02*
X141515000Y-110685000D01*
X141515000Y-107385000D02*
X140765000Y-107385000D01*
X140765000Y-107385000D02*
X140765000Y-109185000D01*
X140765000Y-109185000D02*
X141515000Y-109185000D01*
X141515000Y-109185000D02*
X141515000Y-107385000D01*
X141515000Y-115685000D02*
X140765000Y-115685000D01*
X140765000Y-115685000D02*
X140765000Y-117485000D01*
X140765000Y-117485000D02*
X141515000Y-117485000D01*
X141515000Y-117485000D02*
X141515000Y-115685000D01*
X139265000Y-107385000D02*
X139265000Y-108135000D01*
X139265000Y-108135000D02*
X136315000Y-108135000D01*
X136315000Y-108135000D02*
X136315000Y-112435000D01*
X139265000Y-117485000D02*
X139265000Y-116735000D01*
X139265000Y-116735000D02*
X136315000Y-116735000D01*
X136315000Y-116735000D02*
X136315000Y-112435000D01*
X141815000Y-108335000D02*
X141815000Y-107085000D01*
X141815000Y-107085000D02*
X140565000Y-107085000D01*
X148888000Y-115245000D02*
X150138000Y-115245000D01*
X148888000Y-113995000D02*
X148888000Y-115245000D01*
X154388000Y-105595000D02*
X154388000Y-109895000D01*
X151438000Y-105595000D02*
X154388000Y-105595000D01*
X151438000Y-104845000D02*
X151438000Y-105595000D01*
X154388000Y-114195000D02*
X154388000Y-109895000D01*
X151438000Y-114195000D02*
X154388000Y-114195000D01*
X151438000Y-114945000D02*
X151438000Y-114195000D01*
X149188000Y-104845000D02*
X149188000Y-106645000D01*
X149938000Y-104845000D02*
X149188000Y-104845000D01*
X149938000Y-106645000D02*
X149938000Y-104845000D01*
X149188000Y-106645000D02*
X149938000Y-106645000D01*
X149188000Y-113145000D02*
X149188000Y-114945000D01*
X149938000Y-113145000D02*
X149188000Y-113145000D01*
X149938000Y-114945000D02*
X149938000Y-113145000D01*
X149188000Y-114945000D02*
X149938000Y-114945000D01*
X149188000Y-108145000D02*
X149188000Y-111645000D01*
X149938000Y-108145000D02*
X149188000Y-108145000D01*
X149938000Y-111645000D02*
X149938000Y-108145000D01*
X149188000Y-111645000D02*
X149938000Y-111645000D01*
X149178000Y-104835000D02*
X149178000Y-114955000D01*
X155148000Y-104835000D02*
X149178000Y-104835000D01*
X155148000Y-114955000D02*
X155148000Y-104835000D01*
X149178000Y-114955000D02*
X155148000Y-114955000D01*
X138383000Y-98151000D02*
X144353000Y-98151000D01*
X144353000Y-98151000D02*
X144353000Y-88031000D01*
X144353000Y-88031000D02*
X138383000Y-88031000D01*
X138383000Y-88031000D02*
X138383000Y-98151000D01*
X138393000Y-94841000D02*
X139143000Y-94841000D01*
X139143000Y-94841000D02*
X139143000Y-91341000D01*
X139143000Y-91341000D02*
X138393000Y-91341000D01*
X138393000Y-91341000D02*
X138393000Y-94841000D01*
X138393000Y-98141000D02*
X139143000Y-98141000D01*
X139143000Y-98141000D02*
X139143000Y-96341000D01*
X139143000Y-96341000D02*
X138393000Y-96341000D01*
X138393000Y-96341000D02*
X138393000Y-98141000D01*
X138393000Y-89841000D02*
X139143000Y-89841000D01*
X139143000Y-89841000D02*
X139143000Y-88041000D01*
X139143000Y-88041000D02*
X138393000Y-88041000D01*
X138393000Y-88041000D02*
X138393000Y-89841000D01*
X140643000Y-98141000D02*
X140643000Y-97391000D01*
X140643000Y-97391000D02*
X143593000Y-97391000D01*
X143593000Y-97391000D02*
X143593000Y-93091000D01*
X140643000Y-88041000D02*
X140643000Y-88791000D01*
X140643000Y-88791000D02*
X143593000Y-88791000D01*
X143593000Y-88791000D02*
X143593000Y-93091000D01*
X138093000Y-97191000D02*
X138093000Y-98441000D01*
X138093000Y-98441000D02*
X139343000Y-98441000D01*
X128524000Y-105811000D02*
X130474000Y-105811000D01*
X128524000Y-105811000D02*
X126574000Y-105811000D01*
X128524000Y-100691000D02*
X130474000Y-100691000D01*
X128524000Y-100691000D02*
X125074000Y-100691000D01*
D13*
X110307380Y-104482166D02*
X109831190Y-104815500D01*
X110307380Y-105053595D02*
X109307380Y-105053595D01*
X109307380Y-104672642D01*
X109355000Y-104577404D01*
X109402619Y-104529785D01*
X109497857Y-104482166D01*
X109640714Y-104482166D01*
X109735952Y-104529785D01*
X109783571Y-104577404D01*
X109831190Y-104672642D01*
X109831190Y-105053595D01*
X109307380Y-103625023D02*
X109307380Y-103815500D01*
X109355000Y-103910738D01*
X109402619Y-103958357D01*
X109545476Y-104053595D01*
X109735952Y-104101214D01*
X110116904Y-104101214D01*
X110212142Y-104053595D01*
X110259761Y-104005976D01*
X110307380Y-103910738D01*
X110307380Y-103720261D01*
X110259761Y-103625023D01*
X110212142Y-103577404D01*
X110116904Y-103529785D01*
X109878809Y-103529785D01*
X109783571Y-103577404D01*
X109735952Y-103625023D01*
X109688333Y-103720261D01*
X109688333Y-103910738D01*
X109735952Y-104005976D01*
X109783571Y-104053595D01*
X109878809Y-104101214D01*
X120180833Y-109958142D02*
X120133214Y-110005761D01*
X119990357Y-110053380D01*
X119895119Y-110053380D01*
X119752261Y-110005761D01*
X119657023Y-109910523D01*
X119609404Y-109815285D01*
X119561785Y-109624809D01*
X119561785Y-109481952D01*
X119609404Y-109291476D01*
X119657023Y-109196238D01*
X119752261Y-109101000D01*
X119895119Y-109053380D01*
X119990357Y-109053380D01*
X120133214Y-109101000D01*
X120180833Y-109148619D01*
X121133214Y-110053380D02*
X120561785Y-110053380D01*
X120847500Y-110053380D02*
X120847500Y-109053380D01*
X120752261Y-109196238D01*
X120657023Y-109291476D01*
X120561785Y-109339095D01*
X114785142Y-96735166D02*
X114832761Y-96782785D01*
X114880380Y-96925642D01*
X114880380Y-97020880D01*
X114832761Y-97163738D01*
X114737523Y-97258976D01*
X114642285Y-97306595D01*
X114451809Y-97354214D01*
X114308952Y-97354214D01*
X114118476Y-97306595D01*
X114023238Y-97258976D01*
X113928000Y-97163738D01*
X113880380Y-97020880D01*
X113880380Y-96925642D01*
X113928000Y-96782785D01*
X113975619Y-96735166D01*
X113975619Y-96354214D02*
X113928000Y-96306595D01*
X113880380Y-96211357D01*
X113880380Y-95973261D01*
X113928000Y-95878023D01*
X113975619Y-95830404D01*
X114070857Y-95782785D01*
X114166095Y-95782785D01*
X114308952Y-95830404D01*
X114880380Y-96401833D01*
X114880380Y-95782785D01*
X119007833Y-99543142D02*
X118960214Y-99590761D01*
X118817357Y-99638380D01*
X118722119Y-99638380D01*
X118579261Y-99590761D01*
X118484023Y-99495523D01*
X118436404Y-99400285D01*
X118388785Y-99209809D01*
X118388785Y-99066952D01*
X118436404Y-98876476D01*
X118484023Y-98781238D01*
X118579261Y-98686000D01*
X118722119Y-98638380D01*
X118817357Y-98638380D01*
X118960214Y-98686000D01*
X119007833Y-98733619D01*
X119341166Y-98638380D02*
X119960214Y-98638380D01*
X119626880Y-99019333D01*
X119769738Y-99019333D01*
X119864976Y-99066952D01*
X119912595Y-99114571D01*
X119960214Y-99209809D01*
X119960214Y-99447904D01*
X119912595Y-99543142D01*
X119864976Y-99590761D01*
X119769738Y-99638380D01*
X119484023Y-99638380D01*
X119388785Y-99590761D01*
X119341166Y-99543142D01*
X125326142Y-108165166D02*
X125373761Y-108212785D01*
X125421380Y-108355642D01*
X125421380Y-108450880D01*
X125373761Y-108593738D01*
X125278523Y-108688976D01*
X125183285Y-108736595D01*
X124992809Y-108784214D01*
X124849952Y-108784214D01*
X124659476Y-108736595D01*
X124564238Y-108688976D01*
X124469000Y-108593738D01*
X124421380Y-108450880D01*
X124421380Y-108355642D01*
X124469000Y-108212785D01*
X124516619Y-108165166D01*
X124754714Y-107308023D02*
X125421380Y-107308023D01*
X124373761Y-107546119D02*
X125088047Y-107784214D01*
X125088047Y-107165166D01*
X136119142Y-102577166D02*
X136166761Y-102624785D01*
X136214380Y-102767642D01*
X136214380Y-102862880D01*
X136166761Y-103005738D01*
X136071523Y-103100976D01*
X135976285Y-103148595D01*
X135785809Y-103196214D01*
X135642952Y-103196214D01*
X135452476Y-103148595D01*
X135357238Y-103100976D01*
X135262000Y-103005738D01*
X135214380Y-102862880D01*
X135214380Y-102767642D01*
X135262000Y-102624785D01*
X135309619Y-102577166D01*
X135214380Y-101672404D02*
X135214380Y-102148595D01*
X135690571Y-102196214D01*
X135642952Y-102148595D01*
X135595333Y-102053357D01*
X135595333Y-101815261D01*
X135642952Y-101720023D01*
X135690571Y-101672404D01*
X135785809Y-101624785D01*
X136023904Y-101624785D01*
X136119142Y-101672404D01*
X136166761Y-101720023D01*
X136214380Y-101815261D01*
X136214380Y-102053357D01*
X136166761Y-102148595D01*
X136119142Y-102196214D01*
X135898833Y-88623142D02*
X135851214Y-88670761D01*
X135708357Y-88718380D01*
X135613119Y-88718380D01*
X135470261Y-88670761D01*
X135375023Y-88575523D01*
X135327404Y-88480285D01*
X135279785Y-88289809D01*
X135279785Y-88146952D01*
X135327404Y-87956476D01*
X135375023Y-87861238D01*
X135470261Y-87766000D01*
X135613119Y-87718380D01*
X135708357Y-87718380D01*
X135851214Y-87766000D01*
X135898833Y-87813619D01*
X136755976Y-87718380D02*
X136565500Y-87718380D01*
X136470261Y-87766000D01*
X136422642Y-87813619D01*
X136327404Y-87956476D01*
X136279785Y-88146952D01*
X136279785Y-88527904D01*
X136327404Y-88623142D01*
X136375023Y-88670761D01*
X136470261Y-88718380D01*
X136660738Y-88718380D01*
X136755976Y-88670761D01*
X136803595Y-88623142D01*
X136851214Y-88527904D01*
X136851214Y-88289809D01*
X136803595Y-88194571D01*
X136755976Y-88146952D01*
X136660738Y-88099333D01*
X136470261Y-88099333D01*
X136375023Y-88146952D01*
X136327404Y-88194571D01*
X136279785Y-88289809D01*
X131991833Y-88623142D02*
X131944214Y-88670761D01*
X131801357Y-88718380D01*
X131706119Y-88718380D01*
X131563261Y-88670761D01*
X131468023Y-88575523D01*
X131420404Y-88480285D01*
X131372785Y-88289809D01*
X131372785Y-88146952D01*
X131420404Y-87956476D01*
X131468023Y-87861238D01*
X131563261Y-87766000D01*
X131706119Y-87718380D01*
X131801357Y-87718380D01*
X131944214Y-87766000D01*
X131991833Y-87813619D01*
X132325166Y-87718380D02*
X132991833Y-87718380D01*
X132563261Y-88718380D01*
X132565142Y-115404166D02*
X132612761Y-115451785D01*
X132660380Y-115594642D01*
X132660380Y-115689880D01*
X132612761Y-115832738D01*
X132517523Y-115927976D01*
X132422285Y-115975595D01*
X132231809Y-116023214D01*
X132088952Y-116023214D01*
X131898476Y-115975595D01*
X131803238Y-115927976D01*
X131708000Y-115832738D01*
X131660380Y-115689880D01*
X131660380Y-115594642D01*
X131708000Y-115451785D01*
X131755619Y-115404166D01*
X132088952Y-114832738D02*
X132041333Y-114927976D01*
X131993714Y-114975595D01*
X131898476Y-115023214D01*
X131850857Y-115023214D01*
X131755619Y-114975595D01*
X131708000Y-114927976D01*
X131660380Y-114832738D01*
X131660380Y-114642261D01*
X131708000Y-114547023D01*
X131755619Y-114499404D01*
X131850857Y-114451785D01*
X131898476Y-114451785D01*
X131993714Y-114499404D01*
X132041333Y-114547023D01*
X132088952Y-114642261D01*
X132088952Y-114832738D01*
X132136571Y-114927976D01*
X132184190Y-114975595D01*
X132279428Y-115023214D01*
X132469904Y-115023214D01*
X132565142Y-114975595D01*
X132612761Y-114927976D01*
X132660380Y-114832738D01*
X132660380Y-114642261D01*
X132612761Y-114547023D01*
X132565142Y-114499404D01*
X132469904Y-114451785D01*
X132279428Y-114451785D01*
X132184190Y-114499404D01*
X132136571Y-114547023D01*
X132088952Y-114642261D01*
X145272333Y-115952142D02*
X145224714Y-115999761D01*
X145081857Y-116047380D01*
X144986619Y-116047380D01*
X144843761Y-115999761D01*
X144748523Y-115904523D01*
X144700904Y-115809285D01*
X144653285Y-115618809D01*
X144653285Y-115475952D01*
X144700904Y-115285476D01*
X144748523Y-115190238D01*
X144843761Y-115095000D01*
X144986619Y-115047380D01*
X145081857Y-115047380D01*
X145224714Y-115095000D01*
X145272333Y-115142619D01*
X145748523Y-116047380D02*
X145939000Y-116047380D01*
X146034238Y-115999761D01*
X146081857Y-115952142D01*
X146177095Y-115809285D01*
X146224714Y-115618809D01*
X146224714Y-115237857D01*
X146177095Y-115142619D01*
X146129476Y-115095000D01*
X146034238Y-115047380D01*
X145843761Y-115047380D01*
X145748523Y-115095000D01*
X145700904Y-115142619D01*
X145653285Y-115237857D01*
X145653285Y-115475952D01*
X145700904Y-115571190D01*
X145748523Y-115618809D01*
X145843761Y-115666428D01*
X146034238Y-115666428D01*
X146129476Y-115618809D01*
X146177095Y-115571190D01*
X146224714Y-115475952D01*
X155043142Y-101353857D02*
X155090761Y-101401476D01*
X155138380Y-101544333D01*
X155138380Y-101639571D01*
X155090761Y-101782428D01*
X154995523Y-101877666D01*
X154900285Y-101925285D01*
X154709809Y-101972904D01*
X154566952Y-101972904D01*
X154376476Y-101925285D01*
X154281238Y-101877666D01*
X154186000Y-101782428D01*
X154138380Y-101639571D01*
X154138380Y-101544333D01*
X154186000Y-101401476D01*
X154233619Y-101353857D01*
X155138380Y-100401476D02*
X155138380Y-100972904D01*
X155138380Y-100687190D02*
X154138380Y-100687190D01*
X154281238Y-100782428D01*
X154376476Y-100877666D01*
X154424095Y-100972904D01*
X154138380Y-99782428D02*
X154138380Y-99687190D01*
X154186000Y-99591952D01*
X154233619Y-99544333D01*
X154328857Y-99496714D01*
X154519333Y-99449095D01*
X154757428Y-99449095D01*
X154947904Y-99496714D01*
X155043142Y-99544333D01*
X155090761Y-99591952D01*
X155138380Y-99687190D01*
X155138380Y-99782428D01*
X155090761Y-99877666D01*
X155043142Y-99925285D01*
X154947904Y-99972904D01*
X154757428Y-100020523D01*
X154519333Y-100020523D01*
X154328857Y-99972904D01*
X154233619Y-99925285D01*
X154186000Y-99877666D01*
X154138380Y-99782428D01*
X145899142Y-105798857D02*
X145946761Y-105846476D01*
X145994380Y-105989333D01*
X145994380Y-106084571D01*
X145946761Y-106227428D01*
X145851523Y-106322666D01*
X145756285Y-106370285D01*
X145565809Y-106417904D01*
X145422952Y-106417904D01*
X145232476Y-106370285D01*
X145137238Y-106322666D01*
X145042000Y-106227428D01*
X144994380Y-106084571D01*
X144994380Y-105989333D01*
X145042000Y-105846476D01*
X145089619Y-105798857D01*
X145994380Y-104846476D02*
X145994380Y-105417904D01*
X145994380Y-105132190D02*
X144994380Y-105132190D01*
X145137238Y-105227428D01*
X145232476Y-105322666D01*
X145280095Y-105417904D01*
X145994380Y-103894095D02*
X145994380Y-104465523D01*
X145994380Y-104179809D02*
X144994380Y-104179809D01*
X145137238Y-104275047D01*
X145232476Y-104370285D01*
X145280095Y-104465523D01*
X155424142Y-88780857D02*
X155471761Y-88828476D01*
X155519380Y-88971333D01*
X155519380Y-89066571D01*
X155471761Y-89209428D01*
X155376523Y-89304666D01*
X155281285Y-89352285D01*
X155090809Y-89399904D01*
X154947952Y-89399904D01*
X154757476Y-89352285D01*
X154662238Y-89304666D01*
X154567000Y-89209428D01*
X154519380Y-89066571D01*
X154519380Y-88971333D01*
X154567000Y-88828476D01*
X154614619Y-88780857D01*
X155519380Y-87828476D02*
X155519380Y-88399904D01*
X155519380Y-88114190D02*
X154519380Y-88114190D01*
X154662238Y-88209428D01*
X154757476Y-88304666D01*
X154805095Y-88399904D01*
X154614619Y-87447523D02*
X154567000Y-87399904D01*
X154519380Y-87304666D01*
X154519380Y-87066571D01*
X154567000Y-86971333D01*
X154614619Y-86923714D01*
X154709857Y-86876095D01*
X154805095Y-86876095D01*
X154947952Y-86923714D01*
X155519380Y-87495142D01*
X155519380Y-86876095D01*
X148628642Y-90050857D02*
X148676261Y-90098476D01*
X148723880Y-90241333D01*
X148723880Y-90336571D01*
X148676261Y-90479428D01*
X148581023Y-90574666D01*
X148485785Y-90622285D01*
X148295309Y-90669904D01*
X148152452Y-90669904D01*
X147961976Y-90622285D01*
X147866738Y-90574666D01*
X147771500Y-90479428D01*
X147723880Y-90336571D01*
X147723880Y-90241333D01*
X147771500Y-90098476D01*
X147819119Y-90050857D01*
X148723880Y-89098476D02*
X148723880Y-89669904D01*
X148723880Y-89384190D02*
X147723880Y-89384190D01*
X147866738Y-89479428D01*
X147961976Y-89574666D01*
X148009595Y-89669904D01*
X147723880Y-88765142D02*
X147723880Y-88146095D01*
X148104833Y-88479428D01*
X148104833Y-88336571D01*
X148152452Y-88241333D01*
X148200071Y-88193714D01*
X148295309Y-88146095D01*
X148533404Y-88146095D01*
X148628642Y-88193714D01*
X148676261Y-88241333D01*
X148723880Y-88336571D01*
X148723880Y-88622285D01*
X148676261Y-88717523D01*
X148628642Y-88765142D01*
X119650380Y-115122095D02*
X118650380Y-115122095D01*
X118650380Y-114884000D01*
X118698000Y-114741142D01*
X118793238Y-114645904D01*
X118888476Y-114598285D01*
X119078952Y-114550666D01*
X119221809Y-114550666D01*
X119412285Y-114598285D01*
X119507523Y-114645904D01*
X119602761Y-114741142D01*
X119650380Y-114884000D01*
X119650380Y-115122095D01*
X119650380Y-113598285D02*
X119650380Y-114169714D01*
X119650380Y-113884000D02*
X118650380Y-113884000D01*
X118793238Y-113979238D01*
X118888476Y-114074476D01*
X118936095Y-114169714D01*
X124434380Y-107229095D02*
X123434380Y-107229095D01*
X123434380Y-106991000D01*
X123482000Y-106848142D01*
X123577238Y-106752904D01*
X123672476Y-106705285D01*
X123862952Y-106657666D01*
X124005809Y-106657666D01*
X124196285Y-106705285D01*
X124291523Y-106752904D01*
X124386761Y-106848142D01*
X124434380Y-106991000D01*
X124434380Y-107229095D01*
X123529619Y-106276714D02*
X123482000Y-106229095D01*
X123434380Y-106133857D01*
X123434380Y-105895761D01*
X123482000Y-105800523D01*
X123529619Y-105752904D01*
X123624857Y-105705285D01*
X123720095Y-105705285D01*
X123862952Y-105752904D01*
X124434380Y-106324333D01*
X124434380Y-105705285D01*
X123213904Y-86431380D02*
X123213904Y-85431380D01*
X123452000Y-85431380D01*
X123594857Y-85479000D01*
X123690095Y-85574238D01*
X123737714Y-85669476D01*
X123785333Y-85859952D01*
X123785333Y-86002809D01*
X123737714Y-86193285D01*
X123690095Y-86288523D01*
X123594857Y-86383761D01*
X123452000Y-86431380D01*
X123213904Y-86431380D01*
X124118666Y-85431380D02*
X124737714Y-85431380D01*
X124404380Y-85812333D01*
X124547238Y-85812333D01*
X124642476Y-85859952D01*
X124690095Y-85907571D01*
X124737714Y-86002809D01*
X124737714Y-86240904D01*
X124690095Y-86336142D01*
X124642476Y-86383761D01*
X124547238Y-86431380D01*
X124261523Y-86431380D01*
X124166285Y-86383761D01*
X124118666Y-86336142D01*
X162052095Y-95150380D02*
X162052095Y-94150380D01*
X162052095Y-94626571D02*
X162623523Y-94626571D01*
X162623523Y-95150380D02*
X162623523Y-94150380D01*
X163623523Y-95150380D02*
X163052095Y-95150380D01*
X163337809Y-95150380D02*
X163337809Y-94150380D01*
X163242571Y-94293238D01*
X163147333Y-94388476D01*
X163052095Y-94436095D01*
X108170380Y-112748333D02*
X108884666Y-112748333D01*
X109027523Y-112795952D01*
X109122761Y-112891190D01*
X109170380Y-113034047D01*
X109170380Y-113129285D01*
X109170380Y-111748333D02*
X109170380Y-112319761D01*
X109170380Y-112034047D02*
X108170380Y-112034047D01*
X108313238Y-112129285D01*
X108408476Y-112224523D01*
X108456095Y-112319761D01*
X160805880Y-90503333D02*
X161520166Y-90503333D01*
X161663023Y-90550952D01*
X161758261Y-90646190D01*
X161805880Y-90789047D01*
X161805880Y-90884285D01*
X160805880Y-90122380D02*
X160805880Y-89503333D01*
X161186833Y-89836666D01*
X161186833Y-89693809D01*
X161234452Y-89598571D01*
X161282071Y-89550952D01*
X161377309Y-89503333D01*
X161615404Y-89503333D01*
X161710642Y-89550952D01*
X161758261Y-89598571D01*
X161805880Y-89693809D01*
X161805880Y-89979523D01*
X161758261Y-90074761D01*
X161710642Y-90122380D01*
X128682761Y-117387619D02*
X128587523Y-117340000D01*
X128492285Y-117244761D01*
X128349428Y-117101904D01*
X128254190Y-117054285D01*
X128158952Y-117054285D01*
X128206571Y-117292380D02*
X128111333Y-117244761D01*
X128016095Y-117149523D01*
X127968476Y-116959047D01*
X127968476Y-116625714D01*
X128016095Y-116435238D01*
X128111333Y-116340000D01*
X128206571Y-116292380D01*
X128397047Y-116292380D01*
X128492285Y-116340000D01*
X128587523Y-116435238D01*
X128635142Y-116625714D01*
X128635142Y-116959047D01*
X128587523Y-117149523D01*
X128492285Y-117244761D01*
X128397047Y-117292380D01*
X128206571Y-117292380D01*
X129587523Y-117292380D02*
X129016095Y-117292380D01*
X129301809Y-117292380D02*
X129301809Y-116292380D01*
X129206571Y-116435238D01*
X129111333Y-116530476D01*
X129016095Y-116578095D01*
X116375619Y-92551238D02*
X116328000Y-92646476D01*
X116232761Y-92741714D01*
X116089904Y-92884571D01*
X116042285Y-92979809D01*
X116042285Y-93075047D01*
X116280380Y-93027428D02*
X116232761Y-93122666D01*
X116137523Y-93217904D01*
X115947047Y-93265523D01*
X115613714Y-93265523D01*
X115423238Y-93217904D01*
X115328000Y-93122666D01*
X115280380Y-93027428D01*
X115280380Y-92836952D01*
X115328000Y-92741714D01*
X115423238Y-92646476D01*
X115613714Y-92598857D01*
X115947047Y-92598857D01*
X116137523Y-92646476D01*
X116232761Y-92741714D01*
X116280380Y-92836952D01*
X116280380Y-93027428D01*
X115375619Y-92217904D02*
X115328000Y-92170285D01*
X115280380Y-92075047D01*
X115280380Y-91836952D01*
X115328000Y-91741714D01*
X115375619Y-91694095D01*
X115470857Y-91646476D01*
X115566095Y-91646476D01*
X115708952Y-91694095D01*
X116280380Y-92265523D01*
X116280380Y-91646476D01*
X112811619Y-101441238D02*
X112764000Y-101536476D01*
X112668761Y-101631714D01*
X112525904Y-101774571D01*
X112478285Y-101869809D01*
X112478285Y-101965047D01*
X112716380Y-101917428D02*
X112668761Y-102012666D01*
X112573523Y-102107904D01*
X112383047Y-102155523D01*
X112049714Y-102155523D01*
X111859238Y-102107904D01*
X111764000Y-102012666D01*
X111716380Y-101917428D01*
X111716380Y-101726952D01*
X111764000Y-101631714D01*
X111859238Y-101536476D01*
X112049714Y-101488857D01*
X112383047Y-101488857D01*
X112573523Y-101536476D01*
X112668761Y-101631714D01*
X112716380Y-101726952D01*
X112716380Y-101917428D01*
X111716380Y-101155523D02*
X111716380Y-100536476D01*
X112097333Y-100869809D01*
X112097333Y-100726952D01*
X112144952Y-100631714D01*
X112192571Y-100584095D01*
X112287809Y-100536476D01*
X112525904Y-100536476D01*
X112621142Y-100584095D01*
X112668761Y-100631714D01*
X112716380Y-100726952D01*
X112716380Y-101012666D01*
X112668761Y-101107904D01*
X112621142Y-101155523D01*
X119284761Y-96432619D02*
X119189523Y-96385000D01*
X119094285Y-96289761D01*
X118951428Y-96146904D01*
X118856190Y-96099285D01*
X118760952Y-96099285D01*
X118808571Y-96337380D02*
X118713333Y-96289761D01*
X118618095Y-96194523D01*
X118570476Y-96004047D01*
X118570476Y-95670714D01*
X118618095Y-95480238D01*
X118713333Y-95385000D01*
X118808571Y-95337380D01*
X118999047Y-95337380D01*
X119094285Y-95385000D01*
X119189523Y-95480238D01*
X119237142Y-95670714D01*
X119237142Y-96004047D01*
X119189523Y-96194523D01*
X119094285Y-96289761D01*
X118999047Y-96337380D01*
X118808571Y-96337380D01*
X120094285Y-95670714D02*
X120094285Y-96337380D01*
X119856190Y-95289761D02*
X119618095Y-96004047D01*
X120237142Y-96004047D01*
X131996619Y-93821238D02*
X131949000Y-93916476D01*
X131853761Y-94011714D01*
X131710904Y-94154571D01*
X131663285Y-94249809D01*
X131663285Y-94345047D01*
X131901380Y-94297428D02*
X131853761Y-94392666D01*
X131758523Y-94487904D01*
X131568047Y-94535523D01*
X131234714Y-94535523D01*
X131044238Y-94487904D01*
X130949000Y-94392666D01*
X130901380Y-94297428D01*
X130901380Y-94106952D01*
X130949000Y-94011714D01*
X131044238Y-93916476D01*
X131234714Y-93868857D01*
X131568047Y-93868857D01*
X131758523Y-93916476D01*
X131853761Y-94011714D01*
X131901380Y-94106952D01*
X131901380Y-94297428D01*
X130901380Y-92964095D02*
X130901380Y-93440285D01*
X131377571Y-93487904D01*
X131329952Y-93440285D01*
X131282333Y-93345047D01*
X131282333Y-93106952D01*
X131329952Y-93011714D01*
X131377571Y-92964095D01*
X131472809Y-92916476D01*
X131710904Y-92916476D01*
X131806142Y-92964095D01*
X131853761Y-93011714D01*
X131901380Y-93106952D01*
X131901380Y-93345047D01*
X131853761Y-93440285D01*
X131806142Y-93487904D01*
X155297119Y-94837238D02*
X155249500Y-94932476D01*
X155154261Y-95027714D01*
X155011404Y-95170571D01*
X154963785Y-95265809D01*
X154963785Y-95361047D01*
X155201880Y-95313428D02*
X155154261Y-95408666D01*
X155059023Y-95503904D01*
X154868547Y-95551523D01*
X154535214Y-95551523D01*
X154344738Y-95503904D01*
X154249500Y-95408666D01*
X154201880Y-95313428D01*
X154201880Y-95122952D01*
X154249500Y-95027714D01*
X154344738Y-94932476D01*
X154535214Y-94884857D01*
X154868547Y-94884857D01*
X155059023Y-94932476D01*
X155154261Y-95027714D01*
X155201880Y-95122952D01*
X155201880Y-95313428D01*
X154201880Y-94027714D02*
X154201880Y-94218190D01*
X154249500Y-94313428D01*
X154297119Y-94361047D01*
X154439976Y-94456285D01*
X154630452Y-94503904D01*
X155011404Y-94503904D01*
X155106642Y-94456285D01*
X155154261Y-94408666D01*
X155201880Y-94313428D01*
X155201880Y-94122952D01*
X155154261Y-94027714D01*
X155106642Y-93980095D01*
X155011404Y-93932476D01*
X154773309Y-93932476D01*
X154678071Y-93980095D01*
X154630452Y-94027714D01*
X154582833Y-94122952D01*
X154582833Y-94313428D01*
X154630452Y-94408666D01*
X154678071Y-94456285D01*
X154773309Y-94503904D01*
X121736380Y-114515166D02*
X121260190Y-114848500D01*
X121736380Y-115086595D02*
X120736380Y-115086595D01*
X120736380Y-114705642D01*
X120784000Y-114610404D01*
X120831619Y-114562785D01*
X120926857Y-114515166D01*
X121069714Y-114515166D01*
X121164952Y-114562785D01*
X121212571Y-114610404D01*
X121260190Y-114705642D01*
X121260190Y-115086595D01*
X121736380Y-113562785D02*
X121736380Y-114134214D01*
X121736380Y-113848500D02*
X120736380Y-113848500D01*
X120879238Y-113943738D01*
X120974476Y-114038976D01*
X121022095Y-114134214D01*
X113608380Y-97624166D02*
X113132190Y-97957500D01*
X113608380Y-98195595D02*
X112608380Y-98195595D01*
X112608380Y-97814642D01*
X112656000Y-97719404D01*
X112703619Y-97671785D01*
X112798857Y-97624166D01*
X112941714Y-97624166D01*
X113036952Y-97671785D01*
X113084571Y-97719404D01*
X113132190Y-97814642D01*
X113132190Y-98195595D01*
X112703619Y-97243214D02*
X112656000Y-97195595D01*
X112608380Y-97100357D01*
X112608380Y-96862261D01*
X112656000Y-96767023D01*
X112703619Y-96719404D01*
X112798857Y-96671785D01*
X112894095Y-96671785D01*
X113036952Y-96719404D01*
X113608380Y-97290833D01*
X113608380Y-96671785D01*
X123990833Y-110117880D02*
X123657500Y-109641690D01*
X123419404Y-110117880D02*
X123419404Y-109117880D01*
X123800357Y-109117880D01*
X123895595Y-109165500D01*
X123943214Y-109213119D01*
X123990833Y-109308357D01*
X123990833Y-109451214D01*
X123943214Y-109546452D01*
X123895595Y-109594071D01*
X123800357Y-109641690D01*
X123419404Y-109641690D01*
X124324166Y-109117880D02*
X124943214Y-109117880D01*
X124609880Y-109498833D01*
X124752738Y-109498833D01*
X124847976Y-109546452D01*
X124895595Y-109594071D01*
X124943214Y-109689309D01*
X124943214Y-109927404D01*
X124895595Y-110022642D01*
X124847976Y-110070261D01*
X124752738Y-110117880D01*
X124467023Y-110117880D01*
X124371785Y-110070261D01*
X124324166Y-110022642D01*
X123642380Y-114515166D02*
X123166190Y-114848500D01*
X123642380Y-115086595D02*
X122642380Y-115086595D01*
X122642380Y-114705642D01*
X122690000Y-114610404D01*
X122737619Y-114562785D01*
X122832857Y-114515166D01*
X122975714Y-114515166D01*
X123070952Y-114562785D01*
X123118571Y-114610404D01*
X123166190Y-114705642D01*
X123166190Y-115086595D01*
X122975714Y-113658023D02*
X123642380Y-113658023D01*
X122594761Y-113896119D02*
X123309047Y-114134214D01*
X123309047Y-113515166D01*
X111070380Y-88099166D02*
X110594190Y-88432500D01*
X111070380Y-88670595D02*
X110070380Y-88670595D01*
X110070380Y-88289642D01*
X110118000Y-88194404D01*
X110165619Y-88146785D01*
X110260857Y-88099166D01*
X110403714Y-88099166D01*
X110498952Y-88146785D01*
X110546571Y-88194404D01*
X110594190Y-88289642D01*
X110594190Y-88670595D01*
X110070380Y-87194404D02*
X110070380Y-87670595D01*
X110546571Y-87718214D01*
X110498952Y-87670595D01*
X110451333Y-87575357D01*
X110451333Y-87337261D01*
X110498952Y-87242023D01*
X110546571Y-87194404D01*
X110641809Y-87146785D01*
X110879904Y-87146785D01*
X110975142Y-87194404D01*
X111022761Y-87242023D01*
X111070380Y-87337261D01*
X111070380Y-87575357D01*
X111022761Y-87670595D01*
X110975142Y-87718214D01*
X117926380Y-106006166D02*
X117450190Y-106339500D01*
X117926380Y-106577595D02*
X116926380Y-106577595D01*
X116926380Y-106196642D01*
X116974000Y-106101404D01*
X117021619Y-106053785D01*
X117116857Y-106006166D01*
X117259714Y-106006166D01*
X117354952Y-106053785D01*
X117402571Y-106101404D01*
X117450190Y-106196642D01*
X117450190Y-106577595D01*
X116926380Y-105672833D02*
X116926380Y-105006166D01*
X117926380Y-105434738D01*
X118307380Y-88129166D02*
X117831190Y-88462500D01*
X118307380Y-88700595D02*
X117307380Y-88700595D01*
X117307380Y-88319642D01*
X117355000Y-88224404D01*
X117402619Y-88176785D01*
X117497857Y-88129166D01*
X117640714Y-88129166D01*
X117735952Y-88176785D01*
X117783571Y-88224404D01*
X117831190Y-88319642D01*
X117831190Y-88700595D01*
X117735952Y-87557738D02*
X117688333Y-87652976D01*
X117640714Y-87700595D01*
X117545476Y-87748214D01*
X117497857Y-87748214D01*
X117402619Y-87700595D01*
X117355000Y-87652976D01*
X117307380Y-87557738D01*
X117307380Y-87367261D01*
X117355000Y-87272023D01*
X117402619Y-87224404D01*
X117497857Y-87176785D01*
X117545476Y-87176785D01*
X117640714Y-87224404D01*
X117688333Y-87272023D01*
X117735952Y-87367261D01*
X117735952Y-87557738D01*
X117783571Y-87652976D01*
X117831190Y-87700595D01*
X117926428Y-87748214D01*
X118116904Y-87748214D01*
X118212142Y-87700595D01*
X118259761Y-87652976D01*
X118307380Y-87557738D01*
X118307380Y-87367261D01*
X118259761Y-87272023D01*
X118212142Y-87224404D01*
X118116904Y-87176785D01*
X117926428Y-87176785D01*
X117831190Y-87224404D01*
X117783571Y-87272023D01*
X117735952Y-87367261D01*
X121609380Y-88129166D02*
X121133190Y-88462500D01*
X121609380Y-88700595D02*
X120609380Y-88700595D01*
X120609380Y-88319642D01*
X120657000Y-88224404D01*
X120704619Y-88176785D01*
X120799857Y-88129166D01*
X120942714Y-88129166D01*
X121037952Y-88176785D01*
X121085571Y-88224404D01*
X121133190Y-88319642D01*
X121133190Y-88700595D01*
X121609380Y-87652976D02*
X121609380Y-87462500D01*
X121561761Y-87367261D01*
X121514142Y-87319642D01*
X121371285Y-87224404D01*
X121180809Y-87176785D01*
X120799857Y-87176785D01*
X120704619Y-87224404D01*
X120657000Y-87272023D01*
X120609380Y-87367261D01*
X120609380Y-87557738D01*
X120657000Y-87652976D01*
X120704619Y-87700595D01*
X120799857Y-87748214D01*
X121037952Y-87748214D01*
X121133190Y-87700595D01*
X121180809Y-87652976D01*
X121228428Y-87557738D01*
X121228428Y-87367261D01*
X121180809Y-87272023D01*
X121133190Y-87224404D01*
X121037952Y-87176785D01*
X119070380Y-104274857D02*
X118594190Y-104608190D01*
X119070380Y-104846285D02*
X118070380Y-104846285D01*
X118070380Y-104465333D01*
X118118000Y-104370095D01*
X118165619Y-104322476D01*
X118260857Y-104274857D01*
X118403714Y-104274857D01*
X118498952Y-104322476D01*
X118546571Y-104370095D01*
X118594190Y-104465333D01*
X118594190Y-104846285D01*
X119070380Y-103322476D02*
X119070380Y-103893904D01*
X119070380Y-103608190D02*
X118070380Y-103608190D01*
X118213238Y-103703428D01*
X118308476Y-103798666D01*
X118356095Y-103893904D01*
X118070380Y-102703428D02*
X118070380Y-102608190D01*
X118118000Y-102512952D01*
X118165619Y-102465333D01*
X118260857Y-102417714D01*
X118451333Y-102370095D01*
X118689428Y-102370095D01*
X118879904Y-102417714D01*
X118975142Y-102465333D01*
X119022761Y-102512952D01*
X119070380Y-102608190D01*
X119070380Y-102703428D01*
X119022761Y-102798666D01*
X118975142Y-102846285D01*
X118879904Y-102893904D01*
X118689428Y-102941523D01*
X118451333Y-102941523D01*
X118260857Y-102893904D01*
X118165619Y-102846285D01*
X118118000Y-102798666D01*
X118070380Y-102703428D01*
X121609380Y-107371357D02*
X121133190Y-107704690D01*
X121609380Y-107942785D02*
X120609380Y-107942785D01*
X120609380Y-107561833D01*
X120657000Y-107466595D01*
X120704619Y-107418976D01*
X120799857Y-107371357D01*
X120942714Y-107371357D01*
X121037952Y-107418976D01*
X121085571Y-107466595D01*
X121133190Y-107561833D01*
X121133190Y-107942785D01*
X121609380Y-106418976D02*
X121609380Y-106990404D01*
X121609380Y-106704690D02*
X120609380Y-106704690D01*
X120752238Y-106799928D01*
X120847476Y-106895166D01*
X120895095Y-106990404D01*
X121609380Y-105466595D02*
X121609380Y-106038023D01*
X121609380Y-105752309D02*
X120609380Y-105752309D01*
X120752238Y-105847547D01*
X120847476Y-105942785D01*
X120895095Y-106038023D01*
X123387642Y-94558380D02*
X123054309Y-94082190D01*
X122816214Y-94558380D02*
X122816214Y-93558380D01*
X123197166Y-93558380D01*
X123292404Y-93606000D01*
X123340023Y-93653619D01*
X123387642Y-93748857D01*
X123387642Y-93891714D01*
X123340023Y-93986952D01*
X123292404Y-94034571D01*
X123197166Y-94082190D01*
X122816214Y-94082190D01*
X124340023Y-94558380D02*
X123768595Y-94558380D01*
X124054309Y-94558380D02*
X124054309Y-93558380D01*
X123959071Y-93701238D01*
X123863833Y-93796476D01*
X123768595Y-93844095D01*
X124720976Y-93653619D02*
X124768595Y-93606000D01*
X124863833Y-93558380D01*
X125101928Y-93558380D01*
X125197166Y-93606000D01*
X125244785Y-93653619D01*
X125292404Y-93748857D01*
X125292404Y-93844095D01*
X125244785Y-93986952D01*
X124673357Y-94558380D01*
X125292404Y-94558380D01*
X123357642Y-91256380D02*
X123024309Y-90780190D01*
X122786214Y-91256380D02*
X122786214Y-90256380D01*
X123167166Y-90256380D01*
X123262404Y-90304000D01*
X123310023Y-90351619D01*
X123357642Y-90446857D01*
X123357642Y-90589714D01*
X123310023Y-90684952D01*
X123262404Y-90732571D01*
X123167166Y-90780190D01*
X122786214Y-90780190D01*
X124310023Y-91256380D02*
X123738595Y-91256380D01*
X124024309Y-91256380D02*
X124024309Y-90256380D01*
X123929071Y-90399238D01*
X123833833Y-90494476D01*
X123738595Y-90542095D01*
X124643357Y-90256380D02*
X125262404Y-90256380D01*
X124929071Y-90637333D01*
X125071928Y-90637333D01*
X125167166Y-90684952D01*
X125214785Y-90732571D01*
X125262404Y-90827809D01*
X125262404Y-91065904D01*
X125214785Y-91161142D01*
X125167166Y-91208761D01*
X125071928Y-91256380D01*
X124786214Y-91256380D01*
X124690976Y-91208761D01*
X124643357Y-91161142D01*
X131515642Y-97227380D02*
X131182309Y-96751190D01*
X130944214Y-97227380D02*
X130944214Y-96227380D01*
X131325166Y-96227380D01*
X131420404Y-96275000D01*
X131468023Y-96322619D01*
X131515642Y-96417857D01*
X131515642Y-96560714D01*
X131468023Y-96655952D01*
X131420404Y-96703571D01*
X131325166Y-96751190D01*
X130944214Y-96751190D01*
X132468023Y-97227380D02*
X131896595Y-97227380D01*
X132182309Y-97227380D02*
X132182309Y-96227380D01*
X132087071Y-96370238D01*
X131991833Y-96465476D01*
X131896595Y-96513095D01*
X133325166Y-96560714D02*
X133325166Y-97227380D01*
X133087071Y-96179761D02*
X132848976Y-96894047D01*
X133468023Y-96894047D01*
X136214380Y-93685357D02*
X135738190Y-94018690D01*
X136214380Y-94256785D02*
X135214380Y-94256785D01*
X135214380Y-93875833D01*
X135262000Y-93780595D01*
X135309619Y-93732976D01*
X135404857Y-93685357D01*
X135547714Y-93685357D01*
X135642952Y-93732976D01*
X135690571Y-93780595D01*
X135738190Y-93875833D01*
X135738190Y-94256785D01*
X136214380Y-92732976D02*
X136214380Y-93304404D01*
X136214380Y-93018690D02*
X135214380Y-93018690D01*
X135357238Y-93113928D01*
X135452476Y-93209166D01*
X135500095Y-93304404D01*
X135214380Y-91828214D02*
X135214380Y-92304404D01*
X135690571Y-92352023D01*
X135642952Y-92304404D01*
X135595333Y-92209166D01*
X135595333Y-91971071D01*
X135642952Y-91875833D01*
X135690571Y-91828214D01*
X135785809Y-91780595D01*
X136023904Y-91780595D01*
X136119142Y-91828214D01*
X136166761Y-91875833D01*
X136214380Y-91971071D01*
X136214380Y-92209166D01*
X136166761Y-92304404D01*
X136119142Y-92352023D01*
X127833380Y-99067857D02*
X127357190Y-99401190D01*
X127833380Y-99639285D02*
X126833380Y-99639285D01*
X126833380Y-99258333D01*
X126881000Y-99163095D01*
X126928619Y-99115476D01*
X127023857Y-99067857D01*
X127166714Y-99067857D01*
X127261952Y-99115476D01*
X127309571Y-99163095D01*
X127357190Y-99258333D01*
X127357190Y-99639285D01*
X127833380Y-98115476D02*
X127833380Y-98686904D01*
X127833380Y-98401190D02*
X126833380Y-98401190D01*
X126976238Y-98496428D01*
X127071476Y-98591666D01*
X127119095Y-98686904D01*
X126833380Y-97258333D02*
X126833380Y-97448809D01*
X126881000Y-97544047D01*
X126928619Y-97591666D01*
X127071476Y-97686904D01*
X127261952Y-97734523D01*
X127642904Y-97734523D01*
X127738142Y-97686904D01*
X127785761Y-97639285D01*
X127833380Y-97544047D01*
X127833380Y-97353571D01*
X127785761Y-97258333D01*
X127738142Y-97210714D01*
X127642904Y-97163095D01*
X127404809Y-97163095D01*
X127309571Y-97210714D01*
X127261952Y-97258333D01*
X127214333Y-97353571D01*
X127214333Y-97544047D01*
X127261952Y-97639285D01*
X127309571Y-97686904D01*
X127404809Y-97734523D01*
X132531642Y-107514380D02*
X132198309Y-107038190D01*
X131960214Y-107514380D02*
X131960214Y-106514380D01*
X132341166Y-106514380D01*
X132436404Y-106562000D01*
X132484023Y-106609619D01*
X132531642Y-106704857D01*
X132531642Y-106847714D01*
X132484023Y-106942952D01*
X132436404Y-106990571D01*
X132341166Y-107038190D01*
X131960214Y-107038190D01*
X133484023Y-107514380D02*
X132912595Y-107514380D01*
X133198309Y-107514380D02*
X133198309Y-106514380D01*
X133103071Y-106657238D01*
X133007833Y-106752476D01*
X132912595Y-106800095D01*
X133817357Y-106514380D02*
X134484023Y-106514380D01*
X134055452Y-107514380D01*
X135454380Y-97465357D02*
X134978190Y-97798690D01*
X135454380Y-98036785D02*
X134454380Y-98036785D01*
X134454380Y-97655833D01*
X134502000Y-97560595D01*
X134549619Y-97512976D01*
X134644857Y-97465357D01*
X134787714Y-97465357D01*
X134882952Y-97512976D01*
X134930571Y-97560595D01*
X134978190Y-97655833D01*
X134978190Y-98036785D01*
X135454380Y-96512976D02*
X135454380Y-97084404D01*
X135454380Y-96798690D02*
X134454380Y-96798690D01*
X134597238Y-96893928D01*
X134692476Y-96989166D01*
X134740095Y-97084404D01*
X134882952Y-95941547D02*
X134835333Y-96036785D01*
X134787714Y-96084404D01*
X134692476Y-96132023D01*
X134644857Y-96132023D01*
X134549619Y-96084404D01*
X134502000Y-96036785D01*
X134454380Y-95941547D01*
X134454380Y-95751071D01*
X134502000Y-95655833D01*
X134549619Y-95608214D01*
X134644857Y-95560595D01*
X134692476Y-95560595D01*
X134787714Y-95608214D01*
X134835333Y-95655833D01*
X134882952Y-95751071D01*
X134882952Y-95941547D01*
X134930571Y-96036785D01*
X134978190Y-96084404D01*
X135073428Y-96132023D01*
X135263904Y-96132023D01*
X135359142Y-96084404D01*
X135406761Y-96036785D01*
X135454380Y-95941547D01*
X135454380Y-95751071D01*
X135406761Y-95655833D01*
X135359142Y-95608214D01*
X135263904Y-95560595D01*
X135073428Y-95560595D01*
X134978190Y-95608214D01*
X134930571Y-95655833D01*
X134882952Y-95751071D01*
X132659380Y-112118857D02*
X132183190Y-112452190D01*
X132659380Y-112690285D02*
X131659380Y-112690285D01*
X131659380Y-112309333D01*
X131707000Y-112214095D01*
X131754619Y-112166476D01*
X131849857Y-112118857D01*
X131992714Y-112118857D01*
X132087952Y-112166476D01*
X132135571Y-112214095D01*
X132183190Y-112309333D01*
X132183190Y-112690285D01*
X132659380Y-111166476D02*
X132659380Y-111737904D01*
X132659380Y-111452190D02*
X131659380Y-111452190D01*
X131802238Y-111547428D01*
X131897476Y-111642666D01*
X131945095Y-111737904D01*
X132659380Y-110690285D02*
X132659380Y-110499809D01*
X132611761Y-110404571D01*
X132564142Y-110356952D01*
X132421285Y-110261714D01*
X132230809Y-110214095D01*
X131849857Y-110214095D01*
X131754619Y-110261714D01*
X131707000Y-110309333D01*
X131659380Y-110404571D01*
X131659380Y-110595047D01*
X131707000Y-110690285D01*
X131754619Y-110737904D01*
X131849857Y-110785523D01*
X132087952Y-110785523D01*
X132183190Y-110737904D01*
X132230809Y-110690285D01*
X132278428Y-110595047D01*
X132278428Y-110404571D01*
X132230809Y-110309333D01*
X132183190Y-110261714D01*
X132087952Y-110214095D01*
X129230380Y-108529357D02*
X128754190Y-108862690D01*
X129230380Y-109100785D02*
X128230380Y-109100785D01*
X128230380Y-108719833D01*
X128278000Y-108624595D01*
X128325619Y-108576976D01*
X128420857Y-108529357D01*
X128563714Y-108529357D01*
X128658952Y-108576976D01*
X128706571Y-108624595D01*
X128754190Y-108719833D01*
X128754190Y-109100785D01*
X128325619Y-108148404D02*
X128278000Y-108100785D01*
X128230380Y-108005547D01*
X128230380Y-107767452D01*
X128278000Y-107672214D01*
X128325619Y-107624595D01*
X128420857Y-107576976D01*
X128516095Y-107576976D01*
X128658952Y-107624595D01*
X129230380Y-108196023D01*
X129230380Y-107576976D01*
X128230380Y-106957928D02*
X128230380Y-106862690D01*
X128278000Y-106767452D01*
X128325619Y-106719833D01*
X128420857Y-106672214D01*
X128611333Y-106624595D01*
X128849428Y-106624595D01*
X129039904Y-106672214D01*
X129135142Y-106719833D01*
X129182761Y-106767452D01*
X129230380Y-106862690D01*
X129230380Y-106957928D01*
X129182761Y-107053166D01*
X129135142Y-107100785D01*
X129039904Y-107148404D01*
X128849428Y-107196023D01*
X128611333Y-107196023D01*
X128420857Y-107148404D01*
X128325619Y-107100785D01*
X128278000Y-107053166D01*
X128230380Y-106957928D01*
X139643380Y-105671857D02*
X139167190Y-106005190D01*
X139643380Y-106243285D02*
X138643380Y-106243285D01*
X138643380Y-105862333D01*
X138691000Y-105767095D01*
X138738619Y-105719476D01*
X138833857Y-105671857D01*
X138976714Y-105671857D01*
X139071952Y-105719476D01*
X139119571Y-105767095D01*
X139167190Y-105862333D01*
X139167190Y-106243285D01*
X138738619Y-105290904D02*
X138691000Y-105243285D01*
X138643380Y-105148047D01*
X138643380Y-104909952D01*
X138691000Y-104814714D01*
X138738619Y-104767095D01*
X138833857Y-104719476D01*
X138929095Y-104719476D01*
X139071952Y-104767095D01*
X139643380Y-105338523D01*
X139643380Y-104719476D01*
X139643380Y-103767095D02*
X139643380Y-104338523D01*
X139643380Y-104052809D02*
X138643380Y-104052809D01*
X138786238Y-104148047D01*
X138881476Y-104243285D01*
X138929095Y-104338523D01*
X139643380Y-102164357D02*
X139167190Y-102497690D01*
X139643380Y-102735785D02*
X138643380Y-102735785D01*
X138643380Y-102354833D01*
X138691000Y-102259595D01*
X138738619Y-102211976D01*
X138833857Y-102164357D01*
X138976714Y-102164357D01*
X139071952Y-102211976D01*
X139119571Y-102259595D01*
X139167190Y-102354833D01*
X139167190Y-102735785D01*
X138738619Y-101783404D02*
X138691000Y-101735785D01*
X138643380Y-101640547D01*
X138643380Y-101402452D01*
X138691000Y-101307214D01*
X138738619Y-101259595D01*
X138833857Y-101211976D01*
X138929095Y-101211976D01*
X139071952Y-101259595D01*
X139643380Y-101831023D01*
X139643380Y-101211976D01*
X138738619Y-100831023D02*
X138691000Y-100783404D01*
X138643380Y-100688166D01*
X138643380Y-100450071D01*
X138691000Y-100354833D01*
X138738619Y-100307214D01*
X138833857Y-100259595D01*
X138929095Y-100259595D01*
X139071952Y-100307214D01*
X139643380Y-100878642D01*
X139643380Y-100259595D01*
X148724880Y-100845857D02*
X148248690Y-101179190D01*
X148724880Y-101417285D02*
X147724880Y-101417285D01*
X147724880Y-101036333D01*
X147772500Y-100941095D01*
X147820119Y-100893476D01*
X147915357Y-100845857D01*
X148058214Y-100845857D01*
X148153452Y-100893476D01*
X148201071Y-100941095D01*
X148248690Y-101036333D01*
X148248690Y-101417285D01*
X147820119Y-100464904D02*
X147772500Y-100417285D01*
X147724880Y-100322047D01*
X147724880Y-100083952D01*
X147772500Y-99988714D01*
X147820119Y-99941095D01*
X147915357Y-99893476D01*
X148010595Y-99893476D01*
X148153452Y-99941095D01*
X148724880Y-100512523D01*
X148724880Y-99893476D01*
X147724880Y-99560142D02*
X147724880Y-98941095D01*
X148105833Y-99274428D01*
X148105833Y-99131571D01*
X148153452Y-99036333D01*
X148201071Y-98988714D01*
X148296309Y-98941095D01*
X148534404Y-98941095D01*
X148629642Y-98988714D01*
X148677261Y-99036333D01*
X148724880Y-99131571D01*
X148724880Y-99417285D01*
X148677261Y-99512523D01*
X148629642Y-99560142D01*
X148724880Y-97383357D02*
X148248690Y-97716690D01*
X148724880Y-97954785D02*
X147724880Y-97954785D01*
X147724880Y-97573833D01*
X147772500Y-97478595D01*
X147820119Y-97430976D01*
X147915357Y-97383357D01*
X148058214Y-97383357D01*
X148153452Y-97430976D01*
X148201071Y-97478595D01*
X148248690Y-97573833D01*
X148248690Y-97954785D01*
X147820119Y-97002404D02*
X147772500Y-96954785D01*
X147724880Y-96859547D01*
X147724880Y-96621452D01*
X147772500Y-96526214D01*
X147820119Y-96478595D01*
X147915357Y-96430976D01*
X148010595Y-96430976D01*
X148153452Y-96478595D01*
X148724880Y-97050023D01*
X148724880Y-96430976D01*
X148058214Y-95573833D02*
X148724880Y-95573833D01*
X147677261Y-95811928D02*
X148391547Y-96050023D01*
X148391547Y-95430976D01*
X148723880Y-93670357D02*
X148247690Y-94003690D01*
X148723880Y-94241785D02*
X147723880Y-94241785D01*
X147723880Y-93860833D01*
X147771500Y-93765595D01*
X147819119Y-93717976D01*
X147914357Y-93670357D01*
X148057214Y-93670357D01*
X148152452Y-93717976D01*
X148200071Y-93765595D01*
X148247690Y-93860833D01*
X148247690Y-94241785D01*
X147819119Y-93289404D02*
X147771500Y-93241785D01*
X147723880Y-93146547D01*
X147723880Y-92908452D01*
X147771500Y-92813214D01*
X147819119Y-92765595D01*
X147914357Y-92717976D01*
X148009595Y-92717976D01*
X148152452Y-92765595D01*
X148723880Y-93337023D01*
X148723880Y-92717976D01*
X147723880Y-91813214D02*
X147723880Y-92289404D01*
X148200071Y-92337023D01*
X148152452Y-92289404D01*
X148104833Y-92194166D01*
X148104833Y-91956071D01*
X148152452Y-91860833D01*
X148200071Y-91813214D01*
X148295309Y-91765595D01*
X148533404Y-91765595D01*
X148628642Y-91813214D01*
X148676261Y-91860833D01*
X148723880Y-91956071D01*
X148723880Y-92194166D01*
X148676261Y-92289404D01*
X148628642Y-92337023D01*
X156822142Y-88970380D02*
X156488809Y-88494190D01*
X156250714Y-88970380D02*
X156250714Y-87970380D01*
X156631666Y-87970380D01*
X156726904Y-88018000D01*
X156774523Y-88065619D01*
X156822142Y-88160857D01*
X156822142Y-88303714D01*
X156774523Y-88398952D01*
X156726904Y-88446571D01*
X156631666Y-88494190D01*
X156250714Y-88494190D01*
X157203095Y-88065619D02*
X157250714Y-88018000D01*
X157345952Y-87970380D01*
X157584047Y-87970380D01*
X157679285Y-88018000D01*
X157726904Y-88065619D01*
X157774523Y-88160857D01*
X157774523Y-88256095D01*
X157726904Y-88398952D01*
X157155476Y-88970380D01*
X157774523Y-88970380D01*
X158631666Y-87970380D02*
X158441190Y-87970380D01*
X158345952Y-88018000D01*
X158298333Y-88065619D01*
X158203095Y-88208476D01*
X158155476Y-88398952D01*
X158155476Y-88779904D01*
X158203095Y-88875142D01*
X158250714Y-88922761D01*
X158345952Y-88970380D01*
X158536428Y-88970380D01*
X158631666Y-88922761D01*
X158679285Y-88875142D01*
X158726904Y-88779904D01*
X158726904Y-88541809D01*
X158679285Y-88446571D01*
X158631666Y-88398952D01*
X158536428Y-88351333D01*
X158345952Y-88351333D01*
X158250714Y-88398952D01*
X158203095Y-88446571D01*
X158155476Y-88541809D01*
X158629880Y-91701857D02*
X158153690Y-92035190D01*
X158629880Y-92273285D02*
X157629880Y-92273285D01*
X157629880Y-91892333D01*
X157677500Y-91797095D01*
X157725119Y-91749476D01*
X157820357Y-91701857D01*
X157963214Y-91701857D01*
X158058452Y-91749476D01*
X158106071Y-91797095D01*
X158153690Y-91892333D01*
X158153690Y-92273285D01*
X157725119Y-91320904D02*
X157677500Y-91273285D01*
X157629880Y-91178047D01*
X157629880Y-90939952D01*
X157677500Y-90844714D01*
X157725119Y-90797095D01*
X157820357Y-90749476D01*
X157915595Y-90749476D01*
X158058452Y-90797095D01*
X158629880Y-91368523D01*
X158629880Y-90749476D01*
X157629880Y-90416142D02*
X157629880Y-89749476D01*
X158629880Y-90178047D01*
X137612380Y-112990238D02*
X137136190Y-113323571D01*
X137612380Y-113561666D02*
X136612380Y-113561666D01*
X136612380Y-113180714D01*
X136660000Y-113085476D01*
X136707619Y-113037857D01*
X136802857Y-112990238D01*
X136945714Y-112990238D01*
X137040952Y-113037857D01*
X137088571Y-113085476D01*
X137136190Y-113180714D01*
X137136190Y-113561666D01*
X136612380Y-112704523D02*
X137612380Y-112371190D01*
X136612380Y-112037857D01*
X137612380Y-111180714D02*
X137612380Y-111752142D01*
X137612380Y-111466428D02*
X136612380Y-111466428D01*
X136755238Y-111561666D01*
X136850476Y-111656904D01*
X136898095Y-111752142D01*
X154058880Y-110323238D02*
X153582690Y-110656571D01*
X154058880Y-110894666D02*
X153058880Y-110894666D01*
X153058880Y-110513714D01*
X153106500Y-110418476D01*
X153154119Y-110370857D01*
X153249357Y-110323238D01*
X153392214Y-110323238D01*
X153487452Y-110370857D01*
X153535071Y-110418476D01*
X153582690Y-110513714D01*
X153582690Y-110894666D01*
X153058880Y-110037523D02*
X154058880Y-109704190D01*
X153058880Y-109370857D01*
X153154119Y-109085142D02*
X153106500Y-109037523D01*
X153058880Y-108942285D01*
X153058880Y-108704190D01*
X153106500Y-108608952D01*
X153154119Y-108561333D01*
X153249357Y-108513714D01*
X153344595Y-108513714D01*
X153487452Y-108561333D01*
X154058880Y-109132761D01*
X154058880Y-108513714D01*
X143327380Y-93686238D02*
X142851190Y-94019571D01*
X143327380Y-94257666D02*
X142327380Y-94257666D01*
X142327380Y-93876714D01*
X142375000Y-93781476D01*
X142422619Y-93733857D01*
X142517857Y-93686238D01*
X142660714Y-93686238D01*
X142755952Y-93733857D01*
X142803571Y-93781476D01*
X142851190Y-93876714D01*
X142851190Y-94257666D01*
X142327380Y-93400523D02*
X143327380Y-93067190D01*
X142327380Y-92733857D01*
X142327380Y-92495761D02*
X142327380Y-91876714D01*
X142708333Y-92210047D01*
X142708333Y-92067190D01*
X142755952Y-91971952D01*
X142803571Y-91924333D01*
X142898809Y-91876714D01*
X143136904Y-91876714D01*
X143232142Y-91924333D01*
X143279761Y-91971952D01*
X143327380Y-92067190D01*
X143327380Y-92352904D01*
X143279761Y-92448142D01*
X143232142Y-92495761D01*
X127762095Y-102639880D02*
X127762095Y-103449404D01*
X127809714Y-103544642D01*
X127857333Y-103592261D01*
X127952571Y-103639880D01*
X128143047Y-103639880D01*
X128238285Y-103592261D01*
X128285904Y-103544642D01*
X128333523Y-103449404D01*
X128333523Y-102639880D01*
X129333523Y-103639880D02*
X128762095Y-103639880D01*
X129047809Y-103639880D02*
X129047809Y-102639880D01*
X128952571Y-102782738D01*
X128857333Y-102877976D01*
X128762095Y-102925595D01*
M02*
