M48
; DRILL file {KiCad 5.1.9-73d0e3b20d~88~ubuntu20.04.1} date Thu Feb 25 16:20:32 2021
; FORMAT={-:-/ absolute / inch / decimal}
; #@! TF.CreationDate,2021-02-25T16:20:32+01:00
; #@! TF.GenerationSoftware,Kicad,Pcbnew,5.1.9-73d0e3b20d~88~ubuntu20.04.1
; #@! TF.FileFunction,Plated,1,2,PTH
FMAT,2
INCH
T1C0.0157
T2C0.0295
T3C0.0374
T4C0.0394
T5C0.1260
%
G90
G05
T1
X4.39Y-4.015
X4.45Y-4.24
X4.48Y-3.8
X4.505Y-3.51
X4.56Y-4.37
X4.65Y-4.025
X4.65Y-4.625
X4.75Y-4.625
X4.85Y-3.76
X4.85Y-3.825
X4.85Y-3.89
X4.85Y-4.625
X4.9Y-4.26
X5.0Y-3.4
X5.01Y-3.91
X5.035Y-3.995
X5.04Y-3.55
X5.055Y-4.14
X5.06Y-4.275
X5.15Y-3.4
X5.165Y-3.635
X5.165Y-3.755
X5.23Y-4.11
X5.275Y-3.95
X5.28Y-3.4
X5.28Y-4.12
X5.34Y-3.715
X5.34Y-4.06
X5.395Y-3.615
X5.4748Y-4.0102
X5.5Y-3.94
X5.655Y-4.63
X5.75Y-4.25
X5.755Y-4.63
X6.175Y-3.7
X6.175Y-3.75
X6.175Y-3.8
X6.2Y-4.2
X6.2Y-4.3
X6.2Y-4.4
X6.2Y-4.5
T2
X4.42Y-3.59
X4.42Y-3.69
X4.47Y-3.64
X4.51Y-3.99
X4.56Y-3.94
X4.56Y-4.04
X4.7Y-3.59
X4.7Y-3.69
X4.75Y-3.64
X5.035Y-3.64
X5.035Y-3.74
X5.0575Y-4.4075
X5.0575Y-4.5075
X5.085Y-3.69
X5.1075Y-4.4575
X5.9325Y-3.73
X5.9825Y-3.68
X5.9825Y-3.78
T3
X5.475Y-4.3281
X5.475Y-4.4266
X5.475Y-4.525
X5.545Y-3.5666
X5.545Y-3.665
X5.545Y-3.7634
X5.97Y-4.2281
X5.97Y-4.3266
X5.97Y-4.425
T4
X4.42Y-4.3766
X4.42Y-4.475
X6.36Y-3.82
X6.36Y-3.92
X6.36Y-4.02
X6.36Y-4.12
X6.36Y-4.22
X6.36Y-4.32
X6.36Y-4.42
X6.36Y-4.52
X6.4275Y-3.4975
X6.4275Y-3.5959
X6.46Y-3.82
X6.46Y-3.92
X6.46Y-4.02
X6.46Y-4.12
X6.46Y-4.22
X6.46Y-4.32
X6.46Y-4.42
X6.46Y-4.52
T5
X4.25Y-3.4
X4.25Y-3.8
X4.25Y-4.2
X6.625Y-3.4
X6.625Y-3.8
X6.625Y-4.2
T0
M30
